SplineFontDB: 3.0
FontName: Comme-Light
FullName: Comme Light
FamilyName: Comme
Weight: Light
Copyright: Digitized data Copyright (c) 2011-2014, vernon adams.
Version: 1
ItalicAngle: 0
UnderlinePosition: 0
UnderlineWidth: 0
Ascent: 1638
Descent: 410
UFOAscent: 1560
UFODescent: -556
LayerCount: 2
Layer: 0 0 "Back"  1
Layer: 1 0 "Fore"  0
FSType: 0
OS2Version: 0
OS2_WeightWidthSlopeOnly: 0
OS2_UseTypoMetrics: 0
CreationTime: 1390953982
ModificationTime: 1390954986
PfmFamily: 17
TTFWeight: 300
TTFWidth: 5
LineGap: 0
VLineGap: 0
OS2TypoAscent: 2416
OS2TypoAOffset: 0
OS2TypoDescent: -512
OS2TypoDOffset: 0
OS2TypoLinegap: 0
OS2WinAscent: 2416
OS2WinAOffset: 0
OS2WinDescent: 512
OS2WinDOffset: 0
HheadAscent: 0
HheadAOffset: 1
HheadDescent: 0
HheadDOffset: 1
OS2Vendor: 'NeWT'
Lookup: 4 0 1 "ligaStandardLigatureslookup0"  {"ligaStandardLigatureslookup0 subtable"  } ['liga' ('latn' <'dflt' > 'grek' <'dflt' > 'DFLT' <'dflt' > ) ]
MarkAttachClasses: 1
DEI: 91125
LangName: 1033 "" "" "" "" "" "Version 2" "" "Comme is a trademark of Vernon Adams and may be registered in certain jurisdictions." "newtypography" "Vernon Adams" "" "newtypography.co.uk" "newtypography.co.uk" "Copyright (c) 2014, vernon adams.+AAoACgAA-This Font Software is licensed under the SIL Open Font License, Version 1.1.+AAoA-This license is available with a FAQ at:+AAoA-http://scripts.sil.org/OFL+AAoA" "http://scripts.sil.org/OFL" "" "Comme" "Light" 
PickledData: "(dp1
S'public.glyphOrder'
p2
(S'A'
S'Agrave'
S'Aacute'
S'Acircumflex'
S'Atilde'
S'Adieresis'
S'Aring'
S'Amacron'
S'Abreve'
S'Aogonek'
S'uni01CD'
S'uni0200'
S'uni0202'
S'uni0226'
S'B'
S'uni1E02'
S'C'
S'Ccedilla'
S'Cacute'
S'Ccircumflex'
S'Cdotaccent'
S'Ccaron'
S'D'
S'Dcaron'
S'uni1E0A'
S'E'
S'Egrave'
S'Eacute'
S'Ecircumflex'
S'Edieresis'
S'Emacron'
S'Ebreve'
S'Edotaccent'
S'Eogonek'
S'Ecaron'
S'uni0204'
S'uni0206'
S'uni0228'
S'uni1EBC'
S'F'
S'uni1E1E'
S'G'
S'Gcircumflex'
S'Gbreve'
S'Gdotaccent'
S'Gcommaaccent'
S'Gcaron'
S'uni01F4'
S'H'
S'Hcircumflex'

StartChar: A
Encoding: 65 65 0
Width: 1379
VWidth: 0
GlyphClass: 2
Flags: HW
PickledData: "(dp1
S'org.pippin.gimp.org.kernagic'
p2
(dp3
S'lstem'
p4
I0
sS'rstem'
p5
I0
ssS'com.typemytype.robofont.layerData'
p6
(dp7
sS'org.robofab.postScriptHintData'
p8
(dp9
s."
AnchorPoint: "bot" 688 0 basechar 0
AnchorPoint: "ogonek" 1226 0 basechar 0
AnchorPoint: "top" 686 1456 basechar 0
LayerCount: 2
Fore
SplineSet
432 586 m 1
 948 586 l 1
 688 1291 l 1
 432 586 l 1
613 1456 m 1
 761 1456 l 1
 1318 0 l 1
 1164 0 l 1
 987 473 l 1
 393 473 l 1
 216 0 l 1
 61 0 l 1
 613 1456 l 1
EndSplineSet
EndChar

StartChar: AE
Encoding: 198 198 1
Width: 1644
VWidth: 0
GlyphClass: 2
Flags: HW
PickledData: "(dp1
S'org.pippin.gimp.org.kernagic'
p2
(dp3
S'lstem'
p4
I0
sS'rstem'
p5
I0
ssS'com.typemytype.robofont.layerData'
p6
(dp7
sS'org.robofab.postScriptHintData'
p8
(dp9
s."
LayerCount: 2
Fore
SplineSet
742 1456 m 1
 1595 1456 l 1
 1590 1334 l 1
 977 1334 l 1
 977 821 l 1
 1523 821 l 1
 1523 699 l 1
 977 699 l 1
 977 123 l 1
 1607 123 l 1
 1596 0 l 1
 826 0 l 1
 826 481 l 1
 366 481 l 1
 99 0 l 1
 -70 0 l 1
 742 1456 l 1
826 594 m 1
 826 1325 l 1
 426 594 l 1
 826 594 l 1
EndSplineSet
EndChar

StartChar: B
Encoding: 66 66 13
Width: 1366
VWidth: 0
GlyphClass: 2
Flags: HW
PickledData: "(dp1
S'org.pippin.gimp.org.kernagic'
p2
(dp3
S'lstem'
p4
I0
sS'rstem'
p5
I0
ssS'com.typemytype.robofont.layerData'
p6
(dp7
sS'org.robofab.postScriptHintData'
p8
(dp9
s."
AnchorPoint: "top" 661 1456 basechar 0
LayerCount: 2
Fore
SplineSet
367 724 m 1
 367 118 l 1
 450 113 523 111 588 111 c 0
 1037 111 1077 239 1077 418 c 0
 1077 638 946 724 652 724 c 2
 367 724 l 1
367 1334 m 1
 367 840 l 1
 678 840 l 2
 873 840 1037 879 1037 1091 c 0
 1037 1265 941 1348 617 1348 c 0
 546 1348 463 1343 367 1334 c 1
556 -11 m 0
 454 -11 339 -5 209 6 c 1
 209 1437 l 1
 366 1456 497 1465 607 1465 c 0
 1150 1465 1178 1259 1178 1100 c 0
 1178 963 1124 847 929 785 c 1
 1143 734 1233 606 1233 425 c 0
 1233 120 1053 -11 556 -11 c 0
EndSplineSet
EndChar

StartChar: C
Encoding: 67 67 14
Width: 1395
VWidth: 0
GlyphClass: 2
Flags: HW
PickledData: "(dp1
S'org.pippin.gimp.org.kernagic'
p2
(dp3
S'lstem'
p4
I0
sS'rstem'
p5
I0
ssS'com.typemytype.robofont.layerData'
p6
(dp7
sS'org.robofab.postScriptHintData'
p8
(dp9
s."
AnchorPoint: "bot" 793 1 basechar 0
AnchorPoint: "top" 776 1456 basechar 0
LayerCount: 2
Fore
SplineSet
1314 1116 m 1
 1203 1075 l 1
 1188 1075 l 1
 1145 1239 987 1349 806 1349 c 0
 508 1349 313 1134 313 729 c 0
 313 325 507 109 804 109 c 0
 986 109 1148 217 1191 382 c 1
 1206 382 l 1
 1318 342 l 1
 1257 92 1015 -19 796 -19 c 0
 411 -19 154 256 154 729 c 0
 154 1202 411 1477 796 1477 c 0
 1015 1477 1254 1365 1314 1116 c 1
EndSplineSet
EndChar

StartChar: D
Encoding: 68 68 21
Width: 1501
VWidth: 0
GlyphClass: 2
Flags: HW
PickledData: "(dp1
S'org.pippin.gimp.org.kernagic'
p2
(dp3
S'lstem'
p4
I0
sS'rstem'
p5
I0
ssS'com.typemytype.robofont.layerData'
p6
(dp7
sS'com.fontlab.hintData'
p8
(dp9
S'vhints'
p10
((dp11
S'position'
p12
I1280
sS'width'
p13
I122
stp14
sS'hhints'
p15
((dp16
g12
I0
sg13
I94
s(dp17
g12
I1355
sg13
I94
stp18
ssS'org.robofab.postScriptHintData'
p19
(dp20
s."
HStem: 0 94 1355 94
VStem: 1280 122
AnchorPoint: "mid" 290 766 basechar 0
AnchorPoint: "bot" 776 -1 basechar 0
AnchorPoint: "top" 741 1456 basechar 0
LayerCount: 2
Fore
SplineSet
367 111 m 1
 433 105 494 102 550 102 c 0
 1061 102 1189 356 1189 736 c 0
 1189 1127 1071 1348 587 1348 c 0
 521 1348 448 1343 367 1335 c 1
 367 111 l 1
209 9 m 1
 209 1437 l 1
 347 1455 469 1463 577 1463 c 0
 1201 1463 1347 1180 1347 741 c 0
 1347 282 1141 -10 509 -10 c 0
 418 -10 318 -3 209 9 c 1
EndSplineSet
EndChar

StartChar: Delta
Encoding: 916 916 24
Width: 1339
VWidth: 0
GlyphClass: 2
Flags: HW
PickledData: "(dp1
S'org.pippin.gimp.org.kernagic'
p2
(dp3
S'lstem'
p4
I0
sS'rstem'
p5
I0
ssS'com.typemytype.robofont.layerData'
p6
(dp7
S'b'
(dp8
S'name'
p9
S'Delta'
p10
sS'lib'
p11
(dp12
sS'unicodes'
p13
(tsS'width'
p14
I1334
sS'contours'
p15
(tsS'components'
p16
(tsS'anchors'
p17
(tsssS'org.robofab.postScriptHintData'
p18
(dp19
s."
LayerCount: 2
Fore
SplineSet
62 0 m 1
 585 1486 l 1
 735 1486 l 1
 1268 0 l 1
 62 0 l 1
252 134 m 1
 1077 134 l 1
 659 1329 l 1
 252 134 l 1
EndSplineSet
EndChar

StartChar: E
Encoding: 69 69 25
Width: 1268
VWidth: 0
GlyphClass: 2
Flags: HW
PickledData: "(dp1
S'org.pippin.gimp.org.kernagic'
p2
(dp3
S'lstem'
p4
I0
sS'rstem'
p5
I0
ssS'com.typemytype.robofont.layerData'
p6
(dp7
sS'org.robofab.postScriptHintData'
p8
(dp9
s."
AnchorPoint: "bot" 683 0 basechar 0
AnchorPoint: "ogonek" 860 0 basechar 0
AnchorPoint: "top" 720 1456 basechar 0
LayerCount: 2
Fore
SplineSet
209 1456 m 1
 1140 1456 l 1
 1135 1334 l 1
 367 1334 l 1
 367 813 l 1
 1068 813 l 1
 1068 691 l 1
 367 691 l 1
 367 123 l 1
 1151 123 l 1
 1140 0 l 1
 209 0 l 1
 209 1456 l 1
EndSplineSet
EndChar

StartChar: Eng
Encoding: 330 330 34
Width: 1513
VWidth: 0
GlyphClass: 2
Flags: HW
PickledData: "(dp1
S'org.robofab.postScriptHintData'
p2
(dp3
s."
LayerCount: 2
Fore
SplineSet
1170 1456 m 1
 1310 1456 l 1
 1310 0 l 2
 1310 -318 1186.09823706 -426 738 -426 c 1
 735 -307 l 1
 1100.05080652 -307 1165.44026633 -230.924983186 1169.75911071 -29.627046109 c 1
 336 1249 l 1
 350 808 l 1
 350 0 l 1
 209 0 l 1
 209 1456 l 1
 366 1456 l 1
 1170 213.857421875 l 1
 1170 1456 l 1
EndSplineSet
EndChar

StartChar: Euro
Encoding: 8364 8364 37
Width: 1378
VWidth: 0
GlyphClass: 2
Flags: HW
PickledData: "(dp1
S'org.pippin.gimp.org.kernagic'
p2
(dp3
S'lstem'
p4
I0
sS'rstem'
p5
I0
ssS'com.typemytype.robofont.layerData'
p6
(dp7
S'b'
(dp8
S'name'
p9
S'Euro'
p10
sS'lib'
p11
(dp12
sS'unicodes'
p13
(tsS'width'
p14
I1391
sS'contours'
p15
(tsS'components'
p16
(tsS'anchors'
p17
(tsssS'org.robofab.postScriptHintData'
p18
(dp19
s."
LayerCount: 2
Fore
SplineSet
-38 532 m 1
 -29 638 l 1
 94.3180726585 638 l 1
 92.1183679329 667.45697544 91 697.797676726 91 729 c 0
 91 761.97074949 92.2487298148 793.979442546 94.7024983677 825 c 1
 -30 825 l 1
 -23 927 l 1
 107.692231553 927 l 1
 170.432685873 1277.84892774 405.368457028 1477 733 1477 c 0
 952 1477 1191 1365 1251 1116 c 1
 1140 1075 l 1
 1125 1075 l 1
 1082 1239 924 1349 743 1349 c 0
 498.023599171 1349 322.65424315 1203.70374142 268.002626684 927 c 1
 850 927 l 1
 841 825 l 1
 253.901004244 825 l 1
 251.317363111 794.292839115 250 762.288211842 250 729 c 0
 250 697.520842259 251.177837039 667.183093608 253.490461766 638 c 1
 841 638 l 1
 832 532 l 1
 267.787752803 532 l 1
 322.029377262 255.19714062 496.657500011 109 741 109 c 0
 923 109 1085 217 1128 382 c 1
 1143 382 l 1
 1255 342 l 1
 1194 92 952 -19 733 -19 c 0
 405.057309737 -19 169.986538762 180.529514094 107.513946223 532 c 1
 -38 532 l 1
EndSplineSet
EndChar

StartChar: F
Encoding: 70 70 38
Width: 1174
VWidth: 0
GlyphClass: 2
Flags: HW
PickledData: "(dp1
S'org.pippin.gimp.org.kernagic'
p2
(dp3
S'lstem'
p4
I0
sS'rstem'
p5
I705
ssS'com.typemytype.robofont.layerData'
p6
(dp7
sS'org.robofab.postScriptHintData'
p8
(dp9
s."
AnchorPoint: "top" 696 1456 basechar 0
LayerCount: 2
Fore
SplineSet
209 1456 m 1
 1130 1456 l 1
 1121 1332 l 1
 368 1332 l 1
 368 790 l 1
 1036 790 l 1
 1036 673 l 1
 368 673 l 1
 368 0 l 1
 209 0 l 1
 209 1456 l 1
EndSplineSet
EndChar

StartChar: G
Encoding: 71 71 39
Width: 1470
VWidth: 0
GlyphClass: 2
Flags: HW
PickledData: "(dp1
S'org.pippin.gimp.org.kernagic'
p2
(dp3
S'lstem'
p4
I0
sS'rstem'
p5
I0
ssS'com.typemytype.robofont.layerData'
p6
(dp7
sS'org.robofab.postScriptHintData'
p8
(dp9
s."
AnchorPoint: "bot" 821 1 basechar 0
AnchorPoint: "top" 808 1456 basechar 0
LayerCount: 2
Fore
SplineSet
827 -20 m 0
 374 -20 154 297 154 734 c 0
 154 1186 422 1475 851 1475 c 0
 1048 1475 1220 1407 1319 1309 c 1
 1250 1213 l 1
 1236 1213 l 1
 1159 1281 1028 1348 855 1348 c 0
 515 1348 313 1106 313 735 c 0
 313 359 464 109 856 109 c 0
 991 109 1099 131 1173 152 c 1
 1173 626 l 1
 840 643 l 1
 850 754 l 1
 1321 754 l 1
 1321 70 l 1
 1176 13 1024 -20 827 -20 c 0
EndSplineSet
EndChar

StartChar: H
Encoding: 72 72 45
Width: 1526
VWidth: 0
GlyphClass: 2
Flags: HW
PickledData: "(dp1
S'org.pippin.gimp.org.kernagic'
p2
(dp3
S'lstem'
p4
I0
sS'rstem'
p5
I0
ssS'com.typemytype.robofont.layerData'
p6
(dp7
sS'org.robofab.postScriptHintData'
p8
(dp9
s."
AnchorPoint: "top" 774 1456 basechar 0
LayerCount: 2
Fore
SplineSet
1156 686 m 1
 370 686 l 1
 370 0 l 1
 212 0 l 1
 212 1456 l 1
 370 1456 l 1
 370 811 l 1
 1156 811 l 1
 1156 1456 l 1
 1314 1456 l 1
 1314 0 l 1
 1156 0 l 1
 1156 686 l 1
EndSplineSet
EndChar

StartChar: Hbar
Encoding: 294 294 46
Width: 1478
VWidth: 0
GlyphClass: 2
Flags: HW
PickledData: "(dp1
S'org.pippin.gimp.org.kernagic'
p2
(dp3
S'lstem'
p4
I0
sS'rstem'
p5
I0
ssS'com.typemytype.robofont.layerData'
p6
(dp7
sS'org.robofab.postScriptHintData'
p8
(dp9
s."
LayerCount: 2
Fore
SplineSet
92 1251 m 1
 92 1146 l 1
 1417 1146 l 1
 1417 1251 l 1
 92 1251 l 1
EndSplineSet
Refer: 45 72 N 1 0 0 1 0 0 2
EndChar

StartChar: I
Encoding: 73 73 48
Width: 919
VWidth: 0
GlyphClass: 2
Flags: HW
PickledData: "(dp1
S'org.pippin.gimp.org.kernagic'
p2
(dp3
S'lstem'
p4
I0
sS'rstem'
p5
I0
ssS'com.typemytype.robofont.layerData'
p6
(dp7
sS'com.fontlab.hintData'
p8
(dp9
S'vhints'
p10
((dp11
S'position'
p12
I111
sS'width'
p13
I529
stp14
sS'hhints'
p15
((dp16
g12
I0
sg13
I86
s(dp17
g12
I1363
sg13
I86
stp18
ssS'org.robofab.postScriptHintData'
p19
(dp20
s."
HStem: 0 86 1363 86
VStem: 111 529
AnchorPoint: "ogonek" 461 0 basechar 0
AnchorPoint: "top" 456 1456 basechar 0
LayerCount: 2
Fore
SplineSet
181 1456 m 1
 729 1456 l 1
 729 1357 l 1
 535 1357 l 1
 535 99 l 1
 729 99 l 1
 729 0 l 1
 181 0 l 1
 181 99 l 1
 377 99 l 1
 377 1357 l 1
 181 1357 l 1
 181 1456 l 1
EndSplineSet
EndChar

StartChar: J
Encoding: 74 74 59
Width: 769
VWidth: 0
GlyphClass: 2
Flags: HW
PickledData: "(dp1
S'org.pippin.gimp.org.kernagic'
p2
(dp3
S'lstem'
p4
I132
sS'rstem'
p5
I0
ssS'com.typemytype.robofont.layerData'
p6
(dp7
sS'org.robofab.postScriptHintData'
p8
(dp9
s."
AnchorPoint: "top" 459 1456 basechar 0
LayerCount: 2
Fore
SplineSet
376 1456 m 1
 534 1456 l 1
 534 24 l 2
 534 -236 480 -281 262 -359 c 2
 186 -386 l 1
 138 -267 l 1
 243 -223 l 1
 361 -175 376 -152 376 17 c 2
 376 1456 l 1
EndSplineSet
EndChar

StartChar: K
Encoding: 75 75 61
Width: 1292
VWidth: 0
GlyphClass: 2
Flags: HW
PickledData: "(dp1
S'org.pippin.gimp.org.kernagic'
p2
(dp3
S'lstem'
p4
I0
sS'rstem'
p5
I851
ssS'com.typemytype.robofont.layerData'
p6
(dp7
sS'org.robofab.postScriptHintData'
p8
(dp9
s."
AnchorPoint: "bot" 670 0 basechar 0
AnchorPoint: "top" 668 1456 basechar 0
LayerCount: 2
Fore
SplineSet
1253 1456 m 1
 1253 1437 l 1
 644 835 l 1
 1290 17 l 1
 1290 0 l 1
 1112 0 l 1
 527 751 l 1
 367 595 l 1
 367 0 l 1
 209 0 l 1
 209 1456 l 1
 367 1456 l 1
 367 743 l 1
 1080 1456 l 1
 1253 1456 l 1
EndSplineSet
EndChar

StartChar: L
Encoding: 76 76 63
Width: 1090
VWidth: 0
GlyphClass: 2
Flags: HW
PickledData: "(dp1
S'org.pippin.gimp.org.kernagic'
p2
(dp3
S'lstem'
p4
I0
sS'rstem'
p5
I597
ssS'com.typemytype.robofont.layerData'
p6
(dp7
sS'org.robofab.postScriptHintData'
p8
(dp9
s."
AnchorPoint: "mid" 313 736 basechar 0
AnchorPoint: "bot" 641 0 basechar 0
AnchorPoint: "top" 468 1456 basechar 0
LayerCount: 2
Fore
SplineSet
209 1456 m 1
 367 1456 l 1
 367 123 l 1
 1076 123 l 1
 1073 0 l 1
 209 0 l 1
 209 1456 l 1
EndSplineSet
EndChar

StartChar: M
Encoding: 77 77 69
Width: 1797
VWidth: 0
GlyphClass: 2
Flags: HW
PickledData: "(dp1
S'org.pippin.gimp.org.kernagic'
p2
(dp3
S'lstem'
p4
I0
sS'rstem'
p5
I0
ssS'com.typemytype.robofont.guides'
p6
((dp7
S'y'
I378
sS'x'
I548
sS'magnetic'
p8
I5
sS'angle'
p9
I0
sS'isGlobal'
p10
I00
stp11
sS'com.typemytype.robofont.layerData'
p12
(dp13
sS'com.fontlab.hintData'
p14
(dp15
S'vhints'
p16
((dp17
S'position'
p18
I185
sS'width'
p19
I166
s(dp20
g18
I214
sg19
I151
s(dp21
g18
I332
sg19
I33
s(dp22
g18
I1463
sg19
I149
s(dp23
g18
I1463
sg19
I39
s(dp24
g18
I1477
sg19
I164
stp25
ssS'org.robofab.postScriptHintData'
p26
(dp27
s."
VStem: 185 166 214 151 332 33 1463 149 1463 39 1477 164
AnchorPoint: "top" 911 1456 basechar 0
LayerCount: 2
Fore
SplineSet
190 0 m 1
 190 494 l 1
 212 1456 l 1
 410 1456 l 1
 900 339 l 1
 1394 1456 l 1
 1585 1456 l 1
 1608 494 l 1
 1608 0 l 1
 1461 0 l 1
 1461 496 l 1
 1452 1253 l 1
 967 160 l 1
 831 160 l 1
 347 1264 l 1
 338 494 l 1
 338 0 l 1
 190 0 l 1
EndSplineSet
EndChar

StartChar: N
Encoding: 78 78 70
Width: 1519
VWidth: 0
GlyphClass: 2
Flags: HW
PickledData: "(dp1
S'org.pippin.gimp.org.kernagic'
p2
(dp3
S'lstem'
p4
I0
sS'rstem'
p5
I0
ssS'com.typemytype.robofont.layerData'
p6
(dp7
sS'org.robofab.postScriptHintData'
p8
(dp9
s."
AnchorPoint: "bot" 773 0 basechar 0
AnchorPoint: "top" 787 1456 basechar 0
LayerCount: 2
Fore
SplineSet
1170 1456 m 1
 1310 1456 l 1
 1310 0 l 1
 1148 0 l 1
 336 1249 l 1
 350 808 l 1
 350 0 l 1
 209 0 l 1
 209 1456 l 1
 366 1456 l 1
 1180 198 l 1
 1170 609 l 1
 1170 1456 l 1
EndSplineSet
EndChar

StartChar: O
Encoding: 79 79 75
Width: 1622
VWidth: 0
GlyphClass: 2
Flags: HW
PickledData: "(dp1
S'org.pippin.gimp.org.kernagic'
p2
(dp3
S'lstem'
p4
I0
sS'rstem'
p5
I0
ssS'com.typemytype.robofont.guides'
p6
(tsS'com.typemytype.robofont.layerData'
p7
(dp8
sS'com.fontlab.hintData'
p9
(dp10
S'vhints'
p11
((dp12
S'position'
p13
I150
sS'width'
p14
I122
s(dp15
g13
I1390
sg14
I122
stp16
sS'hhints'
p17
((dp18
g13
I-19
sg14
I96
s(dp19
g13
I1372
sg14
I96
stp20
ssS'org.robofab.postScriptHintData'
p21
(dp22
s."
HStem: -19 96 1372 96
VStem: 150 122 1390 122
AnchorPoint: "ogonek" 904 1 basechar 0
AnchorPoint: "top" 814 1456 basechar 0
LayerCount: 2
Fore
SplineSet
157 720 m 0
 157 1180 373 1476 815 1476 c 0
 1247 1476 1465 1176 1465 716 c 0
 1465 278 1260 -20 814 -20 c 0
 362 -20 157 272 157 720 c 0
1307 719 m 0
 1307 1095 1170 1349 814 1349 c 0
 460 1349 316 1098 316 719 c 0
 316 357 446 107 812 107 c 0
 1178 107 1307 357 1307 719 c 0
EndSplineSet
EndChar

StartChar: OE
Encoding: 338 338 76
Width: 2447
VWidth: 0
GlyphClass: 2
Flags: HW
PickledData: "(dp1
S'org.pippin.gimp.org.kernagic'
p2
(dp3
S'lstem'
p4
I0
sS'rstem'
p5
I0
ssS'com.typemytype.robofont.layerData'
p6
(dp7
S'b'
(dp8
S'name'
p9
S'OE'
p10
sS'lib'
p11
(dp12
sS'unicodes'
p13
(tsS'width'
p14
I2367
sS'contours'
p15
(tsS'components'
p16
(tsS'anchors'
p17
(tsssS'org.robofab.postScriptHintData'
p18
(dp19
s."
LayerCount: 2
Fore
SplineSet
147 720 m 0
 147 1180 363 1476 805 1476 c 0
 1026 1476 1199 1387 1297 1231 c 1
 1297 1456 l 1
 2228 1456 l 1
 2222 1334 l 1
 1455 1334 l 1
 1455 813 l 1
 2156 813 l 1
 2156 691 l 1
 1455 691 l 1
 1455 123 l 1
 2239 123 l 1
 2228 0 l 1
 1297 0 l 1
 1297 215 l 1
 1200 66 1030 -20 804 -20 c 0
 352 -20 147 272 147 720 c 0
1296 719 m 0
 1296 1095 1159 1349 804 1349 c 0
 449 1349 306 1098 306 719 c 0
 306 357 436 107 802 107 c 0
 1167 107 1296 357 1296 719 c 0
EndSplineSet
EndChar

StartChar: Oslash
Encoding: 216 216 84
Width: 1629
VWidth: 0
GlyphClass: 2
Flags: HW
PickledData: "(dp1
S'org.pippin.gimp.org.kernagic'
p2
(dp3
S'lstem'
p4
I0
sS'rstem'
p5
I0
ssS'com.typemytype.robofont.layerData'
p6
(dp7
sS'org.robofab.postScriptHintData'
p8
(dp9
s."
AnchorPoint: "top" 815 1456 basechar 0
LayerCount: 2
Fore
SplineSet
511 -243 m 1
 424 -212 l 1
 518 34 l 1
 272 137 157 385 157 720 c 0
 157 1180 373 1476 815 1476 c 0
 904 1476 984 1463 1054 1439 c 1
 1147 1683 l 1
 1240 1648 l 1
 1144 1399 l 1
 1357 1282 1465 1038 1465 716 c 0
 1465 278 1260 -20 814 -20 c 0
 738 -20 669 -12 607 4 c 1
 511 -243 l 1
565 159 m 1
 1008 1317 l 1
 952 1337 888 1349 814 1349 c 0
 460 1349 316 1098 316 719 c 0
 316 455 385 250 565 159 c 1
812 107 m 0
 1178 107 1307 357 1307 719 c 0
 1307 972 1244 1169 1094 1271 c 1
 653 127 l 1
 700 113 753 107 812 107 c 0
EndSplineSet
EndChar

StartChar: P
Encoding: 80 80 87
Width: 1273
VWidth: 0
GlyphClass: 2
Flags: HW
PickledData: "(dp1
S'org.pippin.gimp.org.kernagic'
p2
(dp3
S'lstem'
p4
I0
sS'rstem'
p5
I807
ssS'com.typemytype.robofont.layerData'
p6
(dp7
sS'org.robofab.postScriptHintData'
p8
(dp9
s."
AnchorPoint: "top" 670 1456 basechar 0
LayerCount: 2
Fore
SplineSet
367 782 m 1
 453 775 529 772 595 772 c 0
 962 772 1030 876 1030 1076 c 0
 1030 1256 954 1348 623 1348 c 0
 551 1348 466 1344 367 1335 c 1
 367 782 l 1
209 1437 m 1
 364 1455 497 1463 610 1463 c 0
 1037 1463 1175 1337 1175 1077 c 0
 1175 826 1068 657 586 657 c 0
 520 657 448 660 367 667 c 1
 367 0 l 1
 209 0 l 1
 209 1437 l 1
EndSplineSet
EndChar

StartChar: Q
Encoding: 81 81 88
Width: 1601
VWidth: 0
GlyphClass: 2
Flags: HWO
PickledData: "(dp1
S'org.pippin.gimp.org.kernagic'
p2
(dp3
S'lstem'
p4
I0
sS'rstem'
p5
I0
ssS'com.typemytype.robofont.layerData'
p6
(dp7
sS'org.robofab.postScriptHintData'
p8
(dp9
s."
LayerCount: 2
Fore
SplineSet
157 720 m 0
 157 272 362 -20 814 -20 c 0
 840.819558111 -20 866.767649994 -18.922419354 891.852103686 -16.8016144394 c 1
 970.914211358 -132.321105989 1175.16940627 -414.83763842 1181 -424 c 1
 1281 -351 l 1
 1268.97536916 -338.975369157 1097.57850173 -100.102353179 1024.38900948 6.03790992469 c 1
 1324.9086947 87.5150551462 1465 353.921472104 1465 716 c 0
 1465 1176 1247 1476 815 1476 c 0
 373 1476 157 1180 157 720 c 0
1307 719 m 0
 1307 357 1178 107 812 107 c 0
 446 107 316 357 316 719 c 0
 316 1098 460 1349 814 1349 c 0
 1170 1349 1307 1095 1307 719 c 0
EndSplineSet
EndChar

StartChar: R
Encoding: 82 82 89
Width: 1342
VWidth: 0
GlyphClass: 2
Flags: HW
PickledData: "(dp1
S'org.pippin.gimp.org.kernagic'
p2
(dp3
S'lstem'
p4
I0
sS'rstem'
p5
I839
ssS'com.typemytype.robofont.layerData'
p6
(dp7
sS'com.fontlab.hintData'
p8
(dp9
S'vhints'
p10
((dp11
S'position'
p12
I1122
sS'width'
p13
I117
stp14
sS'hhints'
p15
((dp16
g12
I722
sg13
I96
s(dp17
g12
I1355
sg13
I94
stp18
ssS'org.robofab.postScriptHintData'
p19
(dp20
s."
HStem: 722 96 1355 94
VStem: 1122 117
AnchorPoint: "bot" 711 0 basechar 0
AnchorPoint: "top" 703 1456 basechar 0
LayerCount: 2
Fore
SplineSet
367 1335 m 1
 367 798 l 1
 669 798 l 2
 1003 798 1077 879 1077 1079 c 0
 1077 1256 1011 1349 653 1349 c 0
 573 1349 479 1344 367 1335 c 1
1222 1080 m 0
 1222 866 1115 750 917 703 c 1
 1261 19 l 1
 1261 0 l 1
 1096 0 l 1
 759 687 l 1
 367 686 l 1
 367 0 l 1
 209 0 l 1
 209 1437 l 1
 383 1454 529 1463 651 1463 c 0
 1088 1463 1222 1350 1222 1080 c 0
EndSplineSet
EndChar

StartChar: S
Encoding: 83 83 93
Width: 1215
VWidth: 0
GlyphClass: 2
Flags: HW
PickledData: "(dp1
S'org.pippin.gimp.org.kernagic'
p2
(dp3
S'lstem'
p4
I185
sS'rstem'
p5
I826
ssS'com.typemytype.robofont.guides'
p6
((dp7
S'y'
I973
sS'x'
I1035
sS'magnetic'
p8
I5
sS'angle'
p9
F90
sS'isGlobal'
p10
I00
s(dp11
S'y'
I382
sS'x'
I75
sg8
I5
sg9
F90
sg10
I00
stp12
sS'com.typemytype.robofont.layerData'
p13
(dp14
sS'org.robofab.postScriptHintData'
p15
(dp16
s."
AnchorPoint: "bot" 624 0 basechar 0
AnchorPoint: "top" 619 1472 basechar 0
LayerCount: 2
Fore
SplineSet
945 386 m 0
 945 532 877 574 657 664 c 2
 449 750 l 2
 246 833 129 893 129 1094 c 0
 129 1398 377 1476 622 1476 c 0
 804 1476 967 1411 1062 1307 c 1
 986 1215 l 1
 973 1215 l 1
 900 1291 776 1350 620 1350 c 0
 446 1350 286 1296 286 1114 c 0
 286 988 336 953 505 882 c 1
 718 796 l 2
 946 705 1092 637 1092 384 c 0
 1092 74 840 -20 598 -20 c 0
 359 -20 196 74 124 160 c 1
 206 247 l 1
 217 247 l 1
 315 154 447 108 598 108 c 0
 802 108 945 183 945 386 c 0
EndSplineSet
EndChar

StartChar: T
Encoding: 84 84 99
Width: 1133
VWidth: 0
GlyphClass: 2
Flags: HW
PickledData: "(dp1
S'org.pippin.gimp.org.kernagic'
p2
(dp3
S'lstem'
p4
I285
sS'rstem'
p5
I844
ssS'com.typemytype.robofont.layerData'
p6
(dp7
sS'org.robofab.postScriptHintData'
p8
(dp9
s."
AnchorPoint: "mid" 569 768 basechar 0
AnchorPoint: "bot" 570 0 basechar 0
AnchorPoint: "top" 569 1456 basechar 0
LayerCount: 2
Fore
SplineSet
13 1456 m 1
 1120 1456 l 1
 1120 1335 l 1
 644 1335 l 1
 644 0 l 1
 486 0 l 1
 486 1335 l 1
 13 1335 l 1
 13 1456 l 1
EndSplineSet
EndChar

StartChar: Thorn
Encoding: 222 222 104
Width: 1193
VWidth: 0
GlyphClass: 2
Flags: HW
PickledData: "(dp1
S'org.pippin.gimp.org.kernagic'
p2
(dp3
S'lstem'
p4
I0
sS'rstem'
p5
I0
ssS'com.typemytype.robofont.layerData'
p6
(dp7
S'b'
(dp8
S'name'
p9
S'Thorn'
p10
sS'lib'
p11
(dp12
sS'unicodes'
p13
(tsS'width'
p14
I1192
sS'contours'
p15
(tsS'components'
p16
(tsS'anchors'
p17
(tsssS'org.robofab.postScriptHintData'
p18
(dp19
s."
LayerCount: 2
Fore
SplineSet
356 1049 m 1
 356 574 l 1
 578 574 l 2
 794 574 874 630 874 829 c 0
 874 1005 762 1049 581 1049 c 2
 356 1049 l 1
198 0 m 1
 198 1488 l 1
 356 1488 l 1
 356 1166 l 1
 582 1166 l 2
 847 1166 1032 1083 1032 830 c 0
 1032 581 907 455 579 455 c 2
 356 455 l 1
 356 0 l 1
 198 0 l 1
EndSplineSet
EndChar

StartChar: U
Encoding: 85 85 105
Width: 1449
VWidth: 0
GlyphClass: 2
Flags: HW
PickledData: "(dp1
S'org.pippin.gimp.org.kernagic'
p2
(dp3
S'lstem'
p4
I0
sS'rstem'
p5
I0
ssS'com.typemytype.robofont.layerData'
p6
(dp7
sS'org.robofab.postScriptHintData'
p8
(dp9
s."
AnchorPoint: "bot" 720 1 basechar 0
AnchorPoint: "ogonek" 853 17 basechar 0
AnchorPoint: "top" 732 1456 basechar 0
LayerCount: 2
Fore
SplineSet
1113 1457 m 1
 1271 1457 l 1
 1271 540 l 2
 1271 220 1109 -20 722 -20 c 0
 331 -20 173 214 173 543 c 2
 173 1457 l 1
 331 1457 l 1
 331 544 l 2
 331 261 438 108 722 108 c 0
 996 108 1113 261 1113 544 c 2
 1113 1457 l 1
EndSplineSet
EndChar

StartChar: V
Encoding: 86 86 116
Width: 1425
VWidth: 0
GlyphClass: 2
Flags: HW
PickledData: "(dp1
S'org.pippin.gimp.org.kernagic'
p2
(dp3
S'lstem'
p4
I0
sS'rstem'
p5
I0
ssS'com.typemytype.robofont.layerData'
p6
(dp7
sS'org.robofab.postScriptHintData'
p8
(dp9
s."
LayerCount: 2
Fore
SplineSet
644 0 m 1
 82 1456 l 1
 242 1456 l 1
 398 1038 557 624 708 202 c 1
 861 622 1018 1038 1174 1456 c 1
 1343 1456 l 1
 771 0 l 1
 644 0 l 1
EndSplineSet
EndChar

StartChar: W
Encoding: 87 87 117
Width: 1996
VWidth: 0
GlyphClass: 2
Flags: HW
PickledData: "(dp1
S'org.pippin.gimp.org.kernagic'
p2
(dp3
S'lstem'
p4
I0
sS'rstem'
p5
I0
ssS'com.typemytype.robofont.layerData'
p6
(dp7
sS'org.robofab.postScriptHintData'
p8
(dp9
s."
AnchorPoint: "bot" 1005 0 basechar 0
AnchorPoint: "top" 1008 1456 basechar 0
LayerCount: 2
Fore
SplineSet
1008 1236 m 1
 636 0 l 1
 486 0 l 1
 77 1456 l 1
 216 1456 l 1
 567 209 l 1
 929 1421 l 1
 1084 1421 l 1
 1446 197 l 1
 1767 1456 l 1
 1919 1456 l 1
 1523 0 l 1
 1369 0 l 1
 1008 1236 l 1
EndSplineSet
EndChar

StartChar: X
Encoding: 88 88 122
Width: 1284
VWidth: 0
GlyphClass: 2
Flags: HW
PickledData: "(dp1
S'org.pippin.gimp.org.kernagic'
p2
(dp3
S'lstem'
p4
I0
sS'rstem'
p5
I0
ssS'com.typemytype.robofont.layerData'
p6
(dp7
sS'org.robofab.postScriptHintData'
p8
(dp9
s."
LayerCount: 2
Fore
SplineSet
724 728 m 1
 1207 0 l 1
 1033 0 l 1
 631 608 l 1
 226 0 l 1
 65 0 l 1
 548 734 l 1
 70 1456 l 1
 241 1456 l 1
 643 850 l 1
 1035 1456 l 1
 1202 1456 l 1
 724 728 l 1
EndSplineSet
EndChar

StartChar: Y
Encoding: 89 89 123
Width: 1332
VWidth: 0
GlyphClass: 2
Flags: HW
PickledData: "(dp1
S'org.pippin.gimp.org.kernagic'
p2
(dp3
S'lstem'
p4
I0
sS'rstem'
p5
I0
ssS'com.typemytype.robofont.layerData'
p6
(dp7
sS'org.robofab.postScriptHintData'
p8
(dp9
s."
AnchorPoint: "top" 667 1456 basechar 0
LayerCount: 2
Fore
SplineSet
751 531 m 1
 751 0 l 1
 594 0 l 1
 594 533 l 1
 80 1456 l 1
 224 1456 l 1
 672 665 l 1
 1098 1456 l 1
 1252 1456 l 1
 751 531 l 1
EndSplineSet
EndChar

StartChar: Z
Encoding: 90 90 128
Width: 1186
VWidth: 0
GlyphClass: 2
Flags: HW
PickledData: "(dp1
S'org.pippin.gimp.org.kernagic'
p2
(dp3
S'lstem'
p4
I0
sS'rstem'
p5
I0
ssS'com.typemytype.robofont.layerData'
p6
(dp7
sS'org.robofab.postScriptHintData'
p8
(dp9
s."
AnchorPoint: "bot" 652 0 basechar 0
AnchorPoint: "top" 667 1456 basechar 0
LayerCount: 2
Fore
SplineSet
102 0 m 1
 102 118 l 1
 937 1334 l 1
 138 1334 l 1
 138 1456 l 1
 1103 1456 l 1
 1111 1343 l 1
 276 123 l 1
 1118 123 l 1
 1109 0 l 1
 102 0 l 1
EndSplineSet
EndChar

StartChar: a
Encoding: 97 97 132
Width: 1116
VWidth: 0
GlyphClass: 2
Flags: HW
PickledData: "(dp1
S'org.pippin.gimp.org.kernagic'
p2
(dp3
S'lstem'
p4
I0
sS'rstem'
p5
I0
ssS'com.typemytype.robofont.guides'
p6
(tsS'com.typemytype.robofont.layerData'
p7
(dp8
sS'com.fontlab.hintData'
p9
(dp10
S'vhints'
p11
((dp12
S'position'
p13
I126
sS'width'
p14
I120
s(dp15
g13
I842
sg14
I32
s(dp16
g13
I875
sg14
I86
stp17
sS'hhints'
p18
((dp19
g13
I-15
sg14
I92
s(dp20
g13
I535
sg14
I82
s(dp21
g13
I983
sg14
I92
stp22
ssS'org.robofab.postScriptHintData'
p23
(dp24
s."
HStem: -15 92 535 82 983 92
VStem: 126 120 842 32 875 86
AnchorPoint: "bot" 498 1 basechar 0
AnchorPoint: "ogonek" 899 1 basechar 0
AnchorPoint: "top" 558 1083 basechar 0
LayerCount: 2
Fore
SplineSet
116 290 m 0
 116 483 239 598 561 598 c 2
 573 598 l 1
 806 595 l 1
 806 728 l 2
 806 908 721 990 552 990 c 0
 446 990 308 959 208 890 c 1
 160 1008 l 1
 258 1072 411 1105 550 1105 c 0
 790 1105 955 1003 955 716 c 2
 955 0 l 1
 829 0 l 1
 818 145 l 1
 724 28 608 -20 465 -20 c 0
 257 -20 116 84 116 290 c 0
483 94 m 0
 614 94 726 150 806 255 c 1
 806 493 l 1
 588 495 l 1
 583 495 l 2
 328 495 262 421 262 289 c 0
 262 144 359 94 483 94 c 0
EndSplineSet
EndChar

StartChar: acute
Encoding: 180 180 136
Width: 716
VWidth: 0
GlyphClass: 4
Flags: HW
PickledData: "(dp1
S'org.robofab.postScriptHintData'
p2
(dp3
sS'com.typemytype.robofont.layerData'
p4
(dp5
s."
AnchorPoint: "top" 317 1082 mark 0
LayerCount: 2
Fore
SplineSet
265 1209 m 1
 466 1578 l 1
 652 1578 l 1
 364 1209 l 1
 265 1209 l 1
EndSplineSet
EndChar

StartChar: ae
Encoding: 230 230 138
Width: 1681
VWidth: 0
GlyphClass: 2
Flags: HW
PickledData: "(dp1
S'org.pippin.gimp.org.kernagic'
p2
(dp3
S'lstem'
p4
I0
sS'rstem'
p5
I0
ssS'com.typemytype.robofont.layerData'
p6
(dp7
sS'com.fontlab.hintData'
p8
(dp9
S'vhints'
p10
((dp11
S'position'
p12
I126
sS'width'
p13
I119
s(dp14
g12
I817
sg13
I117
s(dp15
g12
I817
sg13
I82
s(dp16
g12
I1556
sg13
I98
stp17
sS'hhints'
p18
((dp19
g12
I-14
sg13
I98
s(dp20
g12
I518
sg13
I82
s(dp21
g12
I983
sg13
I92
stp22
ssS'org.robofab.postScriptHintData'
p23
(dp24
s."
HStem: -14 98 518 82 983 92
VStem: 126 119 817 117 817 82 1556 98
AnchorPoint: "top" 891 1082 basechar 0
LayerCount: 2
Fore
SplineSet
1597 788 m 0
 1597 541 1417 489 1139 489 c 0
 1066 489 987 493 902 497 c 1
 918 204 1061 96 1263 96 c 0
 1383 96 1459 130 1559 184 c 1
 1606 81 l 1
 1513 23 1392 -20 1243 -20 c 0
 1066 -20 921 58 845 207 c 1
 757 42 567 -19 397 -19 c 1
 211 -11 76 86 76 293 c 0
 76 485 179 622 507 622 c 0
 548 622 690 619 761 611 c 1
 761 725 l 2
 761 912 690 987 521 987 c 0
 418 987 285 961 165 882 c 1
 103 980 l 1
 220 1058 345 1102 506 1102 c 0
 690 1102 820 1043 857 876 c 1
 929 1037 1073 1102 1228 1102 c 0
 1464 1102 1597 964 1597 788 c 0
440 96 m 0
 607 96 746 184 767 344 c 1
 760 361 760 490 760 507 c 1
 693 515 563 519 526 519 c 0
 272 519 221 425 221 296 c 0
 221 144 338 96 440 96 c 0
1230 986 m 0
 1032 986 922 848 905 604 c 1
 978 599 1042 596 1097 596 c 0
 1414 596 1457 678 1457 777 c 0
 1457 888 1389 986 1230 986 c 0
EndSplineSet
EndChar

StartChar: ampersand
Encoding: 38 38 143
Width: 1436
VWidth: 0
GlyphClass: 2
Flags: HW
PickledData: "(dp1
S'org.pippin.gimp.org.kernagic'
p2
(dp3
S'lstem'
p4
I0
sS'rstem'
p5
I0
ssS'com.typemytype.robofont.layerData'
p6
(dp7
sS'com.fontlab.hintData'
p8
(dp9
S'vhints'
p10
((dp11
S'position'
p12
I135
sS'width'
p13
I121
s(dp14
g12
I312
sg13
I105
s(dp15
g12
I917
sg13
I110
stp16
sS'hhints'
p17
((dp18
g12
I-19
sg13
I96
s(dp19
g12
I1372
sg13
I96
stp20
ssS'org.robofab.postScriptHintData'
p21
(dp22
s."
HStem: -19 96 1372 96
VStem: 135 121 312 105 917 110
LayerCount: 2
Fore
SplineSet
602 100 m 0
 728 100 836 141 946 252 c 1
 496 707 l 1
 341 622 262 538 262 393 c 0
 262 209 380 100 602 100 c 0
117 382 m 0
 117 582 226 688 420 788 c 1
 286 932 241 1036 241 1160 c 0
 241 1348 395 1476 617 1476 c 0
 819 1476 962 1364 962 1165 c 0
 962 958 787 855 605 761 c 1
 1024 341 l 1
 1094 432 1167 554 1247 712 c 1
 1342 650 l 1
 1288 537 1215 386 1109 256 c 1
 1299 66 l 1
 1217 -21 l 1
 1029 169 l 1
 914 59 767 -20 578 -20 c 0
 288 -20 117 143 117 382 c 0
615 1365 m 0
 473 1365 369 1281 369 1161 c 0
 369 1062 405 986 529 843 c 1
 684 922 830 1006 830 1163 c 0
 830 1290 754 1365 615 1365 c 0
EndSplineSet
EndChar

StartChar: apostrophemod
Encoding: 700 700 145
Width: 643
VWidth: 0
GlyphClass: 2
Flags: HW
PickledData: "(dp1
S'org.robofab.postScriptHintData'
p2
(dp3
sS'com.typemytype.robofont.layerData'
p4
(dp5
s."
LayerCount: 2
Fore
SplineSet
133 1170 m 1
 133 1170 198 1567 201 1599 c 1
 362 1599 l 1
 351 1535 247 1170 247 1170 c 1
 133 1170 l 1
EndSplineSet
EndChar

StartChar: approxequal
Encoding: 8776 8776 146
Width: 1171
VWidth: 0
GlyphClass: 2
Flags: HW
PickledData: "(dp1
S'org.pippin.gimp.org.kernagic'
p2
(dp3
S'lstem'
p4
I0
sS'rstem'
p5
I0
ssS'com.typemytype.robofont.layerData'
p6
(dp7
S'b'
(dp8
S'name'
p9
S'approxequal'
p10
sS'lib'
p11
(dp12
sS'unicodes'
p13
(tsS'width'
p14
I1136
sS'contours'
p15
(tsS'components'
p16
(tsS'anchors'
p17
(tsssS'org.robofab.postScriptHintData'
p18
(dp19
s."
LayerCount: 2
Fore
SplineSet
840 910 m 0
 922 910 995 978 1026 1072 c 1
 1072 998 l 1
 1032 870 958 797 840 797 c 0
 767 797 687 828 595 871 c 0
 495 917 418 952 348 952 c 0
 261 952 183 884 142 787 c 1
 100 867 l 1
 142 986 226 1066 349 1066 c 0
 430 1066 497 1040 600 993 c 0
 697 950 778 910 840 910 c 0
840 572 m 0
 922 572 995 640 1026 734 c 1
 1072 660 l 1
 1032 532 958 459 840 459 c 0
 767 459 687 490 595 533 c 0
 495 579 418 614 348 614 c 0
 261 614 183 546 142 449 c 1
 100 529 l 1
 142 648 226 728 349 728 c 0
 430 728 497 702 600 655 c 0
 697 612 778 572 840 572 c 0
EndSplineSet
EndChar

StartChar: asciicircum
Encoding: 94 94 149
Width: 1269
VWidth: 0
GlyphClass: 2
Flags: HW
PickledData: "(dp1
S'org.pippin.gimp.org.kernagic'
p2
(dp3
S'lstem'
p4
I0
sS'rstem'
p5
I0
ssS'com.typemytype.robofont.layerData'
p6
(dp7
sS'org.robofab.postScriptHintData'
p8
(dp9
s."
LayerCount: 2
Fore
SplineSet
596 1456 m 1
 670 1456 l 1
 1165 312 l 1
 1023 312 l 1
 634 1234 l 1
 245 312 l 1
 105 312 l 1
 596 1456 l 1
EndSplineSet
EndChar

StartChar: asciitilde
Encoding: 126 126 150
Width: 1197
VWidth: 0
GlyphClass: 2
Flags: HW
PickledData: "(dp1
S'org.pippin.gimp.org.kernagic'
p2
(dp3
S'lstem'
p4
I0
sS'rstem'
p5
I0
ssS'com.typemytype.robofont.layerData'
p6
(dp7
S'b'
(dp8
S'name'
p9
S'asciitilde'
p10
sS'lib'
p11
(dp12
sS'unicodes'
p13
(tsS'width'
p14
I1192
sS'contours'
p15
(tsS'components'
p16
(tsS'anchors'
p17
(tsssS'org.robofab.postScriptHintData'
p18
(dp19
s."
LayerCount: 2
Fore
SplineSet
132 496 m 1
 98 585 l 1
 142 696 229 782 354 782 c 0
 433 782 486 760 589 714 c 0
 686 672 767 630 828 630 c 0
 912 630 994 708 1026 793 c 1
 1068 712 l 1
 1020 585 949 511 828 511 c 0
 762 511 690 539 610 576 c 0
 501 624 423 661 352 661 c 0
 263 661 179 586 132 496 c 1
EndSplineSet
EndChar

StartChar: asterisk
Encoding: 42 42 151
Width: 994
VWidth: 0
GlyphClass: 2
Flags: HW
PickledData: "(dp1
S'org.pippin.gimp.org.kernagic'
p2
(dp3
S'lstem'
p4
I0
sS'rstem'
p5
I0
ssS'com.typemytype.robofont.layerData'
p6
(dp7
sS'org.robofab.postScriptHintData'
p8
(dp9
s."
LayerCount: 2
Fore
SplineSet
309 600 m 1
 188 679 l 1
 424 999 l 1
 75 1079 l 1
 114 1217 l 1
 459 1073 l 1
 424 1465 l 1
 576 1465 l 1
 539 1073 l 1
 886 1217 l 1
 925 1079 l 1
 571 999 l 1
 609 947 706 815 814 679 c 1
 748 637 760 642 694 600 c 1
 494 951 l 1
 309 600 l 1
EndSplineSet
EndChar

StartChar: at
Encoding: 64 64 152
Width: 1975
VWidth: 0
GlyphClass: 2
Flags: HW
PickledData: "(dp1
S'org.pippin.gimp.org.kernagic'
p2
(dp3
S'lstem'
p4
I0
sS'rstem'
p5
I0
ssS'com.typemytype.robofont.layerData'
p6
(dp7
sS'org.robofab.postScriptHintData'
p8
(dp9
s."
LayerCount: 2
Fore
SplineSet
962 -213 m 0
 484 -213 160 95 160 603 c 0
 160 1110 526 1483 1030 1483 c 0
 1465 1483 1794 1199 1794 744 c 0
 1794 393 1597 214 1423 214 c 0
 1294 214 1213 293 1186 442 c 1
 1135 317 1039 205 895 205 c 0
 708 205 598 356 598 564 c 0
 598 824 751 1075 1038 1075 c 0
 1135 1075 1260 1046 1348 1005 c 1
 1314 780 1283 609 1283 482 c 0
 1283 393 1338 323 1423 323 c 0
 1554 323 1677 482 1677 751 c 0
 1677 1107 1448 1373 1024 1373 c 0
 587 1373 294 1041 294 601 c 0
 294 174 545 -100 965 -100 c 0
 1132 -100 1301 -66 1438 20 c 1
 1477 -74 l 1
 1347 -163 1156 -213 962 -213 c 0
912 312 m 0
 1066 312 1123 483 1156 687 c 1
 1201 956 l 1
 1153 967 1083 978 1052 978 c 0
 861 978 728 810 728 573 c 0
 728 411 785 312 912 312 c 0
EndSplineSet
EndChar

StartChar: b
Encoding: 98 98 154
Width: 1212
VWidth: 0
GlyphClass: 2
Flags: HW
PickledData: "(dp1
S'org.pippin.gimp.org.kernagic'
p2
(dp3
S'lstem'
p4
I0
sS'rstem'
p5
I0
ssS'com.typemytype.robofont.guides'
p6
(tsS'com.typemytype.robofont.layerData'
p7
(dp8
sS'com.fontlab.hintData'
p9
(dp10
S'vhints'
p11
((dp12
S'position'
p13
I193
sS'width'
p14
I125
s(dp15
g13
I193
sg14
I94
s(dp16
g13
I1018
sg14
I122
stp17
sS'hhints'
p18
((dp19
g13
I-19
sg14
I92
s(dp20
g13
I982
sg14
I92
stp21
ssS'org.robofab.postScriptHintData'
p22
(dp23
s."
HStem: -19 92 982 92
VStem: 193 125 193 94 1018 122
AnchorPoint: "top" 656 1082 basechar 0
LayerCount: 2
Fore
SplineSet
664 1105 m 0
 958 1105 1096 874 1096 540 c 0
 1096 205 928 -20 631 -20 c 0
 476 -20 366 44 300 128 c 1
 289 0 l 1
 172 0 l 1
 172 1540 l 1
 322 1560 l 1
 322 1098 l 1
 317 875 l 1
 394 1057 533 1105 664 1105 c 0
628 95 m 0
 850 95 942 275 942 540 c 0
 942 794 873 991 645 991 c 0
 421 991 315 817 316 564 c 1
 316 256 l 1
 381 153 488 95 628 95 c 0
EndSplineSet
EndChar

StartChar: backslash
Encoding: 92 92 155
Width: 946
VWidth: 0
GlyphClass: 2
Flags: HW
PickledData: "(dp1
S'org.pippin.gimp.org.kernagic'
p2
(dp3
S'lstem'
p4
I0
sS'rstem'
p5
I0
ssS'com.typemytype.robofont.layerData'
p6
(dp7
S'b'
(dp8
S'name'
p9
S'backslash'
p10
sS'lib'
p11
(dp12
sS'unicodes'
p13
(tsS'width'
p14
I937
sS'contours'
p15
(tsS'components'
p16
(tsS'anchors'
p17
(tsssS'org.robofab.postScriptHintData'
p18
(dp19
s."
LayerCount: 2
Fore
SplineSet
662 -30 m 1
 106 1472 l 1
 221 1472 l 1
 776 -30 l 1
 662 -30 l 1
EndSplineSet
EndChar

StartChar: bar
Encoding: 124 124 156
Width: 574
VWidth: 0
GlyphClass: 2
Flags: HW
PickledData: "(dp1
S'org.pippin.gimp.org.kernagic'
p2
(dp3
S'lstem'
p4
I0
sS'rstem'
p5
I0
ssS'com.typemytype.robofont.layerData'
p6
(dp7
S'b'
(dp8
S'name'
p9
S'bar'
p10
sS'lib'
p11
(dp12
sS'unicodes'
p13
(tsS'width'
p14
I681
sS'contours'
p15
(tsS'components'
p16
(tsS'anchors'
p17
(tsssS'org.robofab.postScriptHintData'
p18
(dp19
s."
LayerCount: 2
Fore
SplineSet
216 1494 m 1
 345 1494 l 1
 345 -292 l 1
 216 -292 l 1
 216 1494 l 1
EndSplineSet
EndChar

StartChar: braceleft
Encoding: 123 123 157
Width: 847
VWidth: 0
GlyphClass: 2
Flags: HW
PickledData: "(dp1
S'org.pippin.gimp.org.kernagic'
p2
(dp3
S'lstem'
p4
I0
sS'rstem'
p5
I0
ssS'com.typemytype.robofont.layerData'
p6
(dp7
sS'org.robofab.postScriptHintData'
p8
(dp9
s."
LayerCount: 2
Fore
SplineSet
704 -262 m 1
 417 -262 380 -200 380 78 c 2
 380 252 l 2
 380 471 379 547 178 548 c 1
 178 670 l 1
 377 671 380 747 380 966 c 2
 380 1142 l 2
 380 1420 418 1482 705 1482 c 1
 705 1374 l 1
 553 1373 536 1337 536 1131 c 2
 536 888 l 2
 536 710 495 634 343 609 c 1
 495 584 536 508 536 330 c 2
 536 89 l 2
 536 -117 552 -154 704 -154 c 1
 704 -262 l 1
EndSplineSet
EndChar

StartChar: braceright
Encoding: 125 125 158
Width: 847
VWidth: 0
GlyphClass: 2
Flags: HW
PickledData: "(dp1
S'org.pippin.gimp.org.kernagic'
p2
(dp3
S'lstem'
p4
I0
sS'rstem'
p5
I0
ssS'com.typemytype.robofont.layerData'
p6
(dp7
sS'org.robofab.postScriptHintData'
p8
(dp9
s."
LayerCount: 2
Fore
SplineSet
124 -262 m 1
 124 -154 l 1
 276 -154 291 -117 291 89 c 2
 291 330 l 2
 291 508 332 584 485 609 c 1
 332 634 291 710 291 888 c 2
 291 1131 l 2
 291 1337 274 1373 122 1374 c 1
 122 1482 l 1
 409 1482 447 1420 447 1142 c 2
 447 966 l 2
 447 747 450 671 649 670 c 1
 649 548 l 1
 448 547 447 471 447 252 c 2
 447 78 l 2
 447 -200 411 -262 124 -262 c 1
EndSplineSet
EndChar

StartChar: bracketleft
Encoding: 91 91 159
Width: 782
VWidth: 0
GlyphClass: 2
Flags: HW
PickledData: "(dp1
S'org.pippin.gimp.org.kernagic'
p2
(dp3
S'lstem'
p4
I0
sS'rstem'
p5
I0
ssS'com.typemytype.robofont.layerData'
p6
(dp7
sS'org.robofab.postScriptHintData'
p8
(dp9
s."
LayerCount: 2
Fore
SplineSet
209 -249 m 1
 209 1493 l 1
 665 1493 l 1
 665 1382 l 1
 366 1382 l 1
 366 -140 l 1
 665 -140 l 1
 665 -249 l 1
 209 -249 l 1
EndSplineSet
EndChar

StartChar: bracketright
Encoding: 93 93 160
Width: 896
VWidth: 0
GlyphClass: 2
Flags: HW
PickledData: "(dp1
S'org.pippin.gimp.org.kernagic'
p2
(dp3
S'lstem'
p4
I0
sS'rstem'
p5
I0
ssS'com.typemytype.robofont.layerData'
p6
(dp7
sS'org.robofab.postScriptHintData'
p8
(dp9
s."
LayerCount: 2
Fore
SplineSet
239 -249 m 1
 239 -140 l 1
 538 -140 l 1
 538 1382 l 1
 239 1382 l 1
 239 1493 l 1
 694 1493 l 1
 694 -249 l 1
 239 -249 l 1
EndSplineSet
EndChar

StartChar: breve
Encoding: 728 728 161
Width: 858
VWidth: 0
GlyphClass: 4
Flags: HW
PickledData: "(dp1
S'org.robofab.postScriptHintData'
p2
(dp3
sS'com.typemytype.robofont.layerData'
p4
(dp5
s."
AnchorPoint: "top" 422 1062 mark 0
LayerCount: 2
Fore
SplineSet
417 1279 m 0
 291 1279 188 1351 188 1515 c 1
 285 1515 l 1
 285 1416 355 1374 417 1374 c 0
 480 1374 555 1416 555 1515 c 1
 650 1515 l 1
 650 1352 545 1279 417 1279 c 0
EndSplineSet
EndChar

StartChar: breveinvertedcomb
Encoding: 785 785 162
Width: 777
VWidth: 0
GlyphClass: 4
Flags: HW
PickledData: "(dp1
S'org.robofab.postScriptHintData'
p2
(dp3
sS'com.typemytype.robofont.layerData'
p4
(dp5
s."
AnchorPoint: "top" 402 1062 mark 0
LayerCount: 2
Fore
SplineSet
167 1279 m 1
 167 1443 270 1515 397 1515 c 0
 524 1515 630 1442 630 1279 c 1
 535 1279 l 1
 535 1378 460 1421 397 1421 c 0
 334 1421 265 1378 265 1279 c 1
 167 1279 l 1
EndSplineSet
EndChar

StartChar: brokenbar
Encoding: 166 166 163
Width: 534
VWidth: 0
GlyphClass: 2
Flags: HW
PickledData: "(dp1
S'org.pippin.gimp.org.kernagic'
p2
(dp3
S'lstem'
p4
I0
sS'rstem'
p5
I0
ssS'com.typemytype.robofont.layerData'
p6
(dp7
S'b'
(dp8
S'name'
p9
S'brokenbar'
p10
sS'lib'
p11
(dp12
sS'unicodes'
p13
(tsS'width'
p14
I653
sS'contours'
p15
(tsS'components'
p16
(tsS'anchors'
p17
(tsssS'org.robofab.postScriptHintData'
p18
(dp19
s."
LayerCount: 2
Fore
SplineSet
212 551 m 1
 324 551 l 1
 324 -192 l 1
 212 -192 l 1
 212 551 l 1
212 1557 m 1
 324 1557 l 1
 324 817 l 1
 212 817 l 1
 212 1557 l 1
EndSplineSet
EndChar

StartChar: bullet
Encoding: 8226 8226 164
Width: 887
VWidth: 0
GlyphClass: 2
Flags: HW
PickledData: "(dp1
S'org.pippin.gimp.org.kernagic'
p2
(dp3
S'lstem'
p4
I0
sS'rstem'
p5
I0
ssS'com.typemytype.robofont.layerData'
p6
(dp7
S'b'
(dp8
S'name'
p9
S'bullet'
p10
sS'lib'
p11
(dp12
sS'unicodes'
p13
(tsS'width'
p14
I908
sS'contours'
p15
(tsS'components'
p16
(tsS'anchors'
p17
(tsssS'org.robofab.postScriptHintData'
p18
(dp19
s."
LayerCount: 2
Fore
SplineSet
432 423 m 0
 273 423 124 537 124 748 c 0
 124 961 277 1079 438 1079 c 0
 598 1079 747 964 747 752 c 0
 747 540 593 423 432 423 c 0
EndSplineSet
EndChar

StartChar: c
Encoding: 99 99 165
Width: 1075
VWidth: 0
GlyphClass: 2
Flags: HW
PickledData: "(dp1
S'org.pippin.gimp.org.kernagic'
p2
(dp3
S'lstem'
p4
I0
sS'rstem'
p5
I696
ssS'com.typemytype.robofont.guides'
p6
((dp7
S'y'
I417
sS'x'
I962
sS'magnetic'
p8
I5
sS'angle'
p9
F90
sS'isGlobal'
p10
I00
s(dp11
S'y'
I1020
sS'x'
I565
sg8
I5
sg9
F90
sg10
I00
s(dp12
S'y'
I994
sS'x'
I572
sg8
I5
sg9
F90
sg10
I00
stp13
sS'com.typemytype.robofont.layerData'
p14
(dp15
sS'com.fontlab.hintData'
p16
(dp17
S'vhints'
p18
((dp19
S'position'
p20
I128
sS'width'
p21
I120
stp22
sS'hhints'
p23
((dp24
g20
I-19
sg21
I92
s(dp25
g20
I982
sg21
I92
stp26
ssS'org.robofab.postScriptHintData'
p27
(dp28
s."
HStem: -19 92 982 92
VStem: 128 120
AnchorPoint: "bot" 601 1 basechar 0
AnchorPoint: "top" 617 1083 basechar 0
LayerCount: 2
Fore
SplineSet
878 263 m 1
 893 263 l 1
 985 214 l 1
 944 99 829 -20 599 -20 c 0
 304 -20 117 198 117 543 c 0
 117 888 304 1105 599 1105 c 0
 829 1105 943 986 985 872 c 1
 893 820 l 1
 879 820 l 1
 830 919 747 991 605 991 c 0
 384 991 271 821 271 543 c 0
 271 264 384 94 605 94 c 0
 747 94 829 164 878 263 c 1
EndSplineSet
EndChar

StartChar: caron
Encoding: 711 711 167
Width: 883
VWidth: 0
GlyphClass: 4
Flags: HW
PickledData: "(dp1
S'org.robofab.postScriptHintData'
p2
(dp3
sS'com.typemytype.robofont.layerData'
p4
(dp5
s."
AnchorPoint: "top" 437 1082 mark 0
LayerCount: 2
Fore
SplineSet
343 1227 m 1
 150 1562 l 1
 278 1562 l 1
 425 1328 l 1
 572 1562 l 1
 699 1562 l 1
 507 1227 l 1
 343 1227 l 1
EndSplineSet
EndChar

StartChar: caron.alt
Encoding: 65537 -1 168
Width: 766
VWidth: 0
GlyphClass: 4
Flags: HW
PickledData: "(dp1
S'org.robofab.postScriptHintData'
p2
(dp3
sS'com.typemytype.robofont.layerData'
p4
(dp5
s."
AnchorPoint: "caron.alt" 267 1082 mark 0
LayerCount: 2
Fore
SplineSet
494 1169 m 1
 536 1538 l 1
 692 1538 l 1
 609 1169 l 1
 494 1169 l 1
EndSplineSet
EndChar

StartChar: cedilla
Encoding: 184 184 173
Width: 666
VWidth: 0
GlyphClass: 4
Flags: HW
PickledData: "(dp1
S'org.robofab.postScriptHintData'
p2
(dp3
sS'com.typemytype.robofont.layerData'
p4
(dp5
s."
AnchorPoint: "bot" 372 8 mark 0
LayerCount: 2
Fore
SplineSet
484 -198 m 0
 484 -153 462 -101 370 -101 c 0
 352 -101 332 -103 309 -107 c 1
 309 -60 l 1
 343 -47 378 -41 410 -41 c 0
 503 -41 580 -94 580 -202 c 0
 580 -322 473 -398 329 -398 c 0
 274 -398 222 -387 174 -365 c 1
 202 -290 l 1
 242 -310 286 -319 327 -319 c 0
 410 -319 484 -279 484 -198 c 0
EndSplineSet
EndChar

StartChar: cent
Encoding: 162 162 174
Width: 1061
VWidth: 0
GlyphClass: 2
Flags: HW
PickledData: "(dp1
S'org.pippin.gimp.org.kernagic'
p2
(dp3
S'lstem'
p4
I0
sS'rstem'
p5
I0
ssS'com.typemytype.robofont.layerData'
p6
(dp7
sS'org.robofab.postScriptHintData'
p8
(dp9
s."
LayerCount: 2
Fore
SplineSet
548 1387 m 1
 652 1387 l 1
 652 1102.77828534 l 1
 846.780792336 1085.99025525 946.360308935 976.879161462 985 872 c 1
 893 820 l 1
 879 820 l 1
 830 919 747 991 605 991 c 0
 384 991 271 821 271 543 c 0
 271 264 384 94 605 94 c 0
 747 94 829 164 878 263 c 1
 893 263 l 1
 985 214 l 1
 947.785197825 109.617018288 849.603309943 1.93851843032 659.793822387 -17.0539576652 c 1
 646 -305 l 1
 539 -305 l 1
 539 -16.8625850395 l 1
 278.875398607 10.9608856518 117 222.012058807 117 543 c 0
 117 863.719383007 278.60464216 1073.82168475 538.347297806 1101.80652609 c 1
 548 1387 l 1
EndSplineSet
EndChar

StartChar: circumflex
Encoding: 710 710 175
Width: 874
VWidth: 0
GlyphClass: 4
Flags: HW
PickledData: "(dp1
S'org.robofab.postScriptHintData'
p2
(dp3
sS'com.typemytype.robofont.layerData'
p4
(dp5
s."
AnchorPoint: "top" 431 1082 mark 0
LayerCount: 2
Fore
SplineSet
149 1237 m 1
 342 1571 l 1
 506 1571 l 1
 699 1237 l 1
 571 1237 l 1
 424 1471 l 1
 277 1237 l 1
 149 1237 l 1
EndSplineSet
EndChar

StartChar: colon
Encoding: 58 58 176
Width: 615
VWidth: 0
GlyphClass: 2
Flags: HW
PickledData: "(dp1
S'org.pippin.gimp.org.kernagic'
p2
(dp3
S'lstem'
p4
I0
sS'rstem'
p5
I0
ssS'com.typemytype.robofont.layerData'
p6
(dp7
S'b'
(dp8
S'name'
p9
S'colon'
p10
sS'lib'
p11
(dp12
sS'unicodes'
p13
(tsS'width'
p14
I653
sS'contours'
p15
(tsS'components'
p16
(tsS'anchors'
p17
(tsssS'org.robofab.postScriptHintData'
p18
(dp19
s."
LayerCount: 2
Fore
SplineSet
301 850 m 0
 223 850 189 907 189 963 c 0
 189 1018 221 1077 301 1077 c 0
 380 1077 410 1018 410 963 c 0
 410 907 380 850 301 850 c 0
301 -12 m 0
 223 -12 189 45 189 101 c 0
 189 156 221 215 301 215 c 0
 380 215 410 156 410 101 c 0
 410 45 380 -12 301 -12 c 0
EndSplineSet
EndChar

StartChar: comma
Encoding: 44 44 177
Width: 589
VWidth: 0
GlyphClass: 2
Flags: HW
PickledData: "(dp1
S'org.pippin.gimp.org.kernagic'
p2
(dp3
S'lstem'
p4
I0
sS'rstem'
p5
I0
ssS'com.typemytype.robofont.layerData'
p6
(dp7
sS'org.robofab.postScriptHintData'
p8
(dp9
s."
LayerCount: 2
Fore
SplineSet
186 -299 m 1
 186 -299 220 202 220 227 c 1
 380 227 l 1
 380 155 l 2
 380 145 271 -299 271 -299 c 1
 186 -299 l 1
EndSplineSet
EndChar

StartChar: commaaccent
Encoding: 806 806 178
Width: 608
VWidth: 0
GlyphClass: 4
Flags: HW
PickledData: "(dp1
S'org.robofab.postScriptHintData'
p2
(dp3
s."
AnchorPoint: "bot" 324 0 mark 0
LayerCount: 2
Fore
SplineSet
211 -515 m 1
 211 -515 248 -228 248 -143 c 1
 395 -143 l 1
 397 -195 308 -515 308 -515 c 1
 211 -515 l 1
EndSplineSet
EndChar

StartChar: commaturnedabovecomb
Encoding: 786 786 179
Width: 600
VWidth: 0
GlyphClass: 4
Flags: HW
PickledData: "(dp1
S'org.robofab.postScriptHintData'
p2
(dp3
s."
AnchorPoint: "top" 298 1062 mark 0
LayerCount: 2
Fore
SplineSet
211 1308 m 1
 211 1350 308 1782 308 1782 c 1
 403 1782 l 1
 403 1782 379 1370 379 1285 c 1
 208 1285 l 1
 211 1308 l 1
EndSplineSet
EndChar

StartChar: copyright
Encoding: 169 169 180
Width: 1758
VWidth: 0
GlyphClass: 2
Flags: HW
PickledData: "(dp1
S'org.pippin.gimp.org.kernagic'
p2
(dp3
S'lstem'
p4
I0
sS'rstem'
p5
I0
ssS'com.typemytype.robofont.layerData'
p6
(dp7
sS'org.robofab.postScriptHintData'
p8
(dp9
s."
LayerCount: 2
Fore
SplineSet
824 232 m 0
 562 232 336 438 336 733 c 0
 336 1019 556 1231 815 1231 c 0
 915 1231 1014 1202 1105 1141 c 1
 1063 1057 l 1
 988 1113 892 1139 818 1139 c 0
 620 1139 454 973 454 738 c 0
 454 482 621 324 826 324 c 0
 908 324 987 342 1076 396 c 1
 1108 316 l 1
 1020 259 922 232 824 232 c 0
799 54 m 0
 1136 54 1473 283 1473 734 c 0
 1473 1187 1136 1414 799 1414 c 0
 464 1414 130 1187 130 734 c 0
 130 282 464 54 799 54 c 0
799 -26 m 0
 420 -26 36 227 36 734 c 0
 36 1243 420 1496 799 1496 c 0
 1181 1496 1575 1243 1575 734 c 0
 1575 227 1182 -26 799 -26 c 0
EndSplineSet
EndChar

StartChar: currency
Encoding: 164 164 181
Width: 1225
VWidth: 0
GlyphClass: 2
Flags: HW
PickledData: "(dp1
S'org.pippin.gimp.org.kernagic'
p2
(dp3
S'lstem'
p4
I0
sS'rstem'
p5
I0
ssS'com.typemytype.robofont.layerData'
p6
(dp7
S'b'
(dp8
S'name'
p9
S'currency'
p10
sS'lib'
p11
(dp12
sS'unicodes'
p13
(tsS'width'
p14
I1164
sS'contours'
p15
(tsS'components'
p16
(tsS'anchors'
p17
(tsssS'org.robofab.postScriptHintData'
p18
(dp19
s."
LayerCount: 2
Fore
SplineSet
868 1032 m 1
 1050 1206 l 1
 1106 1144 l 1
 925 968 l 1
 981 891 1008 806 1008 716 c 0
 1008 621 980 535 926 464 c 1
 1105 287 l 1
 1050 226 l 1
 868 400 l 1
 796 339 706 306 605 306 c 0
 504 306 415 339 343 401 c 1
 161 227 l 1
 104 288 l 1
 286 464 l 1
 230 538 203 623 203 716 c 0
 203 808 230 895 286 968 c 1
 103 1147 l 1
 161 1206 l 1
 341 1033 l 1
 415 1095 506 1128 605 1128 c 0
 705 1128 797 1093 868 1032 c 1
919 716 m 0
 919 892 801 1045 605 1045 c 0
 411 1045 292 893 292 716 c 0
 292 539 411 388 605 388 c 0
 802 388 919 540 919 716 c 0
EndSplineSet
EndChar

StartChar: d
Encoding: 100 100 182
Width: 1204
VWidth: 0
GlyphClass: 2
Flags: HW
PickledData: "(dp1
S'org.pippin.gimp.org.kernagic'
p2
(dp3
S'lstem'
p4
I0
sS'rstem'
p5
I0
ssS'com.typemytype.robofont.layerData'
p6
(dp7
sS'com.fontlab.hintData'
p8
(dp9
S'vhints'
p10
((dp11
S'position'
p12
I114
sS'width'
p13
I166
s(dp14
g12
I907
sg13
I161
s(dp15
g12
I930
sg13
I138
stp16
sS'hhints'
p17
((dp18
g12
I-19
sg13
I127
s(dp19
g12
I953
sg13
I127
stp20
ssS'org.robofab.postScriptHintData'
p21
(dp22
s."
HStem: -19 127 953 127
VStem: 114 166 907 161 930 138
AnchorPoint: "mid" 974 1300 basechar 0
AnchorPoint: "caron.alt" 1121 1186 basechar 0
AnchorPoint: "top" 552 1082 basechar 0
LayerCount: 2
Fore
SplineSet
588 1103 m 0
 591.333333333 1103 594.666666667 1103 598 1103 c 0
 732 1103 832 1053 896 978 c 1
 891 1159 l 1
 891 1540 l 1
 1046 1560 l 1
 1046 0 l 1
 919 0 l 1
 909 122 l 1
 829 26 700 -20 586 -20 c 0
 284 -20 117 206 117 546 c 0
 117 884 295 1103 588 1103 c 0
594 95 m 0
 723 95 832 141 896 233 c 1
 896 836 l 1
 836 938 724 991 596 991 c 0
 380 991 271 819 271 548 c 0
 271 268 378 95 594 95 c 0
EndSplineSet
EndChar

StartChar: dagger
Encoding: 8224 8224 183
Width: 1030
VWidth: 0
GlyphClass: 2
Flags: HW
PickledData: "(dp1
S'org.pippin.gimp.org.kernagic'
p2
(dp3
S'lstem'
p4
I0
sS'rstem'
p5
I0
ssS'com.typemytype.robofont.layerData'
p6
(dp7
S'b'
(dp8
S'name'
p9
S'dagger'
p10
sS'lib'
p11
(dp12
sS'unicodes'
p13
(tsS'width'
p14
I1050
sS'contours'
p15
(tsS'components'
p16
(tsS'anchors'
p17
(tsssS'org.robofab.postScriptHintData'
p18
(dp19
s."
LayerCount: 2
Fore
SplineSet
460 1486 m 1
 553 1486 l 1
 553 1098 l 1
 844 1098 l 1
 844 1010 l 1
 557 1010 l 1
 557 120 l 1
 460 120 l 1
 460 1010 l 1
 174 1010 l 1
 174 1098 l 1
 460 1098 l 1
 460 1486 l 1
EndSplineSet
EndChar

StartChar: daggerdbl
Encoding: 8225 8225 184
Width: 1029
VWidth: 0
GlyphClass: 2
Flags: HW
PickledData: "(dp1
S'org.pippin.gimp.org.kernagic'
p2
(dp3
S'lstem'
p4
I0
sS'rstem'
p5
I0
ssS'com.typemytype.robofont.layerData'
p6
(dp7
S'b'
(dp8
S'name'
p9
S'daggerdbl'
p10
sS'lib'
p11
(dp12
sS'unicodes'
p13
(tsS'width'
p14
I1022
sS'contours'
p15
(tsS'components'
p16
(tsS'anchors'
p17
(tsssS'org.robofab.postScriptHintData'
p18
(dp19
s."
LayerCount: 2
Fore
SplineSet
456 1471 m 1
 550 1471 l 1
 550 1082 l 1
 829 1082 l 1
 829 995 l 1
 554 995 l 1
 554 547 l 1
 828 547 l 1
 828 463 l 1
 554 463 l 1
 554 94 l 1
 456 94 l 1
 456 463 l 1
 177 463 l 1
 177 547 l 1
 456 547 l 1
 456 995 l 1
 177 995 l 1
 177 1082 l 1
 456 1082 l 1
 456 1471 l 1
EndSplineSet
EndChar

StartChar: dblgravecomb
Encoding: 783 783 185
Width: 834
VWidth: 0
GlyphClass: 4
Flags: HW
PickledData: "(dp1
S'org.robofab.postScriptHintData'
p2
(dp3
sS'com.typemytype.robofont.layerData'
p4
(dp5
s."
AnchorPoint: "top" 459 1062 mark 0
LayerCount: 2
Fore
SplineSet
276 1244 m 1
 65 1581 l 1
 220 1581 l 1
 370 1244 l 1
 276 1244 l 1
527 1244 m 1
 358 1581 l 1
 497 1581 l 1
 623 1244 l 1
 527 1244 l 1
EndSplineSet
EndChar

StartChar: degree
Encoding: 176 176 188
Width: 874
VWidth: 0
GlyphClass: 2
Flags: HW
PickledData: "(dp1
S'org.pippin.gimp.org.kernagic'
p2
(dp3
S'lstem'
p4
I0
sS'rstem'
p5
I0
ssS'com.typemytype.robofont.layerData'
p6
(dp7
sS'org.robofab.postScriptHintData'
p8
(dp9
s."
LayerCount: 2
Fore
SplineSet
429 986 m 0
 541 986 629 1070 629 1189 c 0
 629 1308 541 1391 430 1391 c 0
 321 1391 231 1308 231 1189 c 0
 231 1069 318 986 429 986 c 0
429 897 m 0
 277 897 131 1013 131 1190 c 0
 131 1364 277 1480 429 1480 c 0
 585 1480 729 1364 729 1190 c 0
 729 1020 588 897 429 897 c 0
EndSplineSet
EndChar

StartChar: dieresis
Encoding: 168 168 189
Width: 891
VWidth: 0
GlyphClass: 4
Flags: HW
PickledData: "(dp1
S'org.robofab.postScriptHintData'
p2
(dp3
sS'com.typemytype.robofont.layerData'
p4
(dp5
s."
AnchorPoint: "top" 444 1082 mark 0
LayerCount: 2
Fore
SplineSet
227 1308 m 0
 160 1308 134 1352 134 1403 c 0
 134 1454 158 1499 227 1499 c 0
 295 1499 320 1454 320 1403 c 0
 320 1352 295 1308 227 1308 c 0
640 1308 m 0
 573 1308 546 1352 546 1403 c 0
 546 1454 571 1499 640 1499 c 0
 707 1499 733 1454 733 1403 c 0
 733 1352 707 1308 640 1308 c 0
EndSplineSet
EndChar

StartChar: divide
Encoding: 247 247 190
Width: 1135
VWidth: 0
GlyphClass: 2
Flags: HW
PickledData: "(dp1
S'org.pippin.gimp.org.kernagic'
p2
(dp3
S'lstem'
p4
I0
sS'rstem'
p5
I0
ssS'com.typemytype.robofont.layerData'
p6
(dp7
sS'org.robofab.postScriptHintData'
p8
(dp9
s."
LayerCount: 2
Fore
SplineSet
95 638 m 1
 1033 638 l 1
 1033 509 l 1
 95 509 l 1
 95 638 l 1
475 228 m 1
 654 228 l 1
 654 34 l 1
 475 34 l 1
 475 228 l 1
475 1084 m 1
 656 1084 l 1
 656 893 l 1
 475 893 l 1
 475 1084 l 1
EndSplineSet
EndChar

StartChar: dollar
Encoding: 36 36 191
Width: 1215
VWidth: 0
GlyphClass: 2
Flags: HW
PickledData: "(dp1
S'org.pippin.gimp.org.kernagic'
p2
(dp3
S'lstem'
p4
I0
sS'rstem'
p5
I0
ssS'com.typemytype.robofont.layerData'
p6
(dp7
S'b'
(dp8
S'name'
p9
S'dollar'
p10
sS'lib'
p11
(dp12
sS'unicodes'
p13
(tsS'width'
p14
I1221
sS'contours'
p15
(tsS'components'
p16
(tsS'anchors'
p17
(tsssS'org.robofab.postScriptHintData'
p18
(dp19
s."
LayerCount: 2
Fore
SplineSet
573 1754 m 1
 684 1754 l 1
 684 1473.45750193 l 1
 840.6131158 1460.52418751 977.931861499 1399.03248846 1062 1307 c 1
 986 1215 l 1
 973 1215 l 1
 900 1291 776 1350 620 1350 c 0
 446 1350 286 1296 286 1114 c 0
 286 988 336 953 505 882 c 2
 718 796 l 2
 946 705 1092 637 1092 384 c 0
 1092 106.333689008 889.826823876 1.95867183619 673.752491071 -16.79370179 c 1
 661 -305 l 1
 555 -305 l 1
 555 -18.9682803083 l 1
 339.400147423 -8.53060759094 191.596003863 79.2603287187 124 160 c 1
 206 247 l 1
 217 247 l 1
 315 154 447 108 598 108 c 0
 802 108 945 183 945 386 c 0
 945 532 877 574 657 664 c 2
 449 750 l 2
 246 833 129 893 129 1094 c 0
 129 1372.70041599 337.439367906 1461.45205316 560.913939157 1474.2940205 c 1
 573 1754 l 1
EndSplineSet
EndChar

StartChar: dotaccent
Encoding: 729 729 192
Width: 405
VWidth: 0
GlyphClass: 4
Flags: HW
PickledData: "(dp1
S'org.robofab.postScriptHintData'
p2
(dp3
sS'com.typemytype.robofont.layerData'
p4
(dp5
s."
AnchorPoint: "top" 200 1082 mark 0
LayerCount: 2
Fore
SplineSet
315 1423 m 0
 315 1353 275 1311 201 1311 c 0
 127 1311 87 1353 87 1423 c 0
 87 1492 127 1533 201 1533 c 0
 275 1533 315 1492 315 1423 c 0
EndSplineSet
EndChar

StartChar: dotlessi
Encoding: 305 305 193
Width: 507
VWidth: 0
GlyphClass: 2
Flags: HW
PickledData: "(dp1
S'org.pippin.gimp.org.kernagic'
p2
(dp3
S'lstem'
p4
I0
sS'rstem'
p5
I0
ssS'com.typemytype.robofont.layerData'
p6
(dp7
sS'org.robofab.postScriptHintData'
p8
(dp9
s."
AnchorPoint: "ogonek" 268 0 basechar 0
AnchorPoint: "top" 268 1082 basechar 0
LayerCount: 2
Fore
SplineSet
188 1082 m 1
 338 1082 l 1
 338 0 l 1
 188 0 l 1
 188 1082 l 1
EndSplineSet
EndChar

StartChar: dotlessj
Encoding: 567 567 194
Width: 565
VWidth: 0
GlyphClass: 2
Flags: HW
PickledData: "(dp1
S'org.pippin.gimp.org.kernagic'
p2
(dp3
S'lstem'
p4
I0
sS'rstem'
p5
I0
ssS'com.typemytype.robofont.layerData'
p6
(dp7
sS'com.fontlab.hintData'
p8
(dp9
S'vhints'
p10
((dp11
S'position'
p12
I111
sS'width'
p13
I142
stp14
sS'hhints'
p15
((dp16
g12
I-479
sg13
I112
stp17
ssS'org.robofab.postScriptHintData'
p18
(dp19
s."
HStem: -479 112
VStem: 111 142
LayerCount: 2
Fore
SplineSet
241 1082 m 1
 390 1082 l 1
 390 -12 l 2
 390 -264 307 -337 104 -358 c 2
 45 -364 l 1
 31 -242 l 1
 88 -232 l 1
 238 -208 241 -165 241 28 c 2
 241 1082 l 1
EndSplineSet
EndChar

StartChar: e
Encoding: 101 101 195
Width: 1127
VWidth: 0
GlyphClass: 2
Flags: HW
PickledData: "(dp1
S'org.pippin.gimp.org.kernagic'
p2
(dp3
S'lstem'
p4
I0
sS'rstem'
p5
I747
ssS'com.typemytype.robofont.layerData'
p6
(dp7
sS'com.fontlab.hintData'
p8
(dp9
S'hhints'
p10
((dp11
S'position'
p12
I-19
sS'width'
p13
I94
s(dp14
g12
I982
sg13
I92
stp15
ssS'org.robofab.postScriptHintData'
p16
(dp17
s."
HStem: -19 94 982 92
AnchorPoint: "bot" 616 1 basechar 0
AnchorPoint: "ogonek" 864 43 basechar 0
AnchorPoint: "top" 609 1082 basechar 0
LayerCount: 2
Fore
SplineSet
1009 522 m 1
 269 522 l 1
 283 222 439 95 642 95 c 0
 764 95 846 133 938 185 c 1
 950 185 l 1
 987 82 l 1
 895 23 773 -20 623 -20 c 0
 337 -20 117 193 117 538 c 0
 117 900 342 1105 607 1105 c 0
 861 1105 1017 923 1017 623 c 0
 1017 596 1009 526 1009 522 c 1
273 623 m 1
 890 623 l 1
 886 857 800 990 612 990 c 0
 422 990 293 845 273 623 c 1
EndSplineSet
EndChar

StartChar: eight
Encoding: 56 56 203
Width: 1238
VWidth: 0
GlyphClass: 2
Flags: HW
PickledData: "(dp1
S'org.pippin.gimp.org.kernagic'
p2
(dp3
S'lstem'
p4
I0
sS'rstem'
p5
I0
ssS'com.typemytype.robofont.layerData'
p6
(dp7
sS'org.robofab.postScriptHintData'
p8
(dp9
s."
LayerCount: 2
Fore
SplineSet
619 -20 m 0
 363 -20 151 103 151 360 c 0
 151 568 266 693 466 761 c 1
 306 811 183 934 183 1117 c 0
 183 1346 363 1476 620 1476 c 0
 876 1476 1053 1346 1053 1117 c 0
 1053 933 940 821 773 763 c 1
 964 704 1085 552 1085 361 c 0
 1085 103 876 -20 619 -20 c 0
619 100 m 0
 841 100 944 188 944 376 c 0
 944 551 806 659 619 700 c 1
 432 659 290 558 290 375 c 0
 290 195 403 100 619 100 c 0
619 813 m 1
 812 855 906 959 906 1122 c 0
 906 1271 793 1360 619 1360 c 0
 445 1360 329 1271 329 1122 c 0
 329 959 427 855 619 813 c 1
EndSplineSet
EndChar

StartChar: emdash
Encoding: 8212 8212 206
Width: 2162
VWidth: 0
GlyphClass: 2
Flags: HW
PickledData: "(dp1
S'org.robofab.postScriptHintData'
p2
(dp3
sS'com.typemytype.robofont.layerData'
p4
(dp5
s."
LayerCount: 2
Fore
SplineSet
60 533 m 1
 60 655 l 1
 2102 655 l 1
 2102 533 l 1
 60 533 l 1
EndSplineSet
EndChar

StartChar: endash
Encoding: 8211 8211 207
Width: 1332
VWidth: 0
GlyphClass: 2
Flags: HW
PickledData: "(dp1
S'org.pippin.gimp.org.kernagic'
p2
(dp3
S'lstem'
p4
I0
sS'rstem'
p5
I0
ssS'com.typemytype.robofont.layerData'
p6
(dp7
sS'org.robofab.postScriptHintData'
p8
(dp9
s."
LayerCount: 2
Fore
SplineSet
87 541 m 1
 87 656 l 1
 1246 656 l 1
 1246 541 l 1
 87 541 l 1
EndSplineSet
EndChar

StartChar: eng
Encoding: 331 331 208
Width: 1187
VWidth: 0
GlyphClass: 2
Flags: HW
PickledData: "(dp1
S'org.robofab.postScriptHintData'
p2
(dp3
sS'com.typemytype.robofont.layerData'
p4
(dp5
s."
LayerCount: 2
Fore
SplineSet
172 0 m 1
 172 1082 l 1
 296 1082 l 1
 313 876 l 1
 379 1037 505 1105 682 1105 c 0
 925 1105 1034 949 1034 652 c 2
 1034 -12 l 2
 1034 -323 911 -420 475 -420 c 1
 472 -301 l 1
 846 -301 883 -230 884 -8 c 1
 884 678 l 2
 884 862 834 991 658 991 c 0
 411 991 322 815 322 623 c 2
 322 0 l 1
 172 0 l 1
EndSplineSet
EndChar

StartChar: equal
Encoding: 61 61 210
Width: 1052
VWidth: 0
GlyphClass: 2
Flags: HW
PickledData: "(dp1
S'org.pippin.gimp.org.kernagic'
p2
(dp3
S'lstem'
p4
I0
sS'rstem'
p5
I0
ssS'com.typemytype.robofont.layerData'
p6
(dp7
S'b'
(dp8
S'name'
p9
S'equal'
p10
sS'lib'
p11
(dp12
sS'unicodes'
p13
(tsS'width'
p14
I1050
sS'contours'
p15
(tsS'components'
p16
(tsS'anchors'
p17
(tsssS'org.robofab.postScriptHintData'
p18
(dp19
s."
LayerCount: 2
Fore
SplineSet
131 939 m 1
 928 939 l 1
 928 807 l 1
 131 807 l 1
 131 939 l 1
131 556 m 1
 928 556 l 1
 928 424 l 1
 131 424 l 1
 131 556 l 1
EndSplineSet
EndChar

StartChar: estimated
Encoding: 8494 8494 211
Width: 1098
VWidth: 0
GlyphClass: 2
Flags: HW
PickledData: "(dp1
S'org.robofab.postScriptHintData'
p2
(dp3
sS'com.typemytype.robofont.layerData'
p4
(dp5
S'b'
(dp6
S'name'
p7
S'estimated'
p8
sS'lib'
p9
(dp10
sS'unicodes'
p11
(tsS'width'
p12
I1223
sS'contours'
p13
(tsS'components'
p14
(tsS'anchors'
p15
(tsss."
LayerCount: 2
Fore
SplineSet
104 513 m 0
 104 817 322 1046 629 1046 c 0
 933 1046 1073 825 1073 494 c 1
 311 494 l 1
 312 232 428 50 646 50 c 0
 817 50 923 127 1016 226 c 1
 1066 178 l 1
 971 66 843 -20 646 -20 c 0
 282 -20 104 209 104 513 c 0
967 570 m 1
 967 793 833 989 635 989 c 0
 470 989 327 819 313 570 c 1
 967 570 l 1
EndSplineSet
EndChar

StartChar: eth
Encoding: 240 240 212
Width: 1250
VWidth: 0
GlyphClass: 2
Flags: HW
PickledData: "(dp1
S'org.pippin.gimp.org.kernagic'
p2
(dp3
S'lstem'
p4
I0
sS'rstem'
p5
I0
ssS'com.typemytype.robofont.layerData'
p6
(dp7
sS'org.robofab.postScriptHintData'
p8
(dp9
s."
LayerCount: 2
Fore
SplineSet
247 1595 m 1
 415 1595 l 1
 577 1434 l 1
 871 1547 l 1
 916 1451 l 1
 655 1352 l 1
 859 1133 958 1000 1023 872 c 0
 1072 772 1105 629 1105 493 c 0
 1105 206 948 -22 612 -22 c 0
 285 -22 120 224 120 489 c 0
 120 781 322 977 601 977 c 0
 765 977 838 899 896 850 c 1
 843 958 741 1102 537 1302 c 1
 279 1201 l 1
 234 1300 l 1
 466 1390 l 1
 247 1595 l 1
970 499 m 0
 970 683 843 863 612 863 c 0
 394 863 267 700 267 487 c 0
 267 290 379 94 618 94 c 0
 851 94 970 254 970 499 c 0
EndSplineSet
EndChar

StartChar: exclam
Encoding: 33 33 213
Width: 671
VWidth: 0
GlyphClass: 2
Flags: HW
PickledData: "(dp1
S'org.pippin.gimp.org.kernagic'
p2
(dp3
S'lstem'
p4
I0
sS'rstem'
p5
I0
ssS'com.typemytype.robofont.layerData'
p6
(dp7
sS'org.robofab.postScriptHintData'
p8
(dp9
s."
LayerCount: 2
Fore
SplineSet
297 424 m 1
 240 1353 l 1
 240 1462 l 1
 406 1462 l 1
 406 1353 l 1
 355 424 l 1
 297 424 l 1
328 -14 m 0
 249 -14 219 44 219 98 c 0
 219 151 249 209 328 209 c 0
 407 209 438 151 438 98 c 0
 438 42 407 -14 328 -14 c 0
EndSplineSet
EndChar

StartChar: f
Encoding: 102 102 215
Width: 748
VWidth: 0
GlyphClass: 2
Flags: HW
PickledData: "(dp1
S'org.pippin.gimp.org.kernagic'
p2
(dp3
S'lstem'
p4
I182
sS'rstem'
p5
I417
ssS'com.typemytype.robofont.layerData'
p6
(dp7
sS'com.fontlab.hintData'
p8
(dp9
S'vhints'
p10
((dp11
S'position'
p12
I269
sS'width'
p13
I166
stp14
sS'hhints'
p15
((dp16
g12
I952
sg13
I89
s(dp17
g12
I1358
sg13
I122
stp18
ssS'org.robofab.postScriptHintData'
p19
(dp20
s."
HStem: 952 89 1358 122
VStem: 269 166
AnchorPoint: "top" 394 1456 basechar 0
LayerCount: 2
Fore
SplineSet
713 1500 m 1
 702 1397 l 1
 702 1397 636 1404 598 1404 c 0
 460 1404 420 1365 420 1164 c 2
 420 1082 l 1
 691 1082 l 1
 691 990 l 1
 420 990 l 1
 420 0 l 1
 271 0 l 1
 271 990 l 1
 71 990 l 1
 76 1066 l 1
 271 1079 l 1
 271 1164 l 2
 271 1452 374 1516 566 1516 c 0
 640 1516 713 1500 713 1500 c 1
EndSplineSet
EndChar

StartChar: five
Encoding: 53 53 216
Width: 1238
VWidth: 0
GlyphClass: 2
Flags: HW
PickledData: "(dp1
S'org.pippin.gimp.org.kernagic'
p2
(dp3
S'lstem'
p4
I0
sS'rstem'
p5
I0
ssS'com.typemytype.robofont.layerData'
p6
(dp7
sS'org.robofab.postScriptHintData'
p8
(dp9
s."
LayerCount: 2
Fore
SplineSet
654 810 m 0
 547 810 444 765 380 687 c 1
 252 705 l 1
 297 1456 l 1
 1027 1456 l 1
 1011 1334 l 1
 440 1334 l 1
 394 824 l 1
 470 889 555 928 672 928 c 0
 965 928 1114 703 1114 470 c 0
 1114 209 934 -20 605 -20 c 0
 405 -20 251 80 177 174 c 1
 262 262 l 1
 276 262 l 1
 366 160 465 110 605 110 c 0
 829 110 953 274 953 466 c 0
 953 640 856 810 654 810 c 0
EndSplineSet
EndChar

StartChar: florin
Encoding: 402 402 218
Width: 994
VWidth: 0
GlyphClass: 2
Flags: HW
PickledData: "(dp1
S'org.robofab.postScriptHintData'
p2
(dp3
s."
LayerCount: 2
Fore
SplineSet
545 1225 m 2
 579 1397 662 1518 837 1518 c 0
 952 1518 1052 1469 1052 1285 c 1
 933 1285 l 1
 933 1390 902 1439 843 1439 c 0
 745 1439 716 1347 694 1234 c 2
 655 1028 l 1
 875 1028 l 1
 860 950 l 1
 638 950 l 1
 444 128 l 1
 387 -118 258 -245 94 -245 c 0
 63 -245 32 -241 -1 -232 c 1
 15 -155 l 1
 49 -162 79 -165 105 -165 c 0
 277 -165 263 -20 298 129 c 2
 493 950 l 1
 329 950 l 1
 344 1028 l 1
 506 1028 l 1
 545 1225 l 2
EndSplineSet
EndChar

StartChar: foundryicon
Encoding: 65540 -1 219
Width: 1347
VWidth: 0
GlyphClass: 2
Flags: HW
PickledData: "(dp1
S'org.robofab.postScriptHintData'
p2
(dp3
s."
LayerCount: 2
Fore
SplineSet
485 405 m 1
 591 405 l 1
 591 552 l 1
 761 405 l 1
 867 405 l 1
 867 672 l 1
 761 672 l 1
 761 523 l 1
 591 672 l 1
 485 672 l 1
 485 405 l 1
280 2 m 1
 423 461 l 1
 34 755 l 1
 519 755 l 1
 669 1215 l 1
 828 755 l 1
 1313 755 l 1
 922 461 l 1
 1066 2 l 1
 669 278 l 1
 280 2 l 1
EndSplineSet
EndChar

StartChar: four
Encoding: 52 52 220
Width: 1238
VWidth: 0
GlyphClass: 2
Flags: HW
PickledData: "(dp1
S'org.pippin.gimp.org.kernagic'
p2
(dp3
S'lstem'
p4
I0
sS'rstem'
p5
I0
ssS'com.typemytype.robofont.layerData'
p6
(dp7
sS'org.robofab.postScriptHintData'
p8
(dp9
s."
LayerCount: 2
Fore
SplineSet
794 0 m 1
 794 383 l 1
 176 383 l 1
 136 515 l 1
 790 1456 l 1
 940 1456 l 1
 941 506 l 1
 1113 506 l 1
 1101 383 l 1
 941 383 l 1
 941 0 l 1
 794 0 l 1
292 506 m 1
 794 506 l 1
 794 1259 l 1
 292 506 l 1
EndSplineSet
EndChar

StartChar: fraction
Encoding: 8260 8260 221
Width: 1066
VWidth: 0
GlyphClass: 2
Flags: HW
PickledData: "(dp1
S'org.robofab.postScriptHintData'
p2
(dp3
s."
LayerCount: 2
Fore
SplineSet
149 0 m 1
 782 1480 l 1
 915 1480 l 1
 281 0 l 1
 149 0 l 1
EndSplineSet
EndChar

StartChar: g
Encoding: 103 103 222
Width: 1213
VWidth: 0
GlyphClass: 2
Flags: HW
PickledData: "(dp1
S'org.pippin.gimp.org.kernagic'
p2
(dp3
S'lstem'
p4
I0
sS'rstem'
p5
I0
ssS'com.typemytype.robofont.layerData'
p6
(dp7
sS'com.fontlab.hintData'
p8
(dp9
S'vhints'
p10
((dp11
S'position'
p12
I128
sS'width'
p13
I122
s(dp14
g12
I977
sg13
I125
s(dp15
g12
I977
sg13
I36
stp16
sS'hhints'
p17
((dp18
g12
I-426
sg13
I101
s(dp19
g12
I0
sg13
I93
s(dp20
g12
I982
sg13
I92
stp21
ssS'org.robofab.postScriptHintData'
p22
(dp23
s."
HStem: -426 101 0 93 982 92
VStem: 128 122 977 125 977 36
AnchorPoint: "top" 607 1082 basechar 0
LayerCount: 2
Fore
SplineSet
590 -16 m 0
 273 -16 117 228 117 542 c 0
 117 862 280 1105 595 1105 c 0
 743 1105 848 1042 912 957 c 1
 920 1082 l 1
 1046 1082 l 1
 1046 62 l 2
 1046 -292 927 -476 560 -476 c 0
 437 -476 317 -450 244 -422 c 1
 256 -302 l 1
 275 -302 l 1
 350 -334 465 -356 560 -356 c 0
 791 -356 903 -264 903 22 c 2
 903 113 l 1
 823 21 703 -16 590 -16 c 0
596 99 m 0
 747 99 849 168 902 247 c 1
 902 825 l 1
 840 920 745 991 595 991 c 0
 368 991 270 795 270 543 c 0
 270 288 367 99 596 99 c 0
EndSplineSet
EndChar

StartChar: germandbls
Encoding: 223 223 228
Width: 1259
VWidth: 0
GlyphClass: 2
Flags: HW
PickledData: "(dp1
S'org.pippin.gimp.org.kernagic'
p2
(dp3
S'lstem'
p4
I0
sS'rstem'
p5
I0
ssS'com.typemytype.robofont.layerData'
p6
(dp7
S'b'
(dp8
S'name'
p9
S'germandbls'
p10
sS'lib'
p11
(dp12
sS'unicodes'
p13
(tsS'width'
p14
I1278
sS'contours'
p15
(tsS'components'
p16
(tsS'anchors'
p17
(tsssS'org.robofab.postScriptHintData'
p18
(dp19
s."
LayerCount: 2
Fore
SplineSet
836 -20 m 0
 705 -20 566 20 494 59 c 1
 536 175 l 1
 594 144 706 103 822 103 c 0
 956 103 1007 195 1007 285 c 0
 1007 503 621 597 621 795 c 0
 621 962 827 1024 827 1236 c 0
 827 1348 760 1428 618 1428 c 0
 427 1428 326 1335 326 1081 c 2
 326 1 l 1
 176 1 l 1
 176 1075 l 2
 176 1369 316 1547 614 1547 c 0
 838 1547 973 1417 973 1235 c 0
 973 1025 758 904 758 808 c 0
 758 687 1152 585 1152 290 c 0
 1152 102 1033 -20 836 -20 c 0
EndSplineSet
EndChar

StartChar: grave
Encoding: 96 96 229
Width: 890
VWidth: 0
GlyphClass: 4
Flags: HW
PickledData: "(dp1
S'org.robofab.postScriptHintData'
p2
(dp3
sS'com.typemytype.robofont.layerData'
p4
(dp5
s."
AnchorPoint: "top" 452 1062 mark 0
LayerCount: 2
Fore
SplineSet
400 1209 m 1
 100 1578 l 1
 298 1578 l 1
 499 1209 l 1
 400 1209 l 1
EndSplineSet
EndChar

StartChar: greater
Encoding: 62 62 230
Width: 1134
VWidth: 0
GlyphClass: 2
Flags: HW
PickledData: "(dp1
S'org.pippin.gimp.org.kernagic'
p2
(dp3
S'lstem'
p4
I0
sS'rstem'
p5
I0
ssS'com.typemytype.robofont.layerData'
p6
(dp7
S'b'
(dp8
S'name'
p9
S'greater'
p10
sS'lib'
p11
(dp12
sS'unicodes'
p13
(tsS'width'
p14
I1107
sS'contours'
p15
(tsS'components'
p16
(tsS'anchors'
p17
(tsssS'org.robofab.postScriptHintData'
p18
(dp19
s."
LayerCount: 2
Fore
SplineSet
106 1029 m 1
 106 1161 l 1
 1036 665 l 1
 1036 581 l 1
 104 135 l 1
 104 268 l 1
 863 629 l 1
 106 1029 l 1
EndSplineSet
EndChar

StartChar: greaterequal
Encoding: 8805 8805 231
Width: 1203
VWidth: 0
GlyphClass: 2
Flags: HW
PickledData: "(dp1
S'org.pippin.gimp.org.kernagic'
p2
(dp3
S'lstem'
p4
I0
sS'rstem'
p5
I0
ssS'com.typemytype.robofont.layerData'
p6
(dp7
S'b'
(dp8
S'name'
p9
S'greaterequal'
p10
sS'lib'
p11
(dp12
sS'unicodes'
p13
(tsS'width'
p14
I1192
sS'contours'
p15
(tsS'components'
p16
(tsS'anchors'
p17
(tsssS'org.robofab.postScriptHintData'
p18
(dp19
s."
LayerCount: 2
Fore
SplineSet
161 238 m 1
 161 364 l 1
 900 758 l 1
 166 1179 l 1
 166 1308 l 1
 1046 795 l 1
 1046 721 l 1
 161 238 l 1
128 9 m 1
 128 127 l 1
 1067 128 l 1
 1067 9 l 1
 128 9 l 1
EndSplineSet
EndChar

StartChar: guillemotleft
Encoding: 171 171 232
Width: 998
VWidth: 0
GlyphClass: 2
Flags: HW
PickledData: "(dp1
S'org.pippin.gimp.org.kernagic'
p2
(dp3
S'lstem'
p4
I0
sS'rstem'
p5
I0
ssS'com.typemytype.robofont.layerData'
p6
(dp7
S'b'
(dp8
S'name'
p9
S'guillemotleft'
p10
sS'lib'
p11
(dp12
sS'unicodes'
p13
(tsS'width'
p14
I994
sS'contours'
p15
(tsS'components'
p16
(tsS'anchors'
p17
(tsssS'org.robofab.postScriptHintData'
p18
(dp19
s."
LayerCount: 2
Fore
SplineSet
379 151 m 1
 98 547 l 1
 383 945 l 1
 523 942 l 1
 243 550 l 1
 515 154 l 1
 379 151 l 1
723 151 m 1
 442 547 l 1
 726 945 l 1
 866 942 l 1
 586 550 l 1
 859 154 l 1
 723 151 l 1
EndSplineSet
EndChar

StartChar: guillemotright
Encoding: 187 187 233
Width: 988
VWidth: 0
GlyphClass: 2
Flags: HW
PickledData: "(dp1
S'org.pippin.gimp.org.kernagic'
p2
(dp3
S'lstem'
p4
I0
sS'rstem'
p5
I0
ssS'com.typemytype.robofont.layerData'
p6
(dp7
sS'org.robofab.postScriptHintData'
p8
(dp9
s."
LayerCount: 2
Fore
SplineSet
246 151 m 1
 109 154 l 1
 384 548 l 1
 105 942 l 1
 245 945 l 1
 528 547 l 1
 246 151 l 1
591 151 m 1
 454 154 l 1
 728 548 l 1
 449 942 l 1
 589 945 l 1
 873 547 l 1
 591 151 l 1
EndSplineSet
EndChar

StartChar: guilsinglleft
Encoding: 8249 8249 234
Width: 613
VWidth: 0
GlyphClass: 2
Flags: HW
PickledData: "(dp1
S'org.robofab.postScriptHintData'
p2
(dp3
s."
LayerCount: 2
Fore
SplineSet
386 146 m 1
 95 553 l 1
 390 964 l 1
 534 964 l 1
 243 555 l 1
 527 146 l 1
 386 146 l 1
EndSplineSet
EndChar

StartChar: guilsinglright
Encoding: 8250 8250 235
Width: 748
VWidth: 0
GlyphClass: 2
Flags: HW
PickledData: "(dp1
S'org.pippin.gimp.org.kernagic'
p2
(dp3
S'lstem'
p4
I0
sS'rstem'
p5
I0
ssS'com.typemytype.robofont.layerData'
p6
(dp7
S'b'
(dp8
S'name'
p9
S'guilsinglright'
p10
sS'lib'
p11
(dp12
sS'unicodes'
p13
(tsS'width'
p14
I766
sS'contours'
p15
(tsS'components'
p16
(tsS'anchors'
p17
(tsssS'org.robofab.postScriptHintData'
p18
(dp19
s."
LayerCount: 2
Fore
SplineSet
157 146 m 1
 444 571 l 1
 153 1002 l 1
 296 1002 l 1
 598 572 l 1
 299 146 l 1
 157 146 l 1
EndSplineSet
EndChar

StartChar: h
Encoding: 104 104 236
Width: 1199
VWidth: 0
GlyphClass: 2
Flags: HW
PickledData: "(dp1
S'org.pippin.gimp.org.kernagic'
p2
(dp3
S'lstem'
p4
I0
sS'rstem'
p5
I0
ssS'com.typemytype.robofont.layerData'
p6
(dp7
sS'com.fontlab.hintData'
p8
(dp9
S'vhints'
p10
((dp11
S'position'
p12
I193
sS'width'
p13
I122
s(dp14
g12
I910
sg13
I122
stp15
sS'hhints'
p16
((dp17
g12
I982
sg13
I92
stp18
ssS'org.robofab.postScriptHintData'
p19
(dp20
s."
HStem: 982 92
VStem: 193 122 910 122
AnchorPoint: "mid" 258 1278 basechar 0
AnchorPoint: "top" 657 1363 basechar 0
LayerCount: 2
Fore
SplineSet
174 0 m 1
 174 1540 l 1
 323 1560 l 1
 323 1141 l 1
 318 886 l 1
 395 1052 532 1105 684 1105 c 0
 917 1105 1042 945 1042 671 c 2
 1042 0 l 1
 891 0 l 1
 891 667 l 2
 891 881 829 991 661 991 c 0
 399 991 323 789 323 606 c 2
 323 0 l 1
 174 0 l 1
EndSplineSet
EndChar

StartChar: hungarumlaut
Encoding: 733 733 239
Width: 769
VWidth: 0
GlyphClass: 4
Flags: HW
PickledData: "(dp1
S'org.robofab.postScriptHintData'
p2
(dp3
sS'com.typemytype.robofont.layerData'
p4
(dp5
s."
AnchorPoint: "top" 332 1062 mark 0
LayerCount: 2
Fore
SplineSet
166 1244 m 1
 291 1581 l 1
 430 1581 l 1
 261 1244 l 1
 166 1244 l 1
418 1244 m 1
 568 1581 l 1
 723 1581 l 1
 512 1244 l 1
 418 1244 l 1
EndSplineSet
EndChar

StartChar: hyphen
Encoding: 45 45 240
Width: 843
VWidth: 0
GlyphClass: 4
Flags: HW
PickledData: "(dp1
S'org.pippin.gimp.org.kernagic'
p2
(dp3
S'lstem'
p4
I0
sS'rstem'
p5
I0
ssS'com.typemytype.robofont.layerData'
p6
(dp7
sS'org.robofab.postScriptHintData'
p8
(dp9
s."
AnchorPoint: "mid" 395 605 mark 0
LayerCount: 2
Fore
SplineSet
168 535 m 1
 168 655 l 1
 661 655 l 1
 661 535 l 1
 168 535 l 1
EndSplineSet
EndChar

StartChar: infinity
Encoding: 8734 8734 252
Width: 1665
VWidth: 0
GlyphClass: 2
Flags: HW
PickledData: "(dp1
S'org.pippin.gimp.org.kernagic'
p2
(dp3
S'lstem'
p4
I0
sS'rstem'
p5
I0
ssS'com.typemytype.robofont.layerData'
p6
(dp7
S'b'
(dp8
S'name'
p9
S'infinity'
p10
sS'lib'
p11
(dp12
sS'unicodes'
p13
(tsS'width'
p14
I1647
sS'contours'
p15
(tsS'components'
p16
(tsS'anchors'
p17
(tsssS'org.robofab.postScriptHintData'
p18
(dp19
s."
LayerCount: 2
Fore
SplineSet
831 727 m 1
 951 896 1073 1004 1236 1004 c 0
 1454 1004 1580 849 1580 632 c 0
 1580 407 1431 251 1234 251 c 0
 1090 251 970 339 832 526 c 1
 707 358 583 251 425 251 c 0
 207 251 76 431 76 650 c 0
 76 850 226 1004 421 1004 c 0
 581 1004 703 900 831 727 c 1
769 625 m 1
 670 785 561 890 420 890 c 0
 273 890 180 773 180 629 c 0
 180 492 279 367 427 367 c 0
 558 367 669 476 769 625 c 1
1467 655 m 0
 1467 785 1370 890 1232 890 c 0
 1097 890 989 776 894 632 c 1
 1021 455 1115 367 1236 367 c 0
 1389 367 1467 491 1467 655 c 0
EndSplineSet
EndChar

StartChar: integral
Encoding: 8747 8747 253
Width: 939
VWidth: 0
GlyphClass: 2
Flags: HW
PickledData: "(dp1
S'org.pippin.gimp.org.kernagic'
p2
(dp3
S'lstem'
p4
I0
sS'rstem'
p5
I0
ssS'com.typemytype.robofont.layerData'
p6
(dp7
S'b'
(dp8
S'name'
p9
S'integral'
p10
sS'lib'
p11
(dp12
sS'unicodes'
p13
(tsS'width'
p14
I994
sS'contours'
p15
(tsS'components'
p16
(tsS'anchors'
p17
(tsssS'org.robofab.postScriptHintData'
p18
(dp19
s."
LayerCount: 2
Fore
SplineSet
494 1150 m 2
 494 1389 554 1508 721 1508 c 0
 755 1508 794 1503 838 1493 c 1
 838 1403 l 1
 802 1414 772 1419 745 1419 c 0
 628 1419 604 1326 604 1154 c 2
 604 -34 l 2
 604 -279 532 -411 351 -411 c 0
 318 -411 281 -407 240 -398 c 1
 240 -308 l 1
 276 -318 309 -322 336 -322 c 0
 473 -322 494 -210 494 -42 c 2
 494 1150 l 2
EndSplineSet
EndChar

StartChar: k
Encoding: 107 107 258
Width: 1079
VWidth: 0
GlyphClass: 2
Flags: HW
PickledData: "(dp1
S'org.pippin.gimp.org.kernagic'
p2
(dp3
S'lstem'
p4
I0
sS'rstem'
p5
I671
ssS'com.typemytype.robofont.layerData'
p6
(dp7
sS'org.robofab.postScriptHintData'
p8
(dp9
s."
AnchorPoint: "bot" 588 0 basechar 0
LayerCount: 2
Fore
SplineSet
174 0 m 1
 174 1540 l 1
 324 1560 l 1
 324 743 l 1
 318 527 l 1
 854 1082 l 1
 1024 1082 l 1
 1024 1062 l 1
 557 585 l 1
 1052 20 l 1
 1052 0 l 1
 888 0 l 1
 455 510 l 1
 324 397 l 1
 324 0 l 1
 174 0 l 1
EndSplineSet
EndChar

StartChar: kgreenlandic
Encoding: 312 312 260
Width: 1074
VWidth: 0
GlyphClass: 2
Flags: HW
PickledData: "(dp1
S'org.robofab.postScriptHintData'
p2
(dp3
s."
LayerCount: 2
Fore
SplineSet
162 0 m 1
 162 1082 l 1
 312 1082 l 1
 312 745 l 1
 306 528 l 1
 842 1082 l 1
 1011 1082 l 1
 1011 1060 l 1
 546 587 l 1
 1039 22 l 1
 1039 0 l 1
 877 0 l 1
 443 512 l 1
 312 398 l 1
 312 0 l 1
 162 0 l 1
EndSplineSet
EndChar

StartChar: l
Encoding: 108 108 261
Width: 615
VWidth: 0
GlyphClass: 2
Flags: HW
PickledData: "(dp1
S'org.pippin.gimp.org.kernagic'
p2
(dp3
S'lstem'
p4
I0
sS'rstem'
p5
I238
ssS'com.typemytype.robofont.layerData'
p6
(dp7
sS'com.fontlab.hintData'
p8
(dp9
S'vhints'
p10
((dp11
S'position'
p12
I193
sS'width'
p13
I122
stp14
sS'hhints'
p15
((dp16
g12
I-11
sg13
I87
stp17
ssS'org.robofab.postScriptHintData'
p18
(dp19
s."
HStem: -11 87
VStem: 193 122
AnchorPoint: "mid" 279 804 basechar 0
AnchorPoint: "top" 345 1489 basechar 0
LayerCount: 2
Fore
SplineSet
448 -8 m 0
 284 -8 176 37 176 292 c 2
 176 1540 l 1
 326 1560 l 1
 326 296 l 2
 326 136 349 112 475 105 c 0
 486 105 539 103 541 103 c 1
 530 -7 l 1
 525 -8 461 -8 448 -8 c 0
EndSplineSet
EndChar

StartChar: less
Encoding: 60 60 266
Width: 1131
VWidth: 0
GlyphClass: 2
Flags: HW
PickledData: "(dp1
S'org.pippin.gimp.org.kernagic'
p2
(dp3
S'lstem'
p4
I0
sS'rstem'
p5
I0
ssS'com.typemytype.robofont.layerData'
p6
(dp7
S'b'
(dp8
S'name'
p9
S'less'
p10
sS'lib'
p11
(dp12
sS'unicodes'
p13
(tsS'width'
p14
I1107
sS'contours'
p15
(tsS'components'
p16
(tsS'anchors'
p17
(tsssS'org.robofab.postScriptHintData'
p18
(dp19
s."
LayerCount: 2
Fore
SplineSet
1018 129 m 1
 87 583 l 1
 87 666 l 1
 1019 1154 l 1
 1019 1022 l 1
 252 629 l 1
 1019 261 l 1
 1018 129 l 1
EndSplineSet
EndChar

StartChar: lessequal
Encoding: 8804 8804 267
Width: 1204
VWidth: 0
GlyphClass: 2
Flags: HW
PickledData: "(dp1
S'org.robofab.postScriptHintData'
p2
(dp3
sS'com.typemytype.robofont.layerData'
p4
(dp5
s."
LayerCount: 2
Fore
SplineSet
1035 235 m 1
 153 719 l 1
 153 793 l 1
 1032 1307 l 1
 1032 1178 l 1
 317 756 l 1
 1035 360 l 1
 1035 235 l 1
127 6 m 1
 127 124 l 1
 1068 123 l 1
 1068 6 l 1
 127 6 l 1
EndSplineSet
EndChar

StartChar: logicalnot
Encoding: 172 172 268
Width: 1243
VWidth: 0
GlyphClass: 2
Flags: HW
PickledData: "(dp1
S'org.pippin.gimp.org.kernagic'
p2
(dp3
S'lstem'
p4
I0
sS'rstem'
p5
I0
ssS'com.typemytype.robofont.layerData'
p6
(dp7
sS'org.robofab.postScriptHintData'
p8
(dp9
s."
LayerCount: 2
Fore
SplineSet
106 799 m 1
 1061 799 l 1
 1061 255 l 1
 951 255 l 1
 951 682 l 1
 106 682 l 1
 106 799 l 1
EndSplineSet
EndChar

StartChar: lozenge
Encoding: 9674 9674 269
Width: 1169
VWidth: 0
GlyphClass: 2
Flags: HW
PickledData: "(dp1
S'org.pippin.gimp.org.kernagic'
p2
(dp3
S'lstem'
p4
I0
sS'rstem'
p5
I0
ssS'com.typemytype.robofont.layerData'
p6
(dp7
S'b'
(dp8
S'name'
p9
S'lozenge'
p10
sS'lib'
p11
(dp12
sS'unicodes'
p13
(tsS'width'
p14
I1164
sS'contours'
p15
(tsS'components'
p16
(tsS'anchors'
p17
(tsssS'org.robofab.postScriptHintData'
p18
(dp19
s."
LayerCount: 2
Fore
SplineSet
537 1589 m 1
 634 1589 l 1
 1045 772 l 1
 626 -46 l 1
 530 -46 l 1
 118 770 l 1
 537 1589 l 1
910 770 m 1
 588 1424 l 1
 254 772 l 1
 580 112 l 1
 910 770 l 1
EndSplineSet
EndChar

StartChar: m
Encoding: 109 109 271
Width: 1815
VWidth: 0
GlyphClass: 2
Flags: HW
PickledData: "(dp1
S'org.pippin.gimp.org.kernagic'
p2
(dp3
S'lstem'
p4
I0
sS'rstem'
p5
I0
ssS'com.typemytype.robofont.layerData'
p6
(dp7
sS'com.fontlab.hintData'
p8
(dp9
S'vhints'
p10
((dp11
S'position'
p12
I193
sS'width'
p13
I122
s(dp14
g12
I193
sg13
I98
s(dp15
g12
I845
sg13
I122
s(dp16
g12
I1483
sg13
I122
stp17
sS'hhints'
p18
((dp19
g12
I982
sg13
I92
stp20
ssS'org.robofab.postScriptHintData'
p21
(dp22
s."
HStem: 982 92
VStem: 193 122 193 98 845 122 1483 122
AnchorPoint: "top" 945 1082 basechar 0
LayerCount: 2
Fore
SplineSet
990 607 m 2
 990 0 l 1
 840 0 l 1
 840 630 l 2
 840 873 786 991 627 991 c 0
 438 991 343 832 322 646 c 1
 322 0 l 1
 172 0 l 1
 172 1082 l 1
 296 1082 l 1
 313 872 l 1
 383 1037 507 1105 648 1105 c 0
 817 1105 921 1003 959 847 c 1
 1029 1029 1165 1105 1320 1105 c 0
 1543 1105 1658 965 1658 691 c 2
 1658 0 l 1
 1508 0 l 1
 1508 659 l 2
 1508 822 1480 991 1299 991 c 0
 1136 991 990 843 990 607 c 2
EndSplineSet
EndChar

StartChar: macron
Encoding: 175 175 272
Width: 1171
VWidth: 0
GlyphClass: 4
Flags: HW
PickledData: "(dp1
S'org.robofab.postScriptHintData'
p2
(dp3
sS'com.typemytype.robofont.layerData'
p4
(dp5
s."
AnchorPoint: "mid" 567 1385 mark 0
AnchorPoint: "top" 585 1062 mark 0
LayerCount: 2
Fore
SplineSet
293 1343 m 1
 293 1430 l 1
 843 1430 l 1
 843 1343 l 1
 293 1343 l 1
EndSplineSet
EndChar

StartChar: minus
Encoding: 8722 8722 273
Width: 1148
VWidth: 0
GlyphClass: 2
Flags: HW
PickledData: "(dp1
S'org.pippin.gimp.org.kernagic'
p2
(dp3
S'lstem'
p4
I0
sS'rstem'
p5
I0
ssS'com.typemytype.robofont.layerData'
p6
(dp7
sS'org.robofab.postScriptHintData'
p8
(dp9
s."
LayerCount: 2
Fore
SplineSet
97 669 m 1
 1049 669 l 1
 1049 540 l 1
 97 540 l 1
 97 669 l 1
EndSplineSet
EndChar

StartChar: multiply
Encoding: 215 215 274
Width: 923
VWidth: 0
GlyphClass: 2
Flags: HW
PickledData: "(dp1
S'org.pippin.gimp.org.kernagic'
p2
(dp3
S'lstem'
p4
I0
sS'rstem'
p5
I0
ssS'com.typemytype.robofont.layerData'
p6
(dp7
sS'org.robofab.postScriptHintData'
p8
(dp9
s."
LayerCount: 2
Fore
SplineSet
98 954 m 1
 180 1040 l 1
 458 735 l 1
 734 1035 l 1
 820 950 l 1
 538 649 l 1
 553 634 823 337 823 337 c 1
 746 252 l 1
 458 563 l 1
 168 252 l 1
 87 334 l 1
 378 649 l 1
 98 954 l 1
EndSplineSet
EndChar

StartChar: n
Encoding: 110 110 275
Width: 1191
VWidth: 0
GlyphClass: 2
Flags: HW
PickledData: "(dp1
S'org.pippin.gimp.org.kernagic'
p2
(dp3
S'lstem'
p4
I0
sS'rstem'
p5
I0
ssS'com.typemytype.robofont.layerData'
p6
(dp7
sS'com.fontlab.hintData'
p8
(dp9
S'vhints'
p10
((dp11
S'position'
p12
I193
sS'width'
p13
I122
s(dp14
g12
I903
sg13
I122
stp15
sS'hhints'
p16
((dp17
g12
I0
sg13
I22
s(dp18
g12
I982
sg13
I92
s(dp19
g12
I1034
sg13
I21
stp20
ssS'org.robofab.postScriptHintData'
p21
(dp22
s."
HStem: 0 22 982 92 1034 21
VStem: 193 122 903 122
AnchorPoint: "bot" 598 0 basechar 0
AnchorPoint: "top" 685 1082 basechar 0
LayerCount: 2
Fore
SplineSet
172 0 m 1
 172 1082 l 1
 296 1082 l 1
 313 876 l 1
 379 1037 505 1105 682 1105 c 0
 925 1105 1034 949 1034 652 c 2
 1034 0 l 1
 884 0 l 1
 884 678 l 2
 884 862 834 991 658 991 c 0
 411 991 322 815 322 623 c 2
 322 0 l 1
 172 0 l 1
EndSplineSet
EndChar

StartChar: nine
Encoding: 57 57 280
Width: 1238
VWidth: 0
GlyphClass: 2
Flags: HW
PickledData: "(dp1
S'org.pippin.gimp.org.kernagic'
p2
(dp3
S'lstem'
p4
I0
sS'rstem'
p5
I0
ssS'com.typemytype.robofont.layerData'
p6
(dp7
sS'org.robofab.postScriptHintData'
p8
(dp9
s."
LayerCount: 2
Fore
SplineSet
356 0 m 1
 356 18 l 1
 522 229 693 436 855 652 c 1
 781 601 689 575 602 575 c 0
 369 575 178 755 178 1020 c 0
 178 1273 365 1476 651 1476 c 0
 953 1476 1116 1250 1116 1013 c 0
 1116 792 1020 644 874 456 c 2
 519 0 l 1
 356 0 l 1
975 1024 m 0
 975 1198 862 1356 652 1356 c 0
 443 1356 324 1198 324 1021 c 0
 324 839 432 696 637 696 c 0
 766 696 975 767 975 1024 c 0
EndSplineSet
EndChar

StartChar: notequal
Encoding: 8800 8800 281
Width: 1096
VWidth: 0
GlyphClass: 2
Flags: HW
PickledData: "(dp1
S'org.pippin.gimp.org.kernagic'
p2
(dp3
S'lstem'
p4
I0
sS'rstem'
p5
I0
ssS'com.typemytype.robofont.layerData'
p6
(dp7
S'b'
(dp8
S'name'
p9
S'notequal'
p10
sS'lib'
p11
(dp12
sS'unicodes'
p13
(tsS'width'
p14
I1079
sS'contours'
p15
(tsS'components'
p16
(tsS'anchors'
p17
(tsssS'org.robofab.postScriptHintData'
p18
(dp19
s."
LayerCount: 2
Fore
SplineSet
301 49 m 1
 212 63 l 1
 338 358 l 1
 83 358 l 1
 78 466 l 1
 392 466 l 1
 559 796 l 1
 83 796 l 1
 77 905 l 1
 606 905 l 1
 752 1204 l 1
 842 1194 l 1
 716 905 l 1
 988 905 l 1
 996 797 l 1
 670 797 l 1
 498 466 l 1
 991 466 l 1
 996 358 l 1
 451 358 l 1
 301 49 l 1
EndSplineSet
EndChar

StartChar: numbersign
Encoding: 35 35 283
Width: 1166
VWidth: 0
GlyphClass: 2
Flags: HW
PickledData: "(dp1
S'org.pippin.gimp.org.kernagic'
p2
(dp3
S'lstem'
p4
I0
sS'rstem'
p5
I0
ssS'com.typemytype.robofont.layerData'
p6
(dp7
sS'org.robofab.postScriptHintData'
p8
(dp9
s."
LayerCount: 2
Fore
SplineSet
185 -16 m 1
 277 441 l 1
 89 441 l 1
 101 529 l 1
 294 529 l 1
 387 986 l 1
 196 986 l 1
 208 1072 l 1
 405 1072 l 1
 505 1538 l 1
 602 1538 l 1
 503 1072 l 1
 805 1072 l 1
 905 1538 l 1
 998 1538 l 1
 899 1072 l 1
 1102 1072 l 1
 1088 986 l 1
 882 986 l 1
 789 529 l 1
 1008 529 l 1
 993 441 l 1
 770 441 l 1
 678 -16 l 1
 584 -16 l 1
 675 441 l 1
 374 441 l 1
 281 -16 l 1
 185 -16 l 1
391 529 m 1
 694 529 l 1
 787 986 l 1
 485 986 l 1
 391 529 l 1
EndSplineSet
EndChar

StartChar: o
Encoding: 111 111 284
Width: 1200
VWidth: 0
GlyphClass: 2
Flags: HW
PickledData: "(dp1
S'org.pippin.gimp.org.kernagic'
p2
(dp3
S'lstem'
p4
I0
sS'rstem'
p5
I0
ssS'com.typemytype.robofont.guides'
p6
((dp7
S'y'
I1093
sS'x'
I582
sS'magnetic'
p8
I5
sS'angle'
p9
F90
sS'isGlobal'
p10
I00
stp11
sS'com.typemytype.robofont.layerData'
p12
(dp13
sS'com.fontlab.hintData'
p14
(dp15
S'vhints'
p16
((dp17
S'position'
p18
I128
sS'width'
p19
I120
s(dp20
g18
I982
sg19
I120
stp21
sS'hhints'
p22
((dp23
g18
I-19
sg19
I92
s(dp24
g18
I982
sg19
I92
stp25
ssS'org.robofab.postScriptHintData'
p26
(dp27
s."
HStem: -19 92 982 92
VStem: 128 120 982 120
AnchorPoint: "ogonek" 704 1 basechar 0
AnchorPoint: "top" 601 1082 basechar 0
LayerCount: 2
Fore
SplineSet
600 94 m 0
 823 94 929 286 929 540 c 0
 929 803 823 991 600 991 c 0
 377 991 271 803 271 541 c 0
 271 286 376 94 600 94 c 0
600 -20 m 0
 293 -20 117 208 117 542 c 0
 117 885 290 1105 600 1105 c 0
 910 1105 1083 885 1083 542 c 0
 1083 208 907 -20 600 -20 c 0
EndSplineSet
EndChar

StartChar: oe
Encoding: 339 339 289
Width: 1931
VWidth: 0
GlyphClass: 2
Flags: HW
PickledData: "(dp1
S'org.pippin.gimp.org.kernagic'
p2
(dp3
S'lstem'
p4
I0
sS'rstem'
p5
I0
ssS'com.typemytype.robofont.layerData'
p6
(dp7
S'b'
(dp8
S'name'
p9
S'oe'
p10
sS'lib'
p11
(dp12
sS'unicodes'
p13
(tsS'width'
p14
F1915.3599999999999
sS'contours'
p15
(tsS'components'
p16
(tsS'anchors'
p17
(tsssS'org.robofab.postScriptHintData'
p18
(dp19
s."
LayerCount: 2
Fore
SplineSet
1821 518 m 1
 1081 518 l 1
 1081 214 1252 96 1451 96 c 0
 1576 96 1652 132 1750 186 c 1
 1762 186 l 1
 1799 84 l 1
 1706 25 1590 -20 1434 -20 c 0
 1251 -20 1070 90 1008 266 c 1
 956 95 789 -20 598 -20 c 0
 287 -20 115 208 115 538 c 0
 115 875 285 1099 598 1099 c 0
 796 1099 955 992 1010 820 c 1
 1077 996 1250 1099 1418 1099 c 0
 1672 1099 1828 916 1828 619 c 0
 1828 592 1821 521 1821 518 c 1
598 95 m 0
 830 95 927 290 927 536 c 0
 927 791 828 984 598 984 c 0
 369 984 269 791 269 537 c 0
 269 289 368 95 598 95 c 0
1084 619 m 1
 1701 619 l 1
 1697 849 1612 984 1425 984 c 0
 1234 984 1105 839 1084 619 c 1
EndSplineSet
EndChar

StartChar: ogonek
Encoding: 731 731 290
Width: 736
VWidth: 0
GlyphClass: 4
Flags: HW
PickledData: "(dp1
S'org.pippin.gimp.org.kernagic'
p2
(dp3
S'lstem'
p4
I0
sS'rstem'
p5
I0
ssS'com.typemytype.robofont.layerData'
p6
(dp7
sS'org.robofab.postScriptHintData'
p8
(dp9
s."
AnchorPoint: "ogonek" 469 0 mark 0
LayerCount: 2
Fore
SplineSet
415 -413 m 0
 300 -413 233 -359 233 -268 c 0
 233 -160 328 -45 436 3 c 1
 512 3 l 1
 447 -43 360 -151 360 -231 c 0
 360 -291 400 -315 447 -315 c 0
 486 -315 530 -301 551 -292 c 1
 552 -385 l 1
 520 -400 462 -413 415 -413 c 0
EndSplineSet
EndChar

StartChar: one
Encoding: 49 49 294
Width: 1238
VWidth: 0
GlyphClass: 2
Flags: HW
PickledData: "(dp1
S'org.pippin.gimp.org.kernagic'
p2
(dp3
S'lstem'
p4
I0
sS'rstem'
p5
I0
ssS'com.typemytype.robofont.layerData'
p6
(dp7
sS'org.robofab.postScriptHintData'
p8
(dp9
s."
LayerCount: 2
Fore
SplineSet
206 0 m 1
 206 113 l 1
 595 113 l 1
 595 1316 l 1
 485 1255 296 1196 226 1187 c 1
 226 1310 l 1
 303 1325 529 1403 604 1456 c 1
 746 1456 l 1
 746 113 l 1
 1093 113 l 1
 1093 0 l 1
 206 0 l 1
EndSplineSet
EndChar

StartChar: onehalf
Encoding: 189 189 295
Width: 1738
VWidth: 0
GlyphClass: 2
Flags: HW
PickledData: "(dp1
S'org.pippin.gimp.org.kernagic'
p2
(dp3
S'lstem'
p4
I0
sS'rstem'
p5
I0
ssS'com.typemytype.robofont.layerData'
p6
(dp7
sS'org.robofab.postScriptHintData'
p8
(dp9
s."
LayerCount: 2
Fore
SplineSet
1121 0 m 1
 1121 100 l 1
 1146 125 1359 341 1373 354 c 0
 1486 470 1519 531 1519 605 c 0
 1519 704 1449 754 1361 754 c 0
 1279 754 1209 718 1151 634 c 1
 1081 705 l 1
 1135 804 1244 864 1363 864 c 0
 1514 864 1641 775 1641 611 c 0
 1641 477 1579 402 1455 284 c 0
 1442 271 1285 123 1267 105 c 1
 1632 105 l 1
 1628 0 l 1
 1121 0 l 1
131 611 m 1
 131 712 l 1
 282 712 l 1
 282 1353 l 1
 245 1328 156 1293 122 1278 c 1
 122 1381 l 1
 158 1396 264 1443 307 1483 c 1
 408 1483 l 1
 408 712 l 1
 548 712 l 1
 548 611 l 1
 131 611 l 1
374 0 m 1
 1275 1486 l 1
 1395 1486 l 1
 495 0 l 1
 374 0 l 1
EndSplineSet
EndChar

StartChar: onequarter
Encoding: 188 188 296
Width: 1727
VWidth: 0
GlyphClass: 2
Flags: HW
PickledData: "(dp1
S'org.pippin.gimp.org.kernagic'
p2
(dp3
S'lstem'
p4
I0
sS'rstem'
p5
I0
ssS'com.typemytype.robofont.layerData'
p6
(dp7
sS'org.robofab.postScriptHintData'
p8
(dp9
s."
LayerCount: 2
Fore
SplineSet
131 611 m 1
 131 712 l 1
 282 712 l 1
 282 1353 l 1
 245 1328 156 1293 122 1278 c 1
 122 1381 l 1
 158 1396 264 1443 307 1483 c 1
 408 1483 l 1
 408 712 l 1
 548 712 l 1
 548 611 l 1
 131 611 l 1
1392 0 m 1
 1392 197 l 1
 989 197 l 1
 989 280 l 1
 1382 851 l 1
 1510 851 l 1
 1510 292 l 1
 1624 292 l 1
 1631 197 l 1
 1508 197 l 1
 1508 0 l 1
 1392 0 l 1
386 0 m 1
 1286 1486 l 1
 1406 1486 l 1
 506 0 l 1
 386 0 l 1
1117 292 m 1
 1392 292 l 1
 1392 700 l 1
 1117 292 l 1
EndSplineSet
EndChar

StartChar: ordmasculine
Encoding: 186 186 298
Width: 941
VWidth: 0
GlyphClass: 2
Flags: HW
PickledData: "(dp1
S'org.pippin.gimp.org.kernagic'
p2
(dp3
S'lstem'
p4
I0
sS'rstem'
p5
I0
ssS'com.typemytype.robofont.layerData'
p6
(dp7
S'b'
(dp8
S'name'
p9
S'ordmasculine'
p10
sS'lib'
p11
(dp12
sS'unicodes'
p13
(tsS'width'
p14
I965
sS'contours'
p15
(tsS'components'
p16
(tsS'anchors'
p17
(tsssS'org.robofab.postScriptHintData'
p18
(dp19
s."
LayerCount: 2
Fore
SplineSet
133 1108 m 0
 133 1329 252 1491 468 1491 c 0
 690 1491 804 1332 804 1108 c 0
 804 895 672 731 468 731 c 0
 252 731 133 892 133 1108 c 0
681 1106 m 0
 681 1278 609 1392 468 1392 c 0
 332 1392 263 1280 263 1109 c 0
 263 940 331 831 468 831 c 0
 613 831 681 939 681 1106 c 0
EndSplineSet
EndChar

StartChar: oslash
Encoding: 248 248 299
Width: 1200
VWidth: 0
GlyphClass: 2
Flags: HW
PickledData: "(dp1
S'org.pippin.gimp.org.kernagic'
p2
(dp3
S'lstem'
p4
I0
sS'rstem'
p5
I0
ssS'com.typemytype.robofont.layerData'
p6
(dp7
sS'org.robofab.postScriptHintData'
p8
(dp9
s."
LayerCount: 2
Fore
SplineSet
764.46381614 946.511664587 m 1
 719.261812009 975.257881948 664.529384228 991 600 991 c 0
 377 991 271 803 271 541 c 0
 271 401.107374889 302.60083643 280.175251636 368.113998943 199.502356342 c 1
 764.46381614 946.511664587 l 1
824.728536057 894.46742695 m 1
 424.669391446 146.147429178 l 1
 471.813527473 112.688255639 530.115351182 94 600 94 c 0
 823 94 929 286 929 540 c 0
 929 689.144260867 894.911533805 814.169323954 824.728536057 894.46742695 c 1
197 -123 m 1
 303.083251653 76.9374617962 l 1
 182.427634437 174.118102076 117 338.356411122 117 542 c 0
 117 885 290 1105 600 1105 c 0
 684.975336263 1105 759.656700988 1088.46953475 823.302619886 1057.40646554 c 1
 917 1234 l 1
 987 1198 l 1
 890.012833795 1016.58323456 l 1
 1015.76344065 921.861066529 1083 755.832547138 1083 542 c 0
 1083 208 907 -20 600 -20 c 0
 510.252058696 -20 431.699618446 -0.514700455446 365.4669499 35.4078759835 c 1
 261 -160 l 1
 197 -123 l 1
EndSplineSet
EndChar

StartChar: p
Encoding: 112 112 302
Width: 1212
VWidth: 0
GlyphClass: 2
Flags: HW
PickledData: "(dp1
S'org.pippin.gimp.org.kernagic'
p2
(dp3
S'lstem'
p4
I0
sS'rstem'
p5
I0
ssS'com.typemytype.robofont.layerData'
p6
(dp7
sS'com.fontlab.hintData'
p8
(dp9
S'vhints'
p10
((dp11
S'position'
p12
I193
sS'width'
p13
I122
s(dp14
g12
I193
sg13
I97
s(dp15
g12
I1009
sg13
I122
stp16
sS'hhints'
p17
((dp18
g12
I-19
sg13
I92
s(dp19
g12
I982
sg13
I92
stp20
ssS'org.robofab.postScriptHintData'
p21
(dp22
s."
HStem: -19 92 982 92
VStem: 193 122 193 97 1009 122
AnchorPoint: "top" 664 1082 basechar 0
LayerCount: 2
Fore
SplineSet
172 -463 m 1
 172 1082 l 1
 295 1082 l 1
 311 851 l 1
 367 1019 491 1105 660 1105 c 0
 950 1105 1095 885 1095 539 c 0
 1095 205 916 -20 634 -20 c 0
 495 -20 386 25 316 105 c 1
 322 -75 l 1
 322 -461 l 1
 172 -463 l 1
627 95 m 0
 843 95 941 267 941 540 c 0
 941 806 863 991 644 991 c 0
 408 991 315 809 315 558 c 2
 315 264 l 1
 379 153 488 95 627 95 c 0
EndSplineSet
EndChar

StartChar: paragraph
Encoding: 182 182 303
Width: 1132
VWidth: 0
GlyphClass: 2
Flags: HW
PickledData: "(dp1
S'org.pippin.gimp.org.kernagic'
p2
(dp3
S'lstem'
p4
I0
sS'rstem'
p5
I0
ssS'com.typemytype.robofont.layerData'
p6
(dp7
sS'org.robofab.postScriptHintData'
p8
(dp9
s."
LayerCount: 2
Fore
SplineSet
640 1346 m 1
 640 -199 l 1
 528 -199 l 1
 528 783 l 1
 234 783 138 952 138 1125 c 0
 138 1269 214 1456 540 1456 c 2
 892 1456 l 1
 892 -199 l 1
 780 -199 l 1
 780 1346 l 1
 640 1346 l 1
EndSplineSet
EndChar

StartChar: parenleft
Encoding: 40 40 304
Width: 751
VWidth: 0
GlyphClass: 2
Flags: HW
PickledData: "(dp1
S'org.pippin.gimp.org.kernagic'
p2
(dp3
S'lstem'
p4
I0
sS'rstem'
p5
I0
ssS'com.typemytype.robofont.layerData'
p6
(dp7
S'b'
(dp8
S'name'
p9
S'parenright'
p10
sS'lib'
p11
(dp12
sS'unicodes'
p13
(tsS'width'
p14
I766
sS'contours'
p15
(tsS'components'
p16
(tsS'anchors'
p17
(tsssS'org.robofab.postScriptHintData'
p18
(dp19
s."
LayerCount: 2
Fore
SplineSet
214 684 m 256
 214 1005 300 1316 469 1588 c 257
 595 1588 l 257
 595 1558 l 257
 413 1255 353 972 353 684 c 256
 353 396 413 114 595 -190 c 257
 595 -219 l 257
 469 -219 l 257
 300 53 214 364 214 684 c 256
EndSplineSet
EndChar

StartChar: parenright
Encoding: 41 41 305
Width: 750
VWidth: 0
GlyphClass: 2
Flags: HW
PickledData: "(dp1
S'org.pippin.gimp.org.kernagic'
p2
(dp3
S'lstem'
p4
I0
sS'rstem'
p5
I0
ssS'com.typemytype.robofont.layerData'
p6
(dp7
S'b'
(dp8
S'name'
p9
S'parenright'
p10
sS'lib'
p11
(dp12
sS'unicodes'
p13
(tsS'width'
p14
I766
sS'contours'
p15
(tsS'components'
p16
(tsS'anchors'
p17
(tsssS'org.robofab.postScriptHintData'
p18
(dp19
s."
LayerCount: 2
Fore
SplineSet
542 684 m 0
 542 364 456 53 287 -219 c 1
 161 -219 l 1
 161 -190 l 1
 343 114 403 396 403 684 c 0
 403 972 343 1255 161 1558 c 1
 161 1588 l 1
 287 1588 l 1
 456 1316 542 1005 542 684 c 0
EndSplineSet
EndChar

StartChar: partialdiff
Encoding: 8706 8706 306
Width: 1167
VWidth: 0
GlyphClass: 2
Flags: HW
PickledData: "(dp1
S'org.robofab.postScriptHintData'
p2
(dp3
s."
LayerCount: 2
Fore
SplineSet
466 -19 m 0
 262 -19 167 114 167 280 c 0
 167 554 426 917 884 917 c 1
 884 929 885 941 885 953 c 0
 885 1257 721 1448 489 1448 c 0
 421 1448 347 1432 270 1397 c 1
 236 1482 l 1
 335 1535 433 1560 525 1560 c 0
 810 1560 1032 1318 1032 906 c 0
 1032 380 803 -19 466 -19 c 0
477 74 m 0
 738 74 866 524 880 835 c 1
 531 828 338 484 338 261 c 0
 338 153 383 74 477 74 c 0
EndSplineSet
EndChar

StartChar: percent
Encoding: 37 37 307
Width: 1616
VWidth: 0
GlyphClass: 2
Flags: HW
PickledData: "(dp1
S'org.pippin.gimp.org.kernagic'
p2
(dp3
S'lstem'
p4
I0
sS'rstem'
p5
I0
ssS'com.typemytype.robofont.layerData'
p6
(dp7
S'b'
(dp8
S'name'
p9
S'percent'
p10
sS'lib'
p11
(dp12
sS'unicodes'
p13
(tsS'width'
p14
I1563
sS'contours'
p15
(tsS'components'
p16
(tsS'anchors'
p17
(tsssS'org.robofab.postScriptHintData'
p18
(dp19
s."
LayerCount: 2
Fore
SplineSet
369 803 m 0
 528 803 565 931 565 1095 c 0
 565 1265 527 1384 369 1384 c 0
 210 1384 172 1259 172 1095 c 0
 172 926 210 803 369 803 c 0
368 713 m 0
 142 713 68 880 68 1094 c 0
 68 1310 146 1474 368 1474 c 0
 594 1474 674 1313 674 1094 c 0
 674 880 591 713 368 713 c 0
291 0 m 1
 1120 1457 l 1
 1235 1457 l 1
 416 0 l 1
 291 0 l 1
1159 86 m 0
 1318 86 1355 215 1355 378 c 0
 1355 548 1317 667 1159 667 c 0
 999 667 962 542 962 378 c 0
 962 210 1000 86 1159 86 c 0
1158 -3 m 0
 932 -3 852 163 852 378 c 0
 852 594 936 758 1158 758 c 0
 1384 758 1464 597 1464 378 c 0
 1464 163 1381 -3 1158 -3 c 0
EndSplineSet
EndChar

StartChar: period
Encoding: 46 46 308
Width: 588
VWidth: 0
GlyphClass: 2
Flags: HW
PickledData: "(dp1
S'org.pippin.gimp.org.kernagic'
p2
(dp3
S'lstem'
p4
I0
sS'rstem'
p5
I0
ssS'com.typemytype.robofont.layerData'
p6
(dp7
S'b'
(dp8
S'name'
p9
S'period'
p10
sS'lib'
p11
(dp12
sS'unicodes'
p13
(tsS'width'
p14
I624
sS'contours'
p15
(tsS'components'
p16
(tsS'anchors'
p17
(tsssS'org.robofab.postScriptHintData'
p18
(dp19
s."
LayerCount: 2
Fore
SplineSet
298 -13 m 0
 226 -13 202 30 202 98 c 0
 202 163 226 205 298 205 c 0
 367 205 393 163 393 98 c 0
 393 30 367 -13 298 -13 c 0
EndSplineSet
EndChar

StartChar: periodcentered
Encoding: 183 183 309
Width: 602
VWidth: 0
GlyphClass: 2
Flags: HW
PickledData: "(dp1
S'org.pippin.gimp.org.kernagic'
p2
(dp3
S'lstem'
p4
I0
sS'rstem'
p5
I0
ssS'com.typemytype.robofont.layerData'
p6
(dp7
S'b'
(dp8
S'name'
p9
S'periodcentered'
p10
sS'lib'
p11
(dp12
sS'unicodes'
p13
(tsS'width'
p14
I653
sS'contours'
p15
(tsS'components'
p16
(tsS'anchors'
p17
(tsssS'org.robofab.postScriptHintData'
p18
(dp19
s."
LayerCount: 2
Fore
SplineSet
294 521 m 0
 230 521 190 566 190 624 c 0
 190 682 230 726 294 726 c 0
 358 726 398 682 398 624 c 0
 398 565 358 521 294 521 c 0
EndSplineSet
EndChar

StartChar: perthousand
Encoding: 8240 8240 310
Width: 2336
VWidth: 0
GlyphClass: 2
Flags: HW
PickledData: "(dp1
S'org.pippin.gimp.org.kernagic'
p2
(dp3
S'lstem'
p4
I0
sS'rstem'
p5
I0
ssS'com.typemytype.robofont.layerData'
p6
(dp7
S'b'
(dp8
S'name'
p9
S'perthousand'
p10
sS'lib'
p11
(dp12
sS'unicodes'
p13
(tsS'width'
p14
I2251
sS'contours'
p15
(tsS'components'
p16
(tsS'anchors'
p17
(tsssS'org.robofab.postScriptHintData'
p18
(dp19
s."
LayerCount: 2
Fore
SplineSet
1879 86 m 0
 2039 86 2075 215 2075 378 c 0
 2075 548 2038 667 1879 667 c 0
 1720 667 1682 542 1682 378 c 0
 1682 210 1720 86 1879 86 c 0
1878 -3 m 0
 1652 -3 1573 163 1573 378 c 0
 1573 594 1656 758 1878 758 c 0
 2105 758 2184 597 2184 378 c 0
 2184 163 2102 -3 1878 -3 c 0
EndSplineSet
Refer: 307 37 N 1 0 0 1 8 0 2
EndChar

StartChar: pi
Encoding: 960 960 311
Width: 1409
VWidth: 0
GlyphClass: 2
Flags: HW
PickledData: "(dp1
S'org.robofab.postScriptHintData'
p2
(dp3
sS'com.typemytype.robofont.layerData'
p4
(dp5
s."
LayerCount: 2
Fore
SplineSet
1121 -12 m 0
 946 -12 893 99 893 288 c 0
 893 452 933 679 968 932 c 1
 578 932 l 1
 540 333 l 1
 527 109 461 4 123 4 c 1
 123 104 l 1
 245 104 375 165 404 387 c 2
 476 932 l 1
 348 932 l 2
 262 932 221 875 209 779 c 1
 120 779 l 1
 120 1000 190 1082 429 1082 c 2
 1324 1082 l 1
 1324 932 l 1
 1082 932 l 1
 1053 727 1038 560 1038 438 c 0
 1038 224 1082 126 1170 126 c 0
 1212 126 1268 149 1297 160 c 1
 1297 45 l 1
 1260 11 1195 -12 1121 -12 c 0
EndSplineSet
EndChar

StartChar: plus
Encoding: 43 43 312
Width: 1139
VWidth: 0
GlyphClass: 2
Flags: HW
PickledData: "(dp1
S'org.pippin.gimp.org.kernagic'
p2
(dp3
S'lstem'
p4
I0
sS'rstem'
p5
I0
ssS'com.typemytype.robofont.layerData'
p6
(dp7
S'b'
(dp8
S'name'
p9
S'plus'
p10
sS'lib'
p11
(dp12
sS'unicodes'
p13
(tsS'width'
p14
I1136
sS'contours'
p15
(tsS'components'
p16
(tsS'anchors'
p17
(tsssS'org.robofab.postScriptHintData'
p18
(dp19
s."
LayerCount: 2
Fore
SplineSet
490 1135 m 1
 640 1135 l 1
 640 753 l 1
 997 753 l 1
 997 610 l 1
 640 610 l 1
 640 221 l 1
 489 221 l 1
 489 610 l 1
 127 610 l 1
 127 753 l 1
 490 753 l 1
 490 1135 l 1
EndSplineSet
EndChar

StartChar: plusminus
Encoding: 177 177 313
Width: 1143
VWidth: 0
GlyphClass: 2
Flags: HW
PickledData: "(dp1
S'org.pippin.gimp.org.kernagic'
p2
(dp3
S'lstem'
p4
I0
sS'rstem'
p5
I0
ssS'com.typemytype.robofont.layerData'
p6
(dp7
sS'org.robofab.postScriptHintData'
p8
(dp9
s."
LayerCount: 2
Fore
SplineSet
506 1102 m 1
 619 1102 l 1
 619 711 l 1
 987 711 l 1
 987 606 l 1
 620 606 l 1
 620 204 l 1
 506 204 l 1
 506 606 l 1
 131 606 l 1
 131 711 l 1
 506 711 l 1
 506 1102 l 1
107 107 m 1
 1039 107 l 1
 1039 0 l 1
 107 0 l 1
 107 107 l 1
EndSplineSet
EndChar

StartChar: product
Encoding: 8719 8719 314
Width: 1512
VWidth: 0
GlyphClass: 2
Flags: HW
PickledData: "(dp1
S'org.pippin.gimp.org.kernagic'
p2
(dp3
S'lstem'
p4
I0
sS'rstem'
p5
I0
ssS'com.typemytype.robofont.layerData'
p6
(dp7
S'b'
(dp8
S'name'
p9
S'product'
p10
sS'lib'
p11
(dp12
sS'unicodes'
p13
(tsS'width'
p14
I1533
sS'contours'
p15
(tsS'components'
p16
(tsS'anchors'
p17
(tsssS'org.robofab.postScriptHintData'
p18
(dp19
s."
LayerCount: 2
Fore
SplineSet
203 1488 m 1
 1324 1488 l 1
 1324 0 l 1
 1169 0 l 1
 1169 1349 l 1
 359 1349 l 1
 359 0 l 1
 203 0 l 1
 203 1488 l 1
EndSplineSet
EndChar

StartChar: q
Encoding: 113 113 315
Width: 1208
VWidth: 0
GlyphClass: 2
Flags: HW
PickledData: "(dp1
S'org.pippin.gimp.org.kernagic'
p2
(dp3
S'lstem'
p4
I0
sS'rstem'
p5
I0
ssS'com.typemytype.robofont.layerData'
p6
(dp7
sS'org.robofab.postScriptHintData'
p8
(dp9
s."
LayerCount: 2
Fore
SplineSet
585 -20 m 0
 282 -20 114 208 114 544 c 0
 114 880 292 1105 590 1105 c 0
 739 1105 841 1040 903 955 c 1
 911 1082 l 1
 1036 1082 l 1
 1036 -462 l 1
 886 -463 l 1
 886 -42 l 1
 889 101 l 1
 808 13 692 -20 585 -20 c 0
592 95 m 0
 722 95 834 145 892 238 c 1
 892 828 l 1
 823 939 720 991 592 991 c 0
 376 991 268 816 268 544 c 0
 268 265 373 95 592 95 c 0
EndSplineSet
EndChar

StartChar: question
Encoding: 63 63 316
Width: 907
VWidth: 0
GlyphClass: 2
Flags: HW
PickledData: "(dp1
S'org.pippin.gimp.org.kernagic'
p2
(dp3
S'lstem'
p4
I0
sS'rstem'
p5
I0
ssS'com.typemytype.robofont.layerData'
p6
(dp7
sS'org.robofab.postScriptHintData'
p8
(dp9
s."
LayerCount: 2
Fore
SplineSet
333 417 m 1
 339 709 598 914 598 1144 c 0
 598 1292 521 1360 392 1360 c 0
 285 1360 185 1301 144 1273 c 1
 116 1391 l 1
 188 1445 286 1485 409 1485 c 0
 590 1485 744 1383 744 1150 c 0
 744 854 508 785 408 417 c 1
 333 417 l 1
370 -14 m 0
 292 -14 261 41 261 95 c 0
 261 148 292 202 370 202 c 0
 448 202 479 148 479 95 c 0
 479 39 448 -14 370 -14 c 0
EndSplineSet
EndChar

StartChar: quotedbl
Encoding: 34 34 318
Width: 661
VWidth: 0
GlyphClass: 2
Flags: HW
PickledData: "(dp1
S'org.robofab.postScriptHintData'
p2
(dp3
sS'com.typemytype.robofont.layerData'
p4
(dp5
s."
LayerCount: 2
Fore
SplineSet
166 1019 m 1
 112 1521 l 1
 273 1521 l 1
 238 1019 l 1
 166 1019 l 1
439 1019 m 1
 385 1521 l 1
 547 1521 l 1
 511 1019 l 1
 439 1019 l 1
EndSplineSet
EndChar

StartChar: quotedblbase
Encoding: 8222 8222 319
Width: 713
VWidth: 0
GlyphClass: 2
Flags: HW
PickledData: "(dp1
S'org.robofab.postScriptHintData'
p2
(dp3
s."
LayerCount: 2
Fore
SplineSet
110 -296 m 1
 165 166 l 1
 308 166 l 1
 206 -296 l 1
 110 -296 l 1
393 -296 m 1
 445 166 l 1
 593 166 l 1
 486 -296 l 1
 393 -296 l 1
EndSplineSet
EndChar

StartChar: quotedblleft
Encoding: 8220 8220 320
Width: 888
VWidth: 0
GlyphClass: 2
Flags: HW
PickledData: "(dp1
S'org.robofab.postScriptHintData'
p2
(dp3
sS'com.typemytype.robofont.layerData'
p4
(dp5
s."
LayerCount: 2
Fore
SplineSet
170 1016 m 1
 276 1489 l 1
 384 1489 l 1
 335 1016 l 1
 170 1016 l 1
504 1016 m 1
 610 1489 l 1
 718 1489 l 1
 669 1016 l 1
 504 1016 l 1
EndSplineSet
EndChar

StartChar: quotedblright
Encoding: 8221 8221 321
Width: 888
VWidth: 0
GlyphClass: 2
Flags: HW
PickledData: "(dp1
S'org.robofab.postScriptHintData'
p2
(dp3
sS'com.typemytype.robofont.layerData'
p4
(dp5
s."
LayerCount: 2
Fore
SplineSet
504 1016 m 1
 553 1489 l 1
 718 1489 l 1
 612 1016 l 1
 504 1016 l 1
170 1016 m 1
 218 1489 l 1
 384 1489 l 1
 278 1016 l 1
 170 1016 l 1
EndSplineSet
EndChar

StartChar: quoteleft
Encoding: 8216 8216 322
Width: 524
VWidth: 0
GlyphClass: 2
Flags: HW
PickledData: "(dp1
S'org.robofab.postScriptHintData'
p2
(dp3
sS'com.typemytype.robofont.layerData'
p4
(dp5
s."
LayerCount: 2
Fore
SplineSet
384 1489 m 1
 335 1016 l 1
 170 1016 l 1
 276 1489 l 1
 384 1489 l 1
EndSplineSet
EndChar

StartChar: quoteright
Encoding: 8217 8217 323
Width: 524
VWidth: 0
GlyphClass: 2
Flags: HW
PickledData: "(dp1
S'org.robofab.postScriptHintData'
p2
(dp3
sS'com.typemytype.robofont.layerData'
p4
(dp5
s."
LayerCount: 2
Fore
SplineSet
170 1016 m 1
 218 1489 l 1
 384 1489 l 1
 278 1016 l 1
 170 1016 l 1
EndSplineSet
EndChar

StartChar: quotesinglbase
Encoding: 8218 8218 324
Width: 442
VWidth: 0
GlyphClass: 2
Flags: HW
PickledData: "(dp1
S'org.robofab.postScriptHintData'
p2
(dp3
s."
LayerCount: 2
Fore
SplineSet
97 -296 m 1
 157 166 l 1
 306 166 l 1
 196 -296 l 1
 97 -296 l 1
EndSplineSet
EndChar

StartChar: quotesingle
Encoding: 39 39 325
Width: 358
VWidth: 0
GlyphClass: 2
Flags: HW
PickledData: "(dp1
S'org.robofab.postScriptHintData'
p2
(dp3
s."
LayerCount: 2
Fore
SplineSet
129 970 m 1
 93 1490 l 1
 243 1490 l 1
 219 970 l 1
 129 970 l 1
EndSplineSet
EndChar

StartChar: r
Encoding: 114 114 326
Width: 768
VWidth: 0
GlyphClass: 2
Flags: HW
PickledData: "(dp1
S'org.pippin.gimp.org.kernagic'
p2
(dp3
S'lstem'
p4
I0
sS'rstem'
p5
I352
ssS'com.typemytype.robofont.layerData'
p6
(dp7
sS'com.fontlab.hintData'
p8
(dp9
S'vhints'
p10
((dp11
S'position'
p12
I193
sS'width'
p13
I122
s(dp14
g12
I193
sg13
I92
stp15
sS'hhints'
p16
((dp17
g12
I974
sg13
I94
stp18
ssS'org.robofab.postScriptHintData'
p19
(dp20
s."
HStem: 974 94
VStem: 193 122 193 92
AnchorPoint: "bot" 276 0 basechar 0
AnchorPoint: "top" 460 1082 basechar 0
LayerCount: 2
Fore
SplineSet
174 0 m 1
 174 1082 l 1
 291 1082 l 1
 308 846 l 1
 384 1035 503 1096 630 1096 c 0
 661 1096 684 1095 706 1091 c 1
 694 971 l 1
 690 972 654 973 651 973 c 0
 433 973 323 811 323 620 c 2
 323 0 l 1
 174 0 l 1
EndSplineSet
EndChar

StartChar: radical
Encoding: 8730 8730 328
Width: 1157
VWidth: 0
GlyphClass: 2
Flags: HW
PickledData: "(dp1
S'org.pippin.gimp.org.kernagic'
p2
(dp3
S'lstem'
p4
I0
sS'rstem'
p5
I0
ssS'com.typemytype.robofont.layerData'
p6
(dp7
S'b'
(dp8
S'name'
p9
S'radical'
p10
sS'lib'
p11
(dp12
sS'unicodes'
p13
(tsS'width'
p14
I1136
sS'contours'
p15
(tsS'components'
p16
(tsS'anchors'
p17
(tsssS'org.robofab.postScriptHintData'
p18
(dp19
s."
LayerCount: 2
Fore
SplineSet
1009 1709 m 1
 1115 1709 l 1
 680 -162 l 1
 558 -162 l 1
 224 753 l 1
 77 722 l 1
 63 830 l 1
 314 886 l 1
 412 606 519 335 609 47 c 1
 714 493 902 1262 1009 1709 c 1
EndSplineSet
EndChar

StartChar: registered
Encoding: 174 174 331
Width: 1872
VWidth: 0
GlyphClass: 2
Flags: HW
PickledData: "(dp1
S'org.pippin.gimp.org.kernagic'
p2
(dp3
S'lstem'
p4
I0
sS'rstem'
p5
I0
ssS'com.typemytype.robofont.layerData'
p6
(dp7
sS'org.robofab.postScriptHintData'
p8
(dp9
s."
LayerCount: 2
Fore
SplineSet
640 298 m 1
 640 1226 l 1
 959 1226 l 2
 1197 1226 1270 1150 1270 988 c 0
 1270 852 1208 762 1078 751 c 1
 1089 736 1302 298 1302 298 c 1
 1185 298 l 1
 1185 298 980 730 974 737 c 1
 745 737 l 1
 745 298 l 1
 640 298 l 1
746 830 m 1
 987 830 l 2
 1130 830 1169 877 1169 984 c 0
 1169 1113 1110 1133 946 1133 c 2
 746 1133 l 1
 746 830 l 1
933 54 m 0
 1262 54 1592 283 1592 735 c 0
 1592 1186 1262 1416 933 1416 c 0
 604 1416 278 1187 278 735 c 0
 278 283 604 54 933 54 c 0
933 -25 m 0
 560 -25 178 228 178 735 c 0
 178 1242 560 1496 933 1496 c 0
 1307 1496 1691 1242 1691 735 c 0
 1691 228 1307 -25 933 -25 c 0
EndSplineSet
EndChar

StartChar: ring
Encoding: 730 730 332
Width: 685
VWidth: 0
GlyphClass: 4
Flags: HW
PickledData: "(dp1
S'org.robofab.postScriptHintData'
p2
(dp3
sS'com.typemytype.robofont.layerData'
p4
(dp5
s."
AnchorPoint: "top" 334 1062 mark 0
LayerCount: 2
Fore
SplineSet
335 1274 m 0
 391 1274 434 1321 434 1376 c 0
 434 1431 391 1477 335 1477 c 0
 278 1477 237 1431 237 1376 c 0
 237 1320 277 1274 335 1274 c 0
335 1199 m 0
 230 1199 152 1278 152 1378 c 0
 152 1477 229 1554 335 1554 c 0
 440 1554 519 1477 519 1378 c 0
 519 1278 440 1199 335 1199 c 0
EndSplineSet
EndChar

StartChar: s
Encoding: 115 115 333
Width: 963
VWidth: 0
GlyphClass: 2
Flags: HW
PickledData: "(dp1
S'org.pippin.gimp.org.kernagic'
p2
(dp3
S'lstem'
p4
I168
sS'rstem'
p5
I620
ssS'com.typemytype.robofont.guides'
p6
((dp7
S'y'
I381
sS'x'
I77
sS'magnetic'
p8
I5
sS'angle'
p9
F90
sS'isGlobal'
p10
I00
stp11
sS'com.typemytype.robofont.layerData'
p12
(dp13
sS'com.fontlab.hintData'
p14
(dp15
S'vhints'
p16
((dp17
S'position'
p18
I142
sS'width'
p19
I107
s(dp20
g18
I738
sg19
I104
stp21
sS'hhints'
p22
((dp23
g18
I-19
sg19
I92
s(dp24
g18
I982
sg19
I92
stp25
ssS'org.robofab.postScriptHintData'
p26
(dp27
s."
HStem: -19 92 982 92
VStem: 142 107 738 104
AnchorPoint: "bot" 475 1 basechar 0
AnchorPoint: "top" 506 1083 basechar 0
LayerCount: 2
Fore
SplineSet
733 300 m 0
 733 384 706 435 536 488 c 1
 406 527 l 1
 159 604 120 692 120 821 c 0
 120 999 269 1105 503 1105 c 0
 663 1105 778 1045 839 969 c 1
 760 897 l 1
 750 897 l 1
 700 949 613 990 501 990 c 0
 345 990 263 929 263 823 c 0
 263 738 296 695 446 648 c 1
 573 610 l 1
 826 529 868 430 868 300 c 0
 868 73 701 -20 496 -20 c 0
 342 -20 192 31 102 130 c 1
 177 210 l 1
 191 210 l 1
 276 122 395 92 498 92 c 0
 651 92 733 158 733 300 c 0
EndSplineSet
EndChar

StartChar: section
Encoding: 167 167 339
Width: 1071
VWidth: 0
GlyphClass: 2
Flags: HW
PickledData: "(dp1
S'org.pippin.gimp.org.kernagic'
p2
(dp3
S'lstem'
p4
I0
sS'rstem'
p5
I0
ssS'com.typemytype.robofont.layerData'
p6
(dp7
S'b'
(dp8
S'name'
p9
S'section'
p10
sS'lib'
p11
(dp12
sS'unicodes'
p13
(tsS'width'
p14
I1079
sS'contours'
p15
(tsS'components'
p16
(tsS'anchors'
p17
(tsssS'org.robofab.postScriptHintData'
p18
(dp19
s."
LayerCount: 2
Fore
SplineSet
515 -34 m 0
 406 -34 289 -6 188 42 c 1
 192 164 l 1
 307 108 412 78 525 78 c 0
 659 78 749 142 749 272 c 0
 749 358 705 413 434 501 c 0
 230 568 171 642 171 777 c 0
 171 864 209 934 272 983 c 1
 197 1037 170 1104 170 1191 c 0
 170 1363 304 1476 525 1476 c 0
 645 1476 750 1448 841 1405 c 1
 806 1297 l 1
 743 1328 646 1364 540 1364 c 0
 378 1364 306 1301 306 1194 c 0
 306 1091 349 1068 587 989 c 0
 819 913 882 839 882 685 c 0
 882 594 847 531 791 483 c 1
 854 431 880 362 880 270 c 0
 880 55 710 -34 515 -34 c 0
686 548 m 1
 719 578 752 618 752 688 c 0
 752 770 689 822 535 873 c 0
 433 906 399 919 391 923 c 1
 339 895 306 851 306 780 c 0
 306 688 341 665 495 613 c 0
 610 578 662 559 686 548 c 1
EndSplineSet
EndChar

StartChar: semicolon
Encoding: 59 59 340
Width: 658
VWidth: 0
GlyphClass: 2
Flags: HW
PickledData: "(dp1
S'org.pippin.gimp.org.kernagic'
p2
(dp3
S'lstem'
p4
I0
sS'rstem'
p5
I0
ssS'com.typemytype.robofont.layerData'
p6
(dp7
sS'org.robofab.postScriptHintData'
p8
(dp9
s."
LayerCount: 2
Fore
SplineSet
236 -299 m 1
 236 -299 269 202 269 227 c 1
 429 227 l 1
 429 155 l 2
 429 145 320 -299 320 -299 c 1
 236 -299 l 1
343 846 m 0
 265 846 231 903 231 960 c 0
 231 1014 263 1073 343 1073 c 0
 422 1073 452 1014 452 960 c 0
 452 903 422 846 343 846 c 0
EndSplineSet
EndChar

StartChar: seven
Encoding: 55 55 341
Width: 1238
VWidth: 0
GlyphClass: 2
Flags: HW
PickledData: "(dp1
S'org.pippin.gimp.org.kernagic'
p2
(dp3
S'lstem'
p4
I0
sS'rstem'
p5
I0
ssS'com.typemytype.robofont.layerData'
p6
(dp7
sS'org.robofab.postScriptHintData'
p8
(dp9
s."
LayerCount: 2
Fore
SplineSet
355 0 m 1
 901 1333 l 1
 199 1333 l 1
 177 1456 l 1
 1055 1456 l 1
 1055 1346 l 1
 502 0 l 1
 355 0 l 1
EndSplineSet
EndChar

StartChar: six
Encoding: 54 54 342
Width: 1238
VWidth: 0
GlyphClass: 2
Flags: HW
PickledData: "(dp1
S'org.pippin.gimp.org.kernagic'
p2
(dp3
S'lstem'
p4
I0
sS'rstem'
p5
I0
ssS'com.typemytype.robofont.layerData'
p6
(dp7
sS'org.robofab.postScriptHintData'
p8
(dp9
s."
LayerCount: 2
Fore
SplineSet
643 -20 m 0
 341 -20 178 206 178 443 c 0
 178 665 260 807 401 1004 c 2
 727 1456 l 1
 882 1456 l 1
 882 1436 l 1
 723 1214 563 993 406 769 c 1
 474 829 569 880 695 880 c 0
 922 880 1106 705 1106 440 c 0
 1106 188 930 -20 643 -20 c 0
640 102 m 0
 849 102 961 263 961 440 c 0
 961 623 847 760 647 760 c 0
 523 760 321 687 321 433 c 0
 321 259 430 102 640 102 c 0
EndSplineSet
EndChar

StartChar: slash
Encoding: 47 47 343
Width: 976
VWidth: 0
GlyphClass: 2
Flags: HW
PickledData: "(dp1
S'org.pippin.gimp.org.kernagic'
p2
(dp3
S'lstem'
p4
I0
sS'rstem'
p5
I0
ssS'com.typemytype.robofont.layerData'
p6
(dp7
S'b'
(dp8
S'name'
p9
S'slash'
p10
sS'lib'
p11
(dp12
sS'unicodes'
p13
(tsS'width'
p14
I965
sS'contours'
p15
(tsS'components'
p16
(tsS'anchors'
p17
(tsssS'org.robofab.postScriptHintData'
p18
(dp19
s."
LayerCount: 2
Fore
SplineSet
134 -144 m 1
 767 1560 l 1
 895 1560 l 1
 258 -144 l 1
 134 -144 l 1
EndSplineSet
EndChar

StartChar: slashbar
Encoding: 65543 -1 344
Width: 846
VWidth: 0
GlyphClass: 4
Flags: HW
PickledData: "(dp1
S'org.pippin.gimp.org.kernagic'
p2
(dp3
S'lstem'
p4
I0
sS'rstem'
p5
I0
ssS'com.typemytype.robofont.layerData'
p6
(dp7
S'b'
(dp8
S'name'
p9
S'slashbar'
p10
sS'lib'
p11
(dp12
sS'unicodes'
p13
(tsS'width'
p14
I908
sS'contours'
p15
(tsS'components'
p16
(tsS'anchors'
p17
(tsssS'org.robofab.postScriptHintData'
p18
(dp19
s."
AnchorPoint: "mid" 449 741 mark 0
LayerCount: 2
Fore
SplineSet
164 518 m 1
 164 632 l 1
 729 966 l 1
 729 852 l 1
 164 518 l 1
EndSplineSet
EndChar

StartChar: sterling
Encoding: 163 163 346
Width: 1157
VWidth: 0
GlyphClass: 2
Flags: HW
PickledData: "(dp1
S'org.pippin.gimp.org.kernagic'
p2
(dp3
S'lstem'
p4
I0
sS'rstem'
p5
I0
ssS'com.typemytype.robofont.layerData'
p6
(dp7
S'b'
(dp8
S'name'
p9
S'sterling'
p10
sS'lib'
p11
(dp12
sS'unicodes'
p13
(tsS'width'
p14
I1136
sS'contours'
p15
((dp16
S'points'
p17
((dp18
S'segmentType'
p19
S'line'
p20
sS'x'
I20
sS'smooth'
p21
I00
sS'y'
I0
s(dp22
g19
S'line'
p23
sS'x'
I8
sg21
I00
sS'y'
I115
s(dp24
g19
S'line'
p25
sS'x'
I180
sg21
I00
sS'y'
I132
s(dp26
g19
S'line'
p27
sS'x'
I180
sg21
I00
sS'y'
I683
s(dp28
g19
S'line'
p29
sS'x'
I8
sg21
I00
sS'y'
I683
s(dp30
g19
S'line'
p31
sS'x'
I8
sg21
I00
sS'y'
I806
s(dp32
g19
S'line'
p33
sS'x'
I180
sg21
I00
sS'y'
I806
s(dp34
g19
S'line'
p35
sS'x'
I180
sg21
I01
sS'y'
I920
s(dp36
S'y'
I1183
sS'x'
I180
sg21
I00
s(dp37
S'y'
I1476
sS'x'
I245
sg21
I00
s(dp38
g19
S'curve'
p39
sS'x'
I598
sg21
I01
sS'y'
I1476
s(dp40
S'y'
I1476
sS'x'
I742
sg21
I00
s(dp41
S'y'
I1421
sS'x'
I854
sg21
I00
s(dp42
g19
S'curve'
p43
sS'x'
I939
sg21
I00
sS'y'
I1347
s(dp44
g19
S'line'
p45
sS'x'
I871
sg21
I00
sS'y'
I1229
s(dp46
S'y'
I1297
sS'x'
I785
sg21
I00
s(dp47
S'y'
I1334
sS'x'
I700
sg21
I00
s(dp48
g19
S'curve'
p49
sS'x'
I598
sg21
I01
sS'y'
I1334
s(dp50
S'y'
I1334
sS'x'
I397
sg21
I00
s(dp51
S'y'
I1179
sS'x'
I356
sg21
I00
s(dp52
g19
S'curve'
p53
sS'x'
I356
sg21
I01
sS'y'
I949
s(dp54
g19
S'line'
p55
sS'x'
I356
sg21
I00
sS'y'
I806
s(dp56
g19
S'line'
p57
sS'x'
I739
sg21
I00
sS'y'
I806
s(dp58
g19
S'line'
p59
sS'x'
I739
sg21
I00
sS'y'
I683
s(dp60
g19
S'line'
p61
sS'x'
I356
sg21
I00
sS'y'
I683
s(dp62
g19
S'line'
p63
sS'x'
I356
sg21
I00
sS'y'
I134
s(dp64
g19
S'line'
p65
sS'x'
I953
sg21
I00
sS'y'
I134
s(dp66
g19
S'line'
p67
sS'x'
I940
sg21
I00
sS'y'
I0
stp68
stp69
sS'components'
p70
(tsS'anchors'
p71
(tsssS'org.robofab.postScriptHintData'
p72
(dp73
s."
LayerCount: 2
Fore
SplineSet
418 947 m 2
 418 795 l 1
 811 795 l 1
 811 685 l 1
 418 685 l 1
 418 120 l 1
 1025 120 l 1
 1013 0 l 1
 98 0 l 1
 86 102 l 1
 263 118 l 1
 263 685 l 1
 87 685 l 1
 87 795 l 1
 263 795 l 1
 263 935 l 2
 263 1204 335 1476 676 1476 c 0
 844 1476 946 1408 1015 1341 c 1
 958 1241 l 1
 943 1241 l 1
 870 1302 800 1349 686 1349 c 0
 502 1349 418 1208 418 947 c 2
EndSplineSet
EndChar

StartChar: summation
Encoding: 8721 8721 347
Width: 1113
VWidth: 0
GlyphClass: 2
Flags: HW
PickledData: "(dp1
S'org.pippin.gimp.org.kernagic'
p2
(dp3
S'lstem'
p4
I0
sS'rstem'
p5
I0
ssS'com.typemytype.robofont.layerData'
p6
(dp7
S'b'
(dp8
S'name'
p9
S'summation'
p10
sS'lib'
p11
(dp12
sS'unicodes'
p13
(tsS'width'
p14
I1050
sS'contours'
p15
(tsS'components'
p16
(tsS'anchors'
p17
(tsssS'org.robofab.postScriptHintData'
p18
(dp19
s."
LayerCount: 2
Fore
SplineSet
101 1477 m 1
 1016 1477 l 1
 1016 1343 l 1
 299 1343 l 1
 797 618 l 1
 281 -85 l 1
 1061 -85 l 1
 1061 -229 l 1
 78 -229 l 1
 78 -144 l 1
 611 622 l 1
 101 1388 l 1
 101 1477 l 1
EndSplineSet
EndChar

StartChar: t
Encoding: 116 116 348
Width: 782
VWidth: 0
GlyphClass: 2
Flags: HW
PickledData: "(dp1
S'org.pippin.gimp.org.kernagic'
p2
(dp3
S'lstem'
p4
I189
sS'rstem'
p5
I480
ssS'com.typemytype.robofont.layerData'
p6
(dp7
sS'com.fontlab.hintData'
p8
(dp9
S'vhints'
p10
((dp11
S'position'
p12
I244
sS'width'
p13
I122
s(dp14
g12
I286
sg13
I80
stp15
sS'hhints'
p16
((dp17
g12
I-11
sg13
I83
stp18
ssS'org.robofab.postScriptHintData'
p19
(dp20
s."
HStem: -11 83
VStem: 244 122 286 80
AnchorPoint: "mid" 358 614 basechar 0
AnchorPoint: "bot" 463 0 basechar 0
AnchorPoint: "top" 315 1358 basechar 0
LayerCount: 2
Fore
SplineSet
563 -8 m 0
 296 -8 235 67 235 311 c 2
 235 990 l 1
 69 990 l 1
 71 1073 l 1
 238 1082 l 1
 263 1368 l 1
 385 1378 l 1
 385 1082 l 1
 681 1082 l 1
 681 990 l 1
 385 990 l 1
 385 312 l 2
 385 138 407 105 560 100 c 0
 575 100 671 99 671 99 c 1
 665 -6 l 1
 665 -6 583 -8 563 -8 c 0
EndSplineSet
EndChar

StartChar: thorn
Encoding: 254 254 353
Width: 1227
VWidth: 0
GlyphClass: 2
Flags: HW
PickledData: "(dp1
S'org.pippin.gimp.org.kernagic'
p2
(dp3
S'lstem'
p4
I0
sS'rstem'
p5
I0
ssS'com.typemytype.robofont.layerData'
p6
(dp7
S'b'
(dp8
S'name'
p9
S'thorn'
p10
sS'lib'
p11
(dp12
sS'unicodes'
p13
(tsS'width'
p14
I1221
sS'contours'
p15
(tsS'components'
p16
(tsS'anchors'
p17
(tsssS'org.robofab.postScriptHintData'
p18
(dp19
s."
LayerCount: 2
Fore
SplineSet
120 311 m 1
 264 311 l 1
 264 -474 l 1
 120 -474 l 1
 120 311 l 1
EndSplineSet
Refer: 154 98 N 1 0 0 1 -52 0 2
EndChar

StartChar: three
Encoding: 51 51 354
Width: 1238
VWidth: 0
GlyphClass: 2
Flags: HW
PickledData: "(dp1
S'org.pippin.gimp.org.kernagic'
p2
(dp3
S'lstem'
p4
I0
sS'rstem'
p5
I0
ssS'com.typemytype.robofont.layerData'
p6
(dp7
sS'org.robofab.postScriptHintData'
p8
(dp9
s."
LayerCount: 2
Fore
SplineSet
612 -20 m 0
 456 -20 275 32 183 186 c 1
 272 259 l 1
 284 259 l 1
 362 143 503 108 613 108 c 0
 792 108 929 194 929 386 c 0
 929 636 768 702 506 703 c 1
 460 703 l 1
 438 833 l 1
 507 833 l 1
 675 835 890 864 890 1094 c 2
 890 1103 l 2
 890 1259 791 1348 621 1348 c 2
 609 1348 l 2
 481 1348 362 1301 277 1180 c 1
 261 1180 l 1
 173 1253 l 1
 279 1439 491 1476 618 1476 c 0
 876 1476 1034 1330 1034 1104 c 2
 1034 1096 l 2
 1034 926 934 813 758 773 c 1
 959 737 1074 595 1074 383 c 0
 1074 166 918 -20 612 -20 c 0
EndSplineSet
EndChar

StartChar: threequarters
Encoding: 190 190 355
Width: 1744
VWidth: 0
GlyphClass: 2
Flags: HW
PickledData: "(dp1
S'org.pippin.gimp.org.kernagic'
p2
(dp3
S'lstem'
p4
I0
sS'rstem'
p5
I0
ssS'com.typemytype.robofont.layerData'
p6
(dp7
sS'org.robofab.postScriptHintData'
p8
(dp9
s."
LayerCount: 2
Fore
SplineSet
354 608 m 0
 274 608 190 634 125 681 c 1
 166 770 l 1
 224 734 294 712 355 712 c 0
 441 712 509 754 509 858 c 0
 509 959 449 1012 330 1012 c 2
 239 1012 l 1
 239 1115 l 1
 327 1115 l 2
 429 1115 493 1167 493 1253 c 0
 493 1338 436 1380 357 1380 c 0
 301 1380 235 1359 170 1318 c 1
 122 1403 l 1
 189 1456 278 1484 361 1484 c 0
 493 1484 611 1416 611 1268 c 0
 611 1191 568 1094 465 1070 c 1
 569 1041 630 962 630 862 c 0
 630 688 498 608 354 608 c 0
1427 0 m 1
 1427 197 l 1
 1024 197 l 1
 1024 280 l 1
 1417 851 l 1
 1544 851 l 1
 1544 292 l 1
 1658 292 l 1
 1666 197 l 1
 1543 197 l 1
 1543 0 l 1
 1427 0 l 1
427 0 m 1
 1328 1486 l 1
 1448 1486 l 1
 548 0 l 1
 427 0 l 1
1151 292 m 1
 1426 292 l 1
 1426 700 l 1
 1151 292 l 1
EndSplineSet
EndChar

StartChar: tilde
Encoding: 732 732 356
Width: 995
VWidth: 0
GlyphClass: 4
Flags: HW
PickledData: "(dp1
S'org.robofab.postScriptHintData'
p2
(dp3
sS'com.typemytype.robofont.layerData'
p4
(dp5
sS'com.fontlab.hintData'
p6
(dp7
S'vhints'
p8
((dp9
S'position'
p10
I169
sS'width'
p11
I63
s(dp12
g10
I657
sg11
I67
stp13
sS'hhints'
p14
((dp15
g10
I1301
sg11
I88
s(dp16
g10
I1400
sg11
I79
stp17
ss."
HStem: 1301 88 1400 79
VStem: 169 63 657 67
AnchorPoint: "top" 497 1062 mark 0
LayerCount: 2
Fore
SplineSet
179 1304 m 1
 179 1446 245 1503 334 1503 c 0
 452 1503 558 1414 622 1414 c 0
 655 1414 676 1436 684 1502 c 1
 767 1502 l 1
 767 1359 705 1304 628 1304 c 0
 525 1304 401 1404 327 1404 c 0
 291 1404 266 1374 259 1304 c 1
 179 1304 l 1
EndSplineSet
EndChar

StartChar: trademark
Encoding: 8482 8482 357
Width: 2151
VWidth: 0
GlyphClass: 2
Flags: HW
PickledData: "(dp1
S'org.robofab.postScriptHintData'
p2
(dp3
sS'com.typemytype.robofont.layerData'
p4
(dp5
S'b'
(dp6
S'name'
p7
S'trademark'
p8
sS'lib'
p9
(dp10
sS'unicodes'
p11
(tsS'width'
p12
I2216
sS'contours'
p13
(tsS'components'
p14
(tsS'anchors'
p15
(tsss."
LayerCount: 2
Fore
SplineSet
962 528 m 1
 978 1460 l 1
 1105 1460 l 1
 1441 766 l 1
 1773 1460 l 1
 1898 1460 l 1
 1914 528 l 1
 1808 528 l 1
 1802 1307 l 1
 1485 639 l 1
 1395 639 l 1
 1074 1314 l 1
 1068 528 l 1
 962 528 l 1
391 528 m 1
 391 1363 l 1
 85 1363 l 1
 85 1460 l 1
 821 1460 l 1
 821 1363 l 1
 510 1363 l 1
 510 528 l 1
 391 528 l 1
EndSplineSet
EndChar

StartChar: two
Encoding: 50 50 358
Width: 1238
VWidth: 0
GlyphClass: 2
Flags: HW
PickledData: "(dp1
S'org.pippin.gimp.org.kernagic'
p2
(dp3
S'lstem'
p4
I0
sS'rstem'
p5
I0
ssS'com.typemytype.robofont.layerData'
p6
(dp7
sS'org.robofab.postScriptHintData'
p8
(dp9
s."
LayerCount: 2
Fore
SplineSet
245 1225 m 1
 228 1225 l 1
 158 1316 l 1
 254 1417 418 1476 578 1476 c 0
 794 1476 1041 1358 1041 1070 c 0
 1041 857 971 770 776 581 c 2
 309 128 l 1
 1029 128 l 1
 1021 0 l 1
 163 0 l 1
 134 135 l 1
 681 676 l 2
 828 821 896 884 896 1062 c 0
 896 1275 730 1350 577 1350 c 0
 455 1350 327 1305 245 1225 c 1
EndSplineSet
EndChar

StartChar: u
Encoding: 117 117 359
Width: 1194
VWidth: 0
GlyphClass: 2
Flags: HW
PickledData: "(dp1
S'org.pippin.gimp.org.kernagic'
p2
(dp3
S'lstem'
p4
I0
sS'rstem'
p5
I0
ssS'com.typemytype.robofont.layerData'
p6
(dp7
sS'com.fontlab.hintData'
p8
(dp9
S'vhints'
p10
((dp11
S'position'
p12
I162
sS'width'
p13
I166
s(dp14
g12
I862
sg13
I166
stp15
sS'hhints'
p16
((dp17
g12
I-21
sg13
I126
stp18
ssS'org.robofab.postScriptHintData'
p19
(dp20
s."
HStem: -21 126
VStem: 162 166 862 166
AnchorPoint: "bot" 563 1 basechar 0
AnchorPoint: "ogonek" 953 1 basechar 0
AnchorPoint: "top" 609 1083 basechar 0
LayerCount: 2
Fore
SplineSet
873 249 m 1
 873 1082 l 1
 1022 1082 l 1
 1022 0 l 1
 893 0 l 1
 884 135 l 1
 812 39 705 -20 544 -20 c 0
 291 -20 157 119 157 408 c 2
 157 1082 l 1
 307 1082 l 1
 307 396 l 2
 307 209 374 92 556 92 c 0
 738 92 828 188 873 249 c 1
EndSplineSet
EndChar

StartChar: underscore
Encoding: 95 95 367
Width: 887
VWidth: 0
GlyphClass: 2
Flags: HW
PickledData: "(dp1
S'org.pippin.gimp.org.kernagic'
p2
(dp3
S'lstem'
p4
I0
sS'rstem'
p5
I0
ssS'com.typemytype.robofont.layerData'
p6
(dp7
sS'org.robofab.postScriptHintData'
p8
(dp9
s."
LayerCount: 2
Fore
SplineSet
0 -257 m 1
 0 -145 l 1
 887 -145 l 1
 887 -257 l 1
 0 -257 l 1
EndSplineSet
EndChar

StartChar: uni00AD
Encoding: 173 173 370
Width: 925
VWidth: 0
GlyphClass: 2
Flags: HW
PickledData: "(dp1
S'org.robofab.postScriptHintData'
p2
(dp3
s."
LayerCount: 2
Fore
SplineSet
106 446 m 1
 106 567 l 1
 815 567 l 1
 815 446 l 1
 106 446 l 1
EndSplineSet
EndChar

StartChar: uni00B2
Encoding: 178 178 371
Width: 769
VWidth: 0
GlyphClass: 2
Flags: HW
PickledData: "(dp1
S'org.robofab.postScriptHintData'
p2
(dp3
sS'com.typemytype.robofont.layerData'
p4
(dp5
s."
LayerCount: 2
Fore
SplineSet
150 661 m 1
 150 754 l 1
 258 861 319 905 427 1025 c 0
 507 1115 550 1184 550 1248 c 0
 550 1343 487 1409 392 1409 c 0
 287 1409 214 1368 156 1298 c 1
 99 1373 l 1
 167 1460 264 1507 395 1507 c 0
 537 1507 661 1418 661 1251 c 0
 661 1135 609 1052 510 951 c 0
 438 878 411 855 309 754 c 1
 660 754 l 1
 653 661 l 1
 150 661 l 1
EndSplineSet
EndChar

StartChar: uni00B3
Encoding: 179 179 372
Width: 874
VWidth: 0
GlyphClass: 2
Flags: HW
PickledData: "(dp1
S'org.robofab.postScriptHintData'
p2
(dp3
sS'com.typemytype.robofont.layerData'
p4
(dp5
s."
LayerCount: 2
Fore
SplineSet
438 642 m 0
 335 642 235 673 174 732 c 1
 222 811 l 1
 268 764 340 732 437 732 c 0
 536 732 615 784 615 883 c 0
 615 979 546 1045 428 1045 c 0
 390 1045 352 1045 314 1045 c 1
 314 1130 l 1
 426 1130 l 2
 549 1130 606 1191 606 1279 c 0
 606 1372 534 1414 439 1414 c 0
 345 1414 276 1384 224 1338 c 1
 177 1409 l 1
 239 1470 342 1504 450 1504 c 0
 586 1504 708 1441 708 1286 c 0
 708 1183 647 1112 554 1090 c 1
 646 1068 717 993 717 881 c 0
 717 720 585 642 438 642 c 0
EndSplineSet
EndChar

StartChar: uni00B5
Encoding: 181 181 373
Width: 1187
VWidth: 0
GlyphClass: 2
Flags: HW
PickledData: "(dp1
S'org.robofab.postScriptHintData'
p2
(dp3
sS'com.typemytype.robofont.layerData'
p4
(dp5
s."
LayerCount: 2
Fore
SplineSet
873 249 m 1
 873 1082 l 1
 1022 1082 l 1
 1022 0 l 1
 893 0 l 1
 884 135 l 1
 812 39 705 -20 544 -20 c 0
 447.357685358 -20 368.079002401 0.281889111528 307 41.4587698398 c 1
 307 -299 l 1
 157 -299 l 1
 157 1082 l 1
 307 1082 l 1
 307 396 l 0
 307 209 374 92 556 92 c 0
 738 92 828 188 873 249 c 1
EndSplineSet
EndChar

StartChar: uni00B9
Encoding: 185 185 374
Width: 891
VWidth: 0
GlyphClass: 2
Flags: HW
PickledData: "(dp1
S'org.robofab.postScriptHintData'
p2
(dp3
sS'com.typemytype.robofont.layerData'
p4
(dp5
s."
LayerCount: 2
Fore
SplineSet
269 648 m 1
 269 745 l 1
 450 745 l 1
 450 1367 l 1
 412 1343 308 1301 265 1292 c 1
 265 1391 l 1
 321 1408 434 1459 473 1494 c 1
 573 1494 l 1
 573 745 l 1
 746 745 l 1
 746 648 l 1
 269 648 l 1
EndSplineSet
EndChar

StartChar: uni02C9
Encoding: 713 713 443
Width: 600
VWidth: 0
GlyphClass: 4
Flags: HW
PickledData: "(dp1
S'org.robofab.postScriptHintData'
p2
(dp3
s."
AnchorPoint: "top" 311 1062 mark 0
LayerCount: 2
Fore
SplineSet
6 1307 m 1
 6 1425 l 1
 590 1425 l 1
 590 1307 l 1
 6 1307 l 1
EndSplineSet
EndChar

StartChar: uni0307
Encoding: 775 775 444
Width: 386
VWidth: 0
GlyphClass: 2
Flags: HW
PickledData: "(dp1
S'org.robofab.postScriptHintData'
p2
(dp3
sS'com.typemytype.robofont.layerData'
p4
(dp5
s."
LayerCount: 2
Fore
SplineSet
309 1451 m 0
 309 1383 271 1344 199 1344 c 0
 127 1344 88 1383 88 1451 c 0
 88 1518 127 1556 199 1556 c 0
 271 1556 309 1518 309 1451 c 0
EndSplineSet
EndChar

StartChar: uni2074
Encoding: 8308 8308 463
Width: 705
VWidth: 0
GlyphClass: 2
Flags: HW
PickledData: "(dp1
S'org.robofab.postScriptHintData'
p2
(dp3
sS'com.typemytype.robofont.layerData'
p4
(dp5
s."
LayerCount: 2
Fore
SplineSet
425 632 m 1
 425 846 l 1
 64 846 l 1
 64 940 l 1
 418 1497 l 1
 538 1497 l 1
 538 934 l 1
 660 934 l 1
 656 846 l 1
 536 846 l 1
 537 632 l 1
 425 632 l 1
180 934 m 1
 425 934 l 1
 427 1352 l 1
 180 934 l 1
EndSplineSet
EndChar

StartChar: uni2113
Encoding: 8467 8467 464
Width: 1181
VWidth: 0
GlyphClass: 2
Flags: HW
PickledData: "(dp1
S'org.robofab.postScriptHintData'
p2
(dp3
s."
LayerCount: 2
Fore
SplineSet
308 253 m 0
 308 322 321 404 348 501 c 1
 125 334 l 1
 83 404 l 1
 383 631 l 1
 590 1396 l 2
 652 1623 781 1683 907 1683 c 0
 1050 1683 1187 1597 1187 1397 c 0
 1187 1187 1094 1064 853 865 c 2
 556 619 l 1
 507 417 l 2
 491 352 482 297 482 252 c 0
 482 157 521 108 614 108 c 0
 696 108 785 142 887 200 c 1
 910 98 l 1
 910 98 766 -20 549 -20 c 0
 402 -20 308 59 308 253 c 0
587 752 m 1
 800 943 l 2
 974 1100 1083 1327 1083 1396 c 0
 1083 1485 1002 1556 916 1556 c 0
 840 1556 759 1501 725 1354 c 2
 587 752 l 1
EndSplineSet
EndChar

StartChar: uni2206
Encoding: 8710 8710 466
Width: 1294
VWidth: 0
GlyphClass: 2
Flags: HW
PickledData: "(dp1
S'org.pippin.gimp.org.kernagic'
p2
(dp3
S'lstem'
p4
I0
sS'rstem'
p5
I0
ssS'com.typemytype.robofont.layerData'
p6
(dp7
S'b'
(dp8
S'name'
p9
S'uni2206'
p10
sS'lib'
p11
(dp12
sS'unicodes'
p13
(tsS'width'
p14
I1278
sS'contours'
p15
(tsS'components'
p16
(tsS'anchors'
p17
(tsssS'org.robofab.postScriptHintData'
p18
(dp19
s."
LayerCount: 2
Fore
SplineSet
565 1530 m 1
 731 1530 l 1
 1222 85 l 1
 1222 0 l 1
 73 0 l 1
 73 85 l 1
 565 1530 l 1
676 1216 m 1
 642 1334 l 1
 610 1216 l 1
 246 158 l 1
 1044 158 l 1
 676 1216 l 1
EndSplineSet
EndChar

StartChar: v
Encoding: 118 118 477
Width: 1070
VWidth: 0
GlyphClass: 2
Flags: HW
PickledData: "(dp1
S'org.pippin.gimp.org.kernagic'
p2
(dp3
S'lstem'
p4
I0
sS'rstem'
p5
I0
ssS'com.typemytype.robofont.guides'
p6
((dp7
S'y'
I552
sS'x'
I438
sS'magnetic'
p8
I5
sS'angle'
p9
I0
sS'isGlobal'
p10
I00
stp11
sS'com.typemytype.robofont.layerData'
p12
(dp13
sS'org.robofab.postScriptHintData'
p14
(dp15
s."
LayerCount: 2
Fore
SplineSet
462 0 m 1
 66 1082 l 1
 218 1082 l 1
 324 777 430 472 540 172 c 1
 648 474 753 778 858 1082 c 1
 1008 1082 l 1
 616 0 l 1
 462 0 l 1
EndSplineSet
EndChar

StartChar: w
Encoding: 119 119 478
Width: 1506
VWidth: 0
GlyphClass: 2
Flags: HW
PickledData: "(dp1
S'org.pippin.gimp.org.kernagic'
p2
(dp3
S'lstem'
p4
I0
sS'rstem'
p5
I0
ssS'com.typemytype.robofont.layerData'
p6
(dp7
sS'org.robofab.postScriptHintData'
p8
(dp9
s."
AnchorPoint: "top" 756 1082 basechar 0
LayerCount: 2
Fore
SplineSet
757 938 m 1
 461 0 l 1
 329 0 l 1
 34 1082 l 1
 174 1082 l 1
 403 203 l 1
 673 1076 l 1
 834 1076 l 1
 1120 201 l 1
 1335 1082 l 1
 1472 1082 l 1
 1188 0 l 1
 1057 0 l 1
 757 938 l 1
EndSplineSet
EndChar

StartChar: x
Encoding: 120 120 483
Width: 1045
VWidth: 0
GlyphClass: 2
Flags: HW
PickledData: "(dp1
S'org.pippin.gimp.org.kernagic'
p2
(dp3
S'lstem'
p4
I0
sS'rstem'
p5
I0
ssS'com.typemytype.robofont.layerData'
p6
(dp7
sS'com.fontlab.hintData'
p8
(dp9
S'hhints'
p10
((dp11
S'position'
p12
I0
sS'width'
p13
I22
s(dp14
g12
I1034
sg13
I21
stp15
ssS'org.robofab.postScriptHintData'
p16
(dp17
s."
HStem: 0 22 1034 21
LayerCount: 2
Fore
SplineSet
612 549 m 1
 986 0 l 1
 819 0 l 1
 516 443 l 1
 209 0 l 1
 55 0 l 1
 444 550 l 1
 80 1082 l 1
 248 1082 l 1
 539 655 l 1
 830 1082 l 1
 985 1082 l 1
 612 549 l 1
EndSplineSet
EndChar

StartChar: y
Encoding: 121 121 484
Width: 1118
VWidth: 0
GlyphClass: 2
Flags: HW
PickledData: "(dp1
S'org.pippin.gimp.org.kernagic'
p2
(dp3
S'lstem'
p4
I0
sS'rstem'
p5
I0
ssS'com.typemytype.robofont.layerData'
p6
(dp7
sS'org.robofab.postScriptHintData'
p8
(dp9
s."
AnchorPoint: "top" 580 1082 basechar 0
LayerCount: 2
Fore
SplineSet
1062 1082 m 1
 477 -408 l 1
 348 -375 l 1
 504 37 l 1
 52 1082 l 1
 210 1082 l 1
 577 208 l 1
 918 1082 l 1
 1062 1082 l 1
EndSplineSet
EndChar

StartChar: yen
Encoding: 165 165 488
Width: 1337
VWidth: 0
GlyphClass: 2
Flags: HW
PickledData: "(dp1
S'org.pippin.gimp.org.kernagic'
p2
(dp3
S'lstem'
p4
I0
sS'rstem'
p5
I0
ssS'com.typemytype.robofont.layerData'
p6
(dp7
S'b'
(dp8
S'name'
p9
S'yen'
p10
sS'lib'
p11
(dp12
sS'unicodes'
p13
(tsS'width'
p14
I1366
sS'contours'
p15
(tsS'components'
p16
(tsS'anchors'
p17
(tsssS'org.robofab.postScriptHintData'
p18
(dp19
s."
LayerCount: 2
Fore
SplineSet
263 521 m 1
 263 619 l 1
 546.108342362 619 l 1
 80 1456 l 1
 224 1456 l 1
 672 665 l 1
 1098 1456 l 1
 1252 1456 l 1
 798.662702703 619 l 1
 1057 619 l 1
 1057 521 l 1
 751 521 l 1
 751 370 l 1
 1057 370 l 1
 1057 272 l 1
 751 272 l 1
 751 0 l 1
 594 0 l 1
 594 272 l 1
 263 272 l 1
 263 370 l 1
 594 370 l 1
 594 521 l 1
 263 521 l 1
EndSplineSet
EndChar

StartChar: z
Encoding: 122 122 490
Width: 991
VWidth: 0
GlyphClass: 2
Flags: HW
PickledData: "(dp1
S'org.pippin.gimp.org.kernagic'
p2
(dp3
S'lstem'
p4
I0
sS'rstem'
p5
I0
ssS'com.typemytype.robofont.layerData'
p6
(dp7
sS'org.robofab.postScriptHintData'
p8
(dp9
s."
AnchorPoint: "bot" 472 0 basechar 0
AnchorPoint: "top" 506 1082 basechar 0
LayerCount: 2
Fore
SplineSet
129 1082 m 1
 866 1082 l 1
 866 977 l 1
 268 113 l 1
 867 113 l 1
 874 0 l 1
 108 0 l 1
 108 101 l 1
 713 972 l 1
 134 972 l 1
 129 1082 l 1
EndSplineSet
EndChar

StartChar: zero
Encoding: 48 48 494
Width: 1245
VWidth: 0
GlyphClass: 2
Flags: HW
PickledData: "(dp1
S'org.pippin.gimp.org.kernagic'
p2
(dp3
S'lstem'
p4
I0
sS'rstem'
p5
I0
ssS'com.typemytype.robofont.layerData'
p6
(dp7
S'b'
(dp8
S'name'
p9
S'zero'
p10
sS'lib'
p11
(dp12
sS'unicodes'
p13
(tsS'width'
p14
I1248
sS'contours'
p15
(tsS'components'
p16
(tsS'anchors'
p17
(tsssS'org.robofab.postScriptHintData'
p18
(dp19
s."
LayerCount: 2
Fore
SplineSet
627 110 m 0
 830 110 956 267 956 713 c 0
 956 1169 830 1347 627 1347 c 0
 425 1347 288 1139 288 721 c 2
 288 712 l 2
 288 266 424 110 627 110 c 0
627 -20 m 0
 290 -20 138 257 138 708 c 0
 138 1182 308 1476 627 1476 c 0
 946 1476 1105 1184 1105 708 c 0
 1105 257 964 -20 627 -20 c 0
EndSplineSet
EndChar
